<?xml version="1.0" standalone="no"?>
<!DOCTYPE svg PUBLIC "-//W3C//DTD SVG 1.1//EN" "http://www.w3.org/Graphics/SVG/1.1/DTD/svg11.dtd" >
<svg>
<metadata>
Created by FontForge 20090914 at Mon Sep 30 02:27:00 2013
 By www-data
Copyright (c) 1988, 1990, 1993, 996 Adobe Systems Incorporated.  All Rights Reserved.Helvetica is a trademark of Linotype-Hell AG and/or its subsidiaries.
</metadata>
<defs>
<font id="HelveticaNeueCE-Roman" horiz-adv-x="556" >
  <font-face 
    font-family="Helvetica CE 55 Roman"
    font-weight="400"
    font-stretch="normal"
    units-per-em="1000"
    panose-1="2 0 5 3 4 0 0 2 0 4"
    ascent="800"
    descent="-200"
    x-height="517"
    cap-height="714"
    bbox="-166 -263 1076 956"
    underline-thickness="50"
    underline-position="-75"
    unicode-range="U+0020-U+FB02"
  />
<missing-glyph horiz-adv-x="278" 
 />
    <glyph glyph-name=".notdef" horiz-adv-x="278" 
 />
    <glyph glyph-name="space" unicode=" " horiz-adv-x="278" 
 />
    <glyph glyph-name="space" unicode="&#xa0;" horiz-adv-x="278" 
 />
    <glyph glyph-name="exclam" unicode="!" horiz-adv-x="259" 
d="M177 714h-95v-220l25 -311h45l25 311v220zM74 0h111v111h-111v-111z" />
    <glyph glyph-name="quotedbl" unicode="&#x22;" horiz-adv-x="426" 
d="M109 456h68v258h-68v-258zM249 456h68v258h-68v-258z" />
    <glyph glyph-name="numbersign" unicode="#" 
d="M102 0h69l29 206h124l-29 -206h69l29 206h101v68h-91l21 150h98v68h-89l29 205h-69l-29 -205h-124l29 205h-69l-29 -205h-111v-68h102l-21 -150h-107v-68h97zM355 424l-21 -150h-124l21 150h124z" />
    <glyph glyph-name="dollar" unicode="$" 
d="M251 417c-16.667 4.66699 -32 10 -46 16s-26.167 13.167 -36.5 21.5s-18.333 18.5 -24 30.5s-8.5 27 -8.5 45c0 38 11.167 66.833 33.5 86.5s49.5 31.167 81.5 34.5v-234zM306 314c18 -5.33301 35.002 -11.1689 51.002 -17.502s29.667 -14.166 41 -23.499
s20.333 -20.666 27 -33.999s10 -29.333 10 -48c0 -21.333 -3.16699 -39.833 -9.5 -55.5s-15.333 -28.5 -27 -38.5s-25.334 -17.833 -41.001 -23.5s-32.834 -9.16699 -51.501 -10.5v251zM25.002 217.997c5.33301 -69.333 27.834 -124.169 67.501 -164.502
s92.5 -63.833 158.5 -70.5v-82h55v82c32 2.66699 61.333 9.33398 88 20.001s49.667 25.334 69 44.001s34.5 40.834 45.5 66.501s16.5 54.5 16.5 86.5c0 30.667 -5.83301 57 -17.5 79s-25.834 40.333 -42.501 55s-34.167 26.167 -52.5 34.5s-33.833 14.166 -46.5 17.499
l-60 16v246c61.333 -11.333 98.666 -50 111.999 -116h85c-13.333 58 -36 103.833 -68 137.5s-75 53.834 -129 60.501v67h-55v-66c-28.667 -2 -55.5 -8.33301 -80.5 -19s-46.667 -25.167 -65 -43.5s-32.833 -40 -43.5 -65s-16 -52.5 -16 -82.5c0 -29.333 4 -54.333 12 -75
s20.5 -38.334 37.5 -53.001s38.333 -27 64 -37s56.167 -19.333 91.5 -28v-265c-40 6.66699 -73.167 23 -99.5 49s-40.166 61.333 -41.499 106h-85z" />
    <glyph glyph-name="percent" unicode="%" horiz-adv-x="1000" 
d="M586 186c0 -27.333 2.83398 -52.9951 8.50098 -76.9951s14.834 -45 27.501 -63s29.334 -32.167 50.001 -42.5s46 -15.5 76 -15.5c28.667 0 53.167 5.66699 73.5 17s37 26.166 50 44.499s22.333 39.666 28 63.999s8.5 49.5 8.5 75.5c0 27.333 -2.5 53.166 -7.5 77.499
s-13.667 45.5 -26 63.5s-28.833 32.333 -49.5 43s-46.334 16 -77.001 16s-56.334 -5.5 -77.001 -16.5s-37.334 -25.833 -50.001 -44.5s-21.667 -40.334 -27 -65.001s-8 -50.334 -8 -77.001zM661.001 188.005c0 14.667 1.00195 30.665 3.00195 47.998
s6.16699 33.166 12.5 47.499s15.166 26.333 26.499 36s26.333 14.5 45 14.5s33.667 -4.83301 45 -14.5s20 -21.667 26 -36s9.83301 -30 11.5 -47s2.5 -32.833 2.5 -47.5c0 -15.333 -1 -31.666 -3 -48.999s-6.16699 -33.166 -12.5 -47.499s-15.333 -26.166 -27 -35.499
s-26.834 -14 -45.501 -14s-33.5 4.83301 -44.5 14.5s-19.5 21.667 -25.5 36s-9.83301 30 -11.5 47s-2.5 32.833 -2.5 47.5zM92.0029 506.003c0 -27.333 2.83398 -52.9951 8.50098 -76.9951s14.834 -45 27.501 -63s29.334 -32.167 50.001 -42.5s46 -15.5 76 -15.5
c28.667 0 53.167 5.66699 73.5 17s37 26.166 50 44.499s22.333 39.666 28 63.999s8.5 49.5 8.5 75.5c0 27.333 -2.5 53.166 -7.5 77.499s-13.667 45.5 -26 63.5s-28.833 32.333 -49.5 43s-46.334 16 -77.001 16s-56.334 -5.5 -77.001 -16.5s-37.334 -25.833 -50.001 -44.5
s-21.667 -40.334 -27 -65.001s-8 -50.334 -8 -77.001zM167.004 508.008c0 14.667 1.00195 30.665 3.00195 47.998s6.16699 33.166 12.5 47.499s15.166 26.333 26.499 36s26.333 14.5 45 14.5s33.667 -4.83301 45 -14.5s20 -21.667 26 -36s9.83301 -30 11.5 -47
s2.5 -32.833 2.5 -47.5c0 -15.333 -1 -31.666 -3 -48.999s-6.16699 -33.166 -12.5 -47.499s-15.333 -26.166 -27 -35.499s-26.834 -14 -45.501 -14s-33.5 4.83301 -44.5 14.5s-19.5 21.667 -25.5 36s-9.83301 30 -11.5 47s-2.5 32.833 -2.5 47.5zM188.006 -21.9941h86
l537 744h-85z" />
    <glyph glyph-name="ampersand" unicode="&#x26;" horiz-adv-x="630" 
d="M411 148c-17.333 -26 -38.832 -46.668 -64.499 -62.001s-54.834 -23 -87.501 -23c-17.333 0 -34.166 3 -50.499 9s-30.833 14.167 -43.5 24.5s-22.834 23 -30.501 38s-11.5 31.5 -11.5 49.5c0 21.333 3.33301 39.833 10 55.5s15.667 29.834 27 42.501s24.5 24 39.5 34
s30.833 19.667 47.5 29zM534.001 -0.000976562l110.999 0.00683594l-139 161l19 42.5c5.33301 12.333 9.83301 24.833 13.5 37.5s6.66699 26.5 9 41.5s4.5 33.167 6.5 54.5h-81c-2 -38 -9.66699 -75 -23 -111l-129 157c17.333 10 34 21.167 50 33.5s30.333 26.166 43 41.499
s22.667 32.166 30 50.499s11 38.166 11 59.499c0 24 -4.83301 45.167 -14.5 63.5s-22.5 33.666 -38.5 45.999s-34.5 21.5 -55.5 27.5s-42.5 9 -64.5 9c-26 0 -49 -4 -69 -12s-36.833 -18.833 -50.5 -32.5s-24 -29.334 -31 -47.001s-10.5 -36.167 -10.5 -55.5
c0 -18 2.16699 -34.333 6.5 -49s10.333 -28.334 18 -41.001s16.167 -25.334 25.5 -38.001l29 -40c-22.667 -12 -44.167 -24.833 -64.5 -38.5s-38 -29 -53 -46s-27 -36.167 -36 -57.5s-13.5 -46 -13.5 -74c0 -14.667 2.5 -33 7.5 -55s15.5 -43.333 31.5 -64
s38.667 -38.5 68 -53.5s68 -22.5 116 -22.5c19.333 0 38.833 2.16699 58.5 6.5s38.334 10.666 56.001 18.999s34 18.833 49 31.5s27.833 27.334 38.5 44.001zM275 439.006l-24.001 29.998c-8 10 -15.333 20.167 -22 30.5s-12.167 20.833 -16.5 31.5s-6.5 21.334 -6.5 32.001
c0 26 8.66699 45.167 26 57.5s36 18.5 56 18.5c25.333 0 45.333 -7.5 60 -22.5s22 -32.833 22 -53.5c0 -15.333 -3 -29.166 -9 -41.499s-13.667 -23.5 -23 -33.5s-19.666 -19 -30.999 -27z" />
    <glyph glyph-name="quotesingle" unicode="'" horiz-adv-x="278" 
d="M105 456h68v258h-68v-258z" />
    <glyph glyph-name="parenleft" unicode="(" horiz-adv-x="259" 
d="M269 -198c-47.333 76.667 -81.167 152.835 -101.5 228.502s-30.5 155.5 -30.5 239.5c0 81.333 10 159.666 30 234.999s54 150.666 102 225.999h-65c-51.333 -68.667 -90.333 -143 -117 -223s-40 -159.333 -40 -238c0 -87.333 14.167 -168.5 42.5 -243.5
s66.5 -149.833 114.5 -224.5h65z" />
    <glyph glyph-name="parenright" unicode=")" horiz-adv-x="259" 
d="M55 -198c51.333 68.667 90.334 142.999 117.001 222.999s40 159.333 40 238c0 44 -3.66699 86 -11 126s-17.833 79.167 -31.5 117.5s-30.167 76 -49.5 113s-41 74.167 -65 111.5h-65c47.333 -76.667 81.166 -152.834 101.499 -228.501s30.5 -155.5 30.5 -239.5
c0 -81.333 -10 -159.666 -30 -234.999s-54 -150.666 -102 -225.999h65z" />
    <glyph glyph-name="asterisk" unicode="*" horiz-adv-x="352" 
d="M201 714h-53v-113l-106 40l-18 -48l106 -38l-65 -91l45 -31l65 96l69 -96l41 31l-66 91l109 38l-20 48l-107 -40v113z" />
    <glyph glyph-name="plus" unicode="+" horiz-adv-x="600" 
d="M334 506h-68v-219h-218v-68h218v-219h68v219h218v68h-218v219z" />
    <glyph glyph-name="comma" unicode="," horiz-adv-x="278" 
d="M83 0l59 -0.000976562c0.666992 -8 0 -16.833 -2 -26.5s-5.16699 -19.167 -9.5 -28.5s-10.333 -17.666 -18 -24.999s-17.167 -13 -28.5 -17v-50c38.667 11.333 66.667 30.833 84 58.5s26 60.5 26 98.5v101h-111v-111z" />
    <glyph glyph-name="hyphen" unicode="-" horiz-adv-x="389" 
d="M50 238h289v80h-289v-80z" />
    <glyph glyph-name="hyphen" unicode="&#xad;" horiz-adv-x="389" 
d="M50 238h289v80h-289v-80z" />
    <glyph glyph-name="period" unicode="." horiz-adv-x="278" 
d="M83 0h111v111h-111v-111z" />
    <glyph glyph-name="slash" unicode="/" horiz-adv-x="333" 
d="M-18 -17h73l296 748h-73z" />
    <glyph glyph-name="zero" unicode="0" 
d="M42 348c0 -26 0.674805 -53 2.00781 -81s4.66602 -55.333 9.99902 -82s13 -51.834 23 -75.501s23.667 -44.5 41 -62.5s39.166 -32.333 65.499 -43s57.833 -16 94.5 -16s68.167 5.33301 94.5 16s48.166 25 65.499 43s31 38.833 41 62.5s17.667 48.834 23 75.501
s8.66602 54 9.99902 82s2 55 2 81c0 39.333 -1.83301 80.166 -5.5 122.499s-13.334 81.166 -29.001 116.499s-39.334 64.5 -71.001 87.5s-75.167 34.5 -130.5 34.5s-98.833 -11.5 -130.5 -34.5s-55.334 -52.167 -71.001 -87.5s-25.334 -74.166 -29.001 -116.499
s-5.5 -83.166 -5.5 -122.499zM132.008 349c0 17.333 0.166992 36.5 0.5 57.5s2 42 5 63s7.33301 41.5 13 61.5s14 37.5 25 52.5s24.833 27.167 41.5 36.5s37 14 61 14s44.333 -4.66699 61 -14s30.5 -21.5 41.5 -36.5s19.333 -32.5 25 -52.5s10 -40.5 13 -61.5
s4.66699 -42 5 -63s0.5 -40.167 0.5 -57.5c0 -26.667 -0.833008 -56.5 -2.5 -89.5s-7 -64 -16 -93s-23.5 -53.5 -43.5 -73.5s-48 -30 -84 -30s-64 10 -84 30s-34.5 44.5 -43.5 73.5s-14.333 60 -16 93s-2.5 62.833 -2.5 89.5z" />
    <glyph glyph-name="one" unicode="1" 
d="M356 709h-64.999c-4.66699 -26.667 -13.334 -48.667 -26.001 -66s-28.167 -31 -46.5 -41s-38.833 -16.833 -61.5 -20.5s-46 -5.5 -70 -5.5v-68h184v-508h85v709z" />
    <glyph glyph-name="two" unicode="2" 
d="M129 458c-0.666992 21.333 1.49609 42.5 6.49609 63.5s13.167 39.833 24.5 56.5s25.833 30.167 43.5 40.5s38.834 15.5 63.501 15.5c18.667 0 36.334 -3 53.001 -9s31.167 -14.667 43.5 -26s22.166 -24.833 29.499 -40.5s11 -33.167 11 -52.5
c0 -24.667 -3.83301 -46.334 -11.5 -65.001s-19 -36 -34 -52s-33.833 -31.833 -56.5 -47.5s-49 -32.834 -79 -51.501c-25.333 -15.333 -49.166 -31.166 -71.499 -47.499s-42.333 -35.5 -60 -57.5s-32.5 -47.833 -44.5 -77.5s-19.667 -65.5 -23 -107.5h463v75h-364
c4 22 12.5 41.5 25.5 58.5s28.667 32.833 47 47.5s38.5 28.5 60.5 41.5l66 39.5c22 14 43.333 28.667 64 44s39 32.5 55 51.5s28.833 40.5 38.5 64.5s14.5 51.667 14.5 83c0 32.667 -5.83301 61.834 -17.5 87.501s-27.5 47 -47.5 64s-43.5 30 -70.5 39
s-55.833 13.5 -86.5 13.5c-37.333 0 -70.666 -6.33301 -99.999 -19s-53.666 -30.167 -72.999 -52.5s-33.833 -48.833 -43.5 -79.5s-13.5 -64 -11.5 -100h85z" />
    <glyph glyph-name="three" unicode="3" 
d="M218 333c16 2 32.9961 3.00098 50.9961 3.00098c20.667 0 40.334 -2.83301 59.001 -8.5s34.667 -14.334 48 -26.001s24 -26 32 -43s12 -36.5 12 -58.5c0 -21.333 -4.16699 -40.5 -12.5 -57.5s-19.5 -31.333 -33.5 -43s-30.333 -20.667 -49 -27s-38.334 -9.5 -59.001 -9.5
c-48.667 0 -85.667 14.5 -111 43.5s-38.666 66.5 -39.999 112.5h-85c-0.666992 -36.667 4.5 -69.334 15.5 -98.001s26.833 -52.834 47.5 -72.501s45.667 -34.667 75 -45s62 -15.5 98 -15.5c33.333 0 64.833 4.66699 94.5 14s55.5 23 77.5 41s39.5 40.5 52.5 67.5
s19.5 58.167 19.5 93.5c0 42.667 -10.5 79.667 -31.5 111s-53.167 51.666 -96.5 60.999v2c27.333 12.667 50.5 31.5 69.5 56.5s28.5 53.167 28.5 84.5c0 32.667 -5.5 61 -16.5 85s-26.167 43.667 -45.5 59s-42.166 26.833 -68.499 34.5s-54.833 11.5 -85.5 11.5
c-35.333 0 -66.5 -5.66699 -93.5 -17s-49.5 -27 -67.5 -47s-31.833 -44 -41.5 -72s-15.167 -59 -16.5 -93h85c0 20.667 2.66699 40.334 8 59.001s13.5 35 24.5 49s24.833 25.167 41.5 33.5s36.667 12.5 60 12.5c36 0 66 -9.66699 90 -29s36 -47.666 36 -84.999
c0 -19.333 -3.66699 -36.166 -11 -50.499s-17.166 -26.333 -29.499 -36s-26.666 -17 -42.999 -22s-33.5 -7.5 -51.5 -7.5h-18c-6 0 -12.333 0.333008 -19 1v-72z" />
    <glyph glyph-name="four" unicode="4" 
d="M419 709h-68l-323 -461v-82h311v-166h80v166h96v75h-96v468zM101 241l236 347h2v-347h-238z" />
    <glyph glyph-name="five" unicode="5" 
d="M470 697l-350.001 -0.000976562l-66 -368l73 -4c16.667 20 36 36.167 58 48.5s46.667 18.5 74 18.5c24 0 45.833 -4 65.5 -12s36.5 -19.167 50.5 -33.5s24.833 -31.333 32.5 -51s11.5 -41.167 11.5 -64.5c0 -28 -4 -52.5 -12 -73.5s-18.833 -38.5 -32.5 -52.5
s-29.667 -24.5 -48 -31.5s-37.5 -10.5 -57.5 -10.5c-21.333 0 -40.833 3.16699 -58.5 9.5s-33 15.333 -46 27s-23.333 25.334 -31 41.001s-12.167 32.5 -13.5 50.5h-85c0.666992 -32 7 -60.5 19 -85.5s28.333 -46.333 49 -64s44.5 -31 71.5 -40s55.833 -13.5 86.5 -13.5
c41.333 0 77.5 6.66699 108.5 20s56.833 31 77.5 53s36.167 47.167 46.5 75.5s15.5 57.5 15.5 87.5c0 40.667 -6 76.167 -18 106.5s-28.333 55.666 -49 75.999s-45 35.5 -73 45.5s-57.667 15 -89 15c-24 0 -48.167 -4.16699 -72.5 -12.5s-44.166 -21.166 -59.499 -38.499
l-2 2l38 204h286v75z" />
    <glyph glyph-name="six" unicode="6" 
d="M286 381c24 0 44.998 -4.33105 62.998 -12.998s33 -20.167 45 -34.5s20.833 -31.333 26.5 -51s8.5 -40.5 8.5 -62.5c0 -21.333 -3.16699 -41.333 -9.5 -60s-15.5 -35.334 -27.5 -50.001s-27 -26.167 -45 -34.5s-38.333 -12.5 -61 -12.5
c-23.333 0 -44.166 4.16699 -62.499 12.5s-33.666 19.5 -45.999 33.5s-21.833 30.667 -28.5 50s-10 40 -10 62s3.16699 42.833 9.5 62.5s15.833 36.667 28.5 51s28 25.666 46 33.999s39 12.5 63 12.5zM498.998 528.002c-5.33301 58 -25.3311 102.668 -59.998 134.001
s-81.334 47 -140.001 47c-50.667 0 -92.667 -10.667 -126 -32s-60 -49.666 -80 -84.999s-34.167 -75.833 -42.5 -121.5s-12.5 -92.834 -12.5 -141.501c0 -37.333 2.83301 -76 8.5 -116s17.167 -76.667 34.5 -110s42 -60.833 74 -82.5s74.333 -32.5 127 -32.5
c44.667 0 82.167 7.5 112.5 22.5s54.666 34.167 72.999 57.5s31.5 49 39.5 77s12 55 12 81c0 32.667 -5 63 -15 91s-24.167 52.333 -42.5 73s-41 36.834 -68 48.501s-57.5 17.5 -91.5 17.5c-38.667 0 -72.834 -7.33301 -102.501 -22s-54.5 -38.334 -74.5 -71.001l-2 2
c0.666992 27.333 3.33398 56.666 8.00098 87.999s13 60.5 25 87.5s29.167 49.333 51.5 67s51.5 26.5 87.5 26.5c34 0 61.333 -9.66699 82 -29s33 -45 37 -77h85z" />
    <glyph glyph-name="seven" unicode="7" 
d="M509 697h-458.997v-80h372c-37.333 -39.333 -72.166 -82.333 -104.499 -129s-60.833 -96.167 -85.5 -148.5s-44.834 -107 -60.501 -164s-25.5 -115.5 -29.5 -175.5h95c3.33301 55.333 12.666 112.333 27.999 171s35.166 115.667 59.499 171s52.166 107.333 83.499 156
s65 90.667 101 126v73z" />
    <glyph glyph-name="eight" unicode="8" 
d="M130 200c0 20.667 3.83203 39.332 11.499 55.999s18.334 31 32.001 43s29.5 21.167 47.5 27.5s37.667 9.5 59 9.5c20 0 38.833 -3.5 56.5 -10.5s33.167 -16.5 46.5 -28.5s23.833 -26.167 31.5 -42.5s11.5 -34.166 11.5 -53.499c0 -20 -3.5 -38.333 -10.5 -55
s-17 -31.167 -30 -43.5s-28.333 -22 -46 -29s-37.167 -10.5 -58.5 -10.5c-44 0 -80.167 12.167 -108.5 36.5s-42.5 57.833 -42.5 100.5zM64.999 527.998c0 -32 8.99902 -61.501 26.999 -88.501s42 -46.5 72 -58.5c-40 -14 -70.667 -36.5 -92 -67.5s-32 -67.5 -32 -109.5
c0 -36 6.16699 -67.5 18.5 -94.5s29.333 -49.5 51 -67.5s47.167 -31.5 76.5 -40.5s61 -13.5 95 -13.5c32.667 0 63.334 4.83301 92.001 14.5s53.5 23.667 74.5 42s37.667 41 50 68s18.5 57.5 18.5 91.5c0 44 -10.333 81.167 -31 111.5s-52.334 52.166 -95.001 65.499
c29.333 13.333 53 33.166 71 59.499s27 55.5 27 87.5c0 22.667 -4 44.834 -12 66.501s-20.5 41 -37.5 58s-39.167 30.667 -66.5 41s-60.333 15.5 -99 15.5c-27.333 0 -53.5 -4 -78.5 -12s-47.167 -19.667 -66.5 -35s-34.666 -34.166 -45.999 -56.499
s-17 -48.166 -17 -77.499zM154.998 524.997c0 18 3.33105 33.6699 9.99805 47.0029s15.5 24.666 26.5 33.999s24 16.333 39 21s31.167 7 48.5 7c34.667 0 63.167 -9.16699 85.5 -27.5s33.5 -45.5 33.5 -81.5s-11 -64 -33 -84s-50 -30 -84 -30
c-17.333 0 -33.666 2.33301 -48.999 7s-28.666 11.667 -39.999 21s-20.333 21.166 -27 35.499s-10 31.166 -10 50.499z" />
    <glyph glyph-name="nine" unicode="9" 
d="M409 472c0 -21.333 -3.33105 -41.334 -9.99805 -60.001s-16.334 -35.167 -29.001 -49.5s-28 -25.666 -46 -33.999s-38 -12.5 -60 -12.5c-20.667 0 -39.5 4.16699 -56.5 12.5s-31.667 19.5 -44 33.5s-22 30 -29 48s-10.5 36.667 -10.5 56c0 22 2.5 43 7.5 63
s13 37.833 24 53.5s25.333 28.167 43 37.5s39.167 14 64.5 14c24 0 45 -4.33301 63 -13s33.167 -20.5 45.5 -35.5s21.666 -32.167 27.999 -51.5s9.5 -40 9.5 -62zM49.002 170.999c2.66699 -30.667 9.83398 -57.334 21.501 -80.001s26.834 -41.667 45.501 -57
s40.5 -26.833 65.5 -34.5s52.5 -11.5 82.5 -11.5c86 0 148.5 33 187.5 99s58.5 160.333 58.5 283c0 66.667 -6.5 122 -19.5 166s-30.5 78.667 -52.5 104s-47.833 43.166 -77.5 53.499s-60.834 15.5 -93.501 15.5c-34 0 -65.333 -5.66699 -94 -17
s-53.334 -27.166 -74.001 -47.499s-36.667 -44.666 -48 -72.999s-17 -59.5 -17 -93.5c0 -35.333 4.83301 -67.5 14.5 -96.5s24 -53.833 43 -74.5s42.5 -36.834 70.5 -48.501s60 -17.5 96 -17.5c34.667 0 66.667 8.83301 96 26.5s52 41.5 68 71.5l2 -2
c-2.66699 -92 -17 -160.667 -43 -206s-65 -68 -117 -68c-34 0 -63.333 9.33301 -88 28s-38.667 45.334 -42 80.001h-85z" />
    <glyph glyph-name="colon" unicode=":" horiz-adv-x="278" 
d="M83 0h111v111h-111v-111zM194 517h-111v-111h111v111z" />
    <glyph glyph-name="semicolon" unicode=";" horiz-adv-x="278" 
d="M83 0l58.999 -0.000976562c0.666992 -8 0 -16.833 -2 -26.5s-5.16699 -19.167 -9.5 -28.5s-10.333 -17.666 -18 -24.999s-17.167 -13 -28.5 -17v-50c38.667 11.333 66.834 30.833 84.501 58.5s26.167 60.5 25.5 98.5v101h-111v-111zM193.999 516.999h-111v-111h111v111z
" />
    <glyph glyph-name="semicolon" unicode="&#x37e;" horiz-adv-x="278" 
d="M83 0l58.999 -0.000976562c0.666992 -8 0 -16.833 -2 -26.5s-5.16699 -19.167 -9.5 -28.5s-10.333 -17.666 -18 -24.999s-17.167 -13 -28.5 -17v-50c38.667 11.333 66.834 30.833 84.501 58.5s26.167 60.5 25.5 98.5v101h-111v-111zM193.999 516.999h-111v-111h111v111z
" />
    <glyph glyph-name="less" unicode="&#x3c;" horiz-adv-x="600" 
d="M554 514l-508 -230v-62l508 -230v68l-425 193l425 193v68z" />
    <glyph glyph-name="equal" unicode="=" horiz-adv-x="600" 
d="M552 388h-504v-68h504v68zM48 118h504v68h-504v-68z" />
    <glyph glyph-name="greater" unicode="&#x3e;" horiz-adv-x="600" 
d="M46 -8l508 230v62l-508 230v-68l425 -193l-425 -193v-68z" />
    <glyph glyph-name="question" unicode="?" 
d="M140 491c0 22.667 2.66895 44.1689 8.00195 64.502s13.833 37.833 25.5 52.5s26.167 26.334 43.5 35.001s38 13 62 13c36 0 64.5 -10.333 85.5 -31s32.833 -49.334 35.5 -86.001c1.33301 -18.667 -0.166992 -35.167 -4.5 -49.5s-10.333 -27.333 -18 -39
s-16.334 -22.5 -26.001 -32.5l-29.5 -30l-31 -31.5c-10.667 -11 -20.334 -23.167 -29.001 -36.5s-15.834 -28 -21.501 -44s-8.5 -34.333 -8.5 -55v-47h85v39c0 16.667 2.5 32 7.5 46s11.667 26.833 20 38.5s17.666 22.667 27.999 33l31.5 30.5l31.5 33
c10.333 11.333 19.5 23.666 27.5 36.999s14.5 28.166 19.5 44.499s7.5 34.833 7.5 55.5c0 32 -5.16699 60.333 -15.5 85s-24.833 45.5 -43.5 62.5s-41 30 -67 39s-54.333 13.5 -85 13.5c-35.333 0 -66.833 -6 -94.5 -18s-51.167 -28.833 -70.5 -50.5
s-34.166 -47.167 -44.499 -76.5s-15.166 -61 -14.499 -95h85zM218.002 0.00195312h111v111h-111v-111z" />
    <glyph glyph-name="at" unicode="@" horiz-adv-x="800" 
d="M420 505c10.667 0 20.833 -2.66797 30.5 -8.00098s18.167 -12.166 25.5 -20.499s13.333 -18.166 18 -29.499s7 -23 7 -35c0 -20.667 -4 -43.334 -12 -68.001s-19 -47.834 -33 -69.501s-30.333 -39.667 -49 -54s-39 -21.5 -61 -21.5c-25.333 0 -46 9.16699 -62 27.5
s-24 41.5 -24 69.5c0 22 4 45.167 12 69.5s19 46.833 33 67.5s30.833 37.834 50.5 51.501s41.167 20.5 64.5 20.5zM617.999 553.999l-63.002 0.00195312l-23 -63c-11.333 30 -27 51.167 -47 63.5s-41.667 18.5 -65 18.5c-35.333 0 -67.5 -8.33301 -96.5 -25
s-53.667 -38.334 -74 -65.001s-36.166 -57 -47.499 -91s-17 -68.333 -17 -103c0 -22 3.5 -42.667 10.5 -62s16.667 -36 29 -50s27.333 -25.167 45 -33.5s37.167 -12.5 58.5 -12.5c24.667 0 47.667 6.83301 69 20.5s39.666 29.167 54.999 46.5h3
c1.33301 -22 8 -38.333 20 -49s26.667 -16 44 -16c23.333 0 48.666 7 75.999 21s52.666 33.667 75.999 59s42.833 55.833 58.5 91.5s23.5 75.167 23.5 118.5c0 44.667 -9 86 -27 124s-42.5 70.5 -73.5 97.5s-67.167 48.167 -108.5 63.5s-85 23 -131 23
c-50.667 0 -98.5 -9.66699 -143.5 -29s-84.333 -45.833 -118 -79.5s-60.334 -73 -80.001 -118s-29.5 -93.167 -29.5 -144.5c0 -52.667 9.66699 -102 29 -148s45.833 -86 79.5 -120s73.334 -60.667 119.001 -80s94.834 -29 147.501 -29c32 0 63.333 4 94 12
s59.5 19.5 86.5 34.5s51.833 33.5 74.5 55.5s42 46.667 58 74h-63c-14 -18 -30.333 -34.5 -49 -49.5s-38.834 -27.833 -60.501 -38.5s-44.167 -18.834 -67.5 -24.501s-47 -8.5 -71 -8.5c-42 0 -81.667 8.16699 -119 24.5s-70.166 38.666 -98.499 66.999
s-50.666 61.833 -66.999 100.5s-24.5 80.334 -24.5 125.001c0 44 7.83301 85.333 23.5 124s37.167 72.667 64.5 102s59.5 52.5 96.5 69.5s76.833 25.5 119.5 25.5c34.667 0 68.334 -6 101.001 -18s61.667 -29.167 87 -51.5s45.5 -49.5 60.5 -81.5s22.5 -67.667 22.5 -107
c0 -26.667 -4.33301 -53.667 -13 -81s-19.667 -52 -33 -74s-28.166 -40 -44.499 -54s-32.166 -21 -47.499 -21c-8.66699 0 -14.834 2.83301 -18.501 8.5s-5.5 13.167 -5.5 22.5c0 7.33301 1.16699 15.5 3.5 24.5s4.83301 17.833 7.5 26.5z" />
    <glyph glyph-name="A" unicode="A" horiz-adv-x="648" 
d="M-7 0h98l80 215h302l78 -215h105l-279 714h-105zM322 628h2l119 -333h-242z" />
    <glyph glyph-name="B" unicode="B" horiz-adv-x="685" 
d="M173 327l217 -0.000976562c20 0 39.333 -1.83301 58 -5.5s35.167 -10 49.5 -19s25.833 -21.167 34.5 -36.5s13 -34.666 13 -57.999c0 -39.333 -12 -70.5 -36 -93.5s-56.667 -34.5 -98 -34.5h-238v247zM78 -0.000976562h345c35.333 0 66.5 5.83301 93.5 17.5
s49.667 27 68 46s32.166 40.833 41.499 65.5s14 50 14 76c0 44 -11.667 81.333 -35 112s-57 50.667 -101 60v2c33.333 13.333 59.333 33.833 78 61.5s28 60.5 28 98.5c0 35.333 -8.16699 65.5 -24.5 90.5s-36.166 44.5 -59.499 58.5c-10.667 6.66699 -23.667 11.667 -39 15
s-31.5 5.83301 -48.5 7.5s-34.167 2.66699 -51.5 3s-34 0.5 -50 0.5h-259v-714zM173 633.999h190c20.667 0 40.167 -1.16699 58.5 -3.5s34.5 -7.5 48.5 -15.5s25 -19.5 33 -34.5s12 -34.833 12 -59.5c0 -38 -11.833 -66.5 -35.5 -85.5s-62.5 -28.5 -116.5 -28.5h-190v227z
" />
    <glyph glyph-name="C" unicode="C" horiz-adv-x="722" 
d="M675 499c-5.33301 38 -16.665 71.4951 -33.998 100.495s-39 53.167 -65 72.5s-55.667 34 -89 44s-68.666 15 -105.999 15c-55.333 0 -104 -9.83301 -146 -29.5s-77.167 -46.5 -105.5 -80.5s-49.833 -73.833 -64.5 -119.5s-22 -94.5 -22 -146.5
s6.83301 -100.667 20.5 -146s34.167 -84.666 61.5 -117.999s61.666 -59.666 102.999 -78.999s89.666 -29 144.999 -29c90.667 0 162.5 25.333 215.5 76s84.167 120.667 93.5 210h-95c-2 -29.333 -8 -56.666 -18 -81.999s-23.833 -47.166 -41.5 -65.499
s-38.667 -32.666 -63 -42.999s-52.166 -15.5 -83.499 -15.5c-42.667 0 -79.334 8 -110.001 24s-55.834 37.5 -75.501 64.5s-34.167 58.667 -43.5 95s-14 74.833 -14 115.5c0 37.333 4.66699 73.333 14 108s23.833 65.5 43.5 92.5s44.667 48.5 75 64.5s66.833 24 109.5 24
c24.667 0 48 -3.16699 70 -9.5s41.833 -15.833 59.5 -28.5s32.5 -28.5 44.5 -47.5s20.667 -41.167 26 -66.5h95z" />
    <glyph glyph-name="D" unicode="D" horiz-adv-x="704" 
d="M78 0l245.001 -0.000976562c59.333 0 110.666 8.33301 153.999 25s79 40.834 107 72.501s48.667 70.667 62 117s20 99.5 20 159.5c0 114.667 -29.667 200 -89 256s-144 84 -254 84h-245v-714zM173.001 633.999l160 0.000976562c44 0 81 -6.33301 111 -19
s54.5 -30.667 73.5 -54s32.667 -51.833 41 -85.5s12.5 -71.834 12.5 -114.501c0 -44 -4.5 -81.5 -13.5 -112.5s-20.5 -56.833 -34.5 -77.5s-29.833 -37 -47.5 -49s-35.5 -21.167 -53.5 -27.5s-35 -10.333 -51 -12s-29.333 -2.5 -40 -2.5h-158v554z" />
    <glyph glyph-name="E" unicode="E" horiz-adv-x="611" 
d="M78 0h496v80h-401v247h371v80h-371v227h398v80h-493v-714z" />
    <glyph glyph-name="F" unicode="F" horiz-adv-x="574" 
d="M78 0h95v327h328v80h-328v227h374v80h-469v-714z" />
    <glyph glyph-name="G" unicode="G" horiz-adv-x="759" 
d="M637 0l59.9971 0.00292969v376h-313v-80h228c1.33301 -32.667 -2.83398 -63.167 -12.501 -91.5s-24.5 -53 -44.5 -74s-44.5 -37.5 -73.5 -49.5s-61.833 -18 -98.5 -18c-40 0 -75.167 7.83301 -105.5 23.5s-55.833 36.667 -76.5 63s-36.334 56.666 -47.001 90.999
s-16 70.166 -16 107.499c0 38 4.66699 75.167 14 111.5s23.833 68.666 43.5 96.999s45 51.166 76 68.499s68.167 26 111.5 26c26.667 0 51.834 -3.16699 75.501 -9.5s44.834 -15.833 63.501 -28.5s34.334 -29 47.001 -49s21.334 -43.333 26.001 -70h95
c-6.66699 42 -19.167 77.833 -37.5 107.5s-41 54.167 -68 73.5s-57.667 33.5 -92 42.5s-70.833 13.5 -109.5 13.5c-56.667 0 -106.167 -10.5 -148.5 -31.5s-77.666 -49.167 -105.999 -84.5s-49.666 -76.5 -63.999 -123.5s-21.5 -96.5 -21.5 -148.5
c0 -46.667 7.66699 -91.667 23 -135s37.666 -81.666 66.999 -114.999s65 -60 107 -80s89.667 -30 143 -30c20.667 0 41.667 2 63 6s42 10.333 62 19s38.833 19.667 56.5 33s33.5 29.333 47.5 48z" />
    <glyph glyph-name="H" unicode="H" horiz-adv-x="722" 
d="M78 0h95v327h376v-327h95v714h-95v-307h-376v307h-95v-714z" />
    <glyph glyph-name="I" unicode="I" horiz-adv-x="259" 
d="M82 0h95v714h-95v-714z" />
    <glyph glyph-name="J" unicode="J" horiz-adv-x="519" 
d="M441 714l-95.002 0.000976562v-522c0 -39.333 -8.16699 -70.666 -24.5 -93.999s-46.166 -35 -89.499 -35c-23.333 0 -42.5 3.5 -57.5 10.5s-26.667 16.833 -35 29.5s-14.166 27.667 -17.499 45s-5 36.333 -5 57v30h-95v-44c0 -67.333 18 -118.833 54 -154.5
s87.333 -53.5 154 -53.5c40 0 73.5 5.66699 100.5 17s48.667 26.166 65 44.499s28 39.166 35 62.499s10.5 47 10.5 71v536z" />
    <glyph glyph-name="K" unicode="K" horiz-adv-x="667" 
d="M78 0h95v250l119 111l258 -361h120l-313 426l301 288h-123l-362 -356v356h-95v-714z" />
    <glyph glyph-name="L" unicode="L" 
d="M78 0h473v80h-378v634h-95v-714z" />
    <glyph glyph-name="M" unicode="M" horiz-adv-x="871" 
d="M80 0h90v594h2l223 -594h81l223 594h2v-594h90v714h-130l-226 -600l-225 600h-130v-714z" />
    <glyph glyph-name="N" unicode="N" horiz-adv-x="722" 
d="M77 0h90v573h2l373 -573h104v714h-90v-579h-2l-376 579h-101v-714z" />
    <glyph glyph-name="O" unicode="O" horiz-adv-x="760" 
d="M38 357c0 -48.667 7.16699 -95.5 21.5 -140.5s35.833 -84.833 64.5 -119.5s64.334 -62.334 107.001 -83.001s92.334 -31 149.001 -31s106.334 10.333 149.001 31s78.334 48.334 107.001 83.001s50.167 74.5 64.5 119.5s21.5 91.833 21.5 140.5s-7.16699 95.5 -21.5 140.5
s-35.833 84.833 -64.5 119.5s-64.334 62.334 -107.001 83.001s-92.334 31 -149.001 31s-106.334 -10.333 -149.001 -31s-78.334 -48.334 -107.001 -83.001s-50.167 -74.5 -64.5 -119.5s-21.5 -91.833 -21.5 -140.5zM133 357c0 36 4.66699 71.5 14 106.5s24 66.5 44 94.5
s45.667 50.5 77 67.5s68.666 25.5 111.999 25.5s80.666 -8.5 111.999 -25.5s57 -39.5 77 -67.5s34.667 -59.5 44 -94.5s14 -70.5 14 -106.5s-4.66699 -71.5 -14 -106.5s-24 -66.5 -44 -94.5s-45.667 -50.5 -77 -67.5s-68.666 -25.5 -111.999 -25.5
s-80.666 8.5 -111.999 25.5s-57 39.5 -77 67.5s-34.667 59.5 -44 94.5s-14 70.5 -14 106.5z" />
    <glyph glyph-name="P" unicode="P" horiz-adv-x="648" 
d="M78 0l95 0.000976562v292h218c71.333 -0.666992 125.666 17.666 162.999 54.999s56 89.333 56 156s-18.667 118.5 -56 155.5s-91.666 55.5 -162.999 55.5h-313v-714zM173 634.001l186 0.000976562c54 0 93.5 -11.167 118.5 -33.5s37.5 -54.833 37.5 -97.5
s-12.5 -75.334 -37.5 -98.001s-64.5 -33.667 -118.5 -33h-186v262z" />
    <glyph glyph-name="Q" unicode="Q" horiz-adv-x="760" 
d="M708 -2l-93.998 75c36 35.333 63 77.833 81 127.5s27 101.834 27 156.501c0 48.667 -7.16699 95.5 -21.5 140.5s-35.833 84.833 -64.5 119.5s-64.334 62.334 -107.001 83.001s-92.334 31 -149.001 31s-106.334 -10.333 -149.001 -31s-78.334 -48.334 -107.001 -83.001
s-50.167 -74.5 -64.5 -119.5s-21.5 -91.833 -21.5 -140.5s7.16699 -95.5 21.5 -140.5s35.833 -84.833 64.5 -119.5s64.334 -62.334 107.001 -83.001s92.334 -31 149.001 -31c66 0 123 14.333 171 43l109 -88zM400.002 146l79.001 -63c-30.667 -13.333 -63.667 -20 -99 -20
c-43.333 0 -80.666 8.5 -111.999 25.5s-57 39.5 -77 67.5s-34.667 59.5 -44 94.5s-14 70.5 -14 106.5s4.66699 71.5 14 106.5s24 66.5 44 94.5s45.667 50.5 77 67.5s68.666 25.5 111.999 25.5s80.666 -8.5 111.999 -25.5s57 -39.5 77 -67.5s34.667 -59.5 44 -94.5
s14 -70.5 14 -106.5c0 -43.333 -6.66699 -85.333 -20 -126s-34 -75 -62 -103l-95 76z" />
    <glyph glyph-name="R" unicode="R" horiz-adv-x="685" 
d="M173 385v249h236c44.667 0 77 -11.5 97 -34.5s30 -52.167 30 -87.5c0 -26 -4.5 -47.167 -13.5 -63.5s-21 -29.333 -36 -39s-32.5 -16.167 -52.5 -19.5s-41 -5 -63 -5h-198zM78 0l95 0.00195312v305h232c22.667 0 41.167 -3.5 55.5 -10.5s25.833 -16.333 34.5 -28
s15 -25.334 19 -41.001s7.33301 -32.167 10 -49.5c3.33301 -24.667 5.33301 -46.167 6 -64.5s1.5 -34.5 2.5 -48.5s2.5 -26 4.5 -36s6.33301 -19 13 -27h106c-10 12 -17.5 25.833 -22.5 41.5s-8.66699 32 -11 49s-4 34.667 -5 53s-2.16699 36.166 -3.5 53.499
c-2 17.333 -4.66699 34 -8 50s-9 30.5 -17 43.5s-18.5 24.167 -31.5 33.5s-29.833 16 -50.5 20v2c43.333 12 74.833 34.333 94.5 67s29.5 70.667 29.5 114c0 57.333 -19.333 102.833 -58 136.5s-91.667 50.5 -159 50.5h-336v-714z" />
    <glyph glyph-name="S" unicode="S" horiz-adv-x="648" 
d="M581 505c-1.33301 39.333 -9.00098 73.1641 -23.001 101.497s-32.667 51.833 -56 70.5s-50.666 32.334 -81.999 41.001s-65.333 13 -102 13c-32.667 0 -64.5 -4.16699 -95.5 -12.5s-58.667 -21 -83 -38s-43.833 -38.667 -58.5 -65s-22 -57.5 -22 -93.5
c0 -32.667 6.5 -59.667 19.5 -81s30.333 -39 52 -53s46.167 -25.167 73.5 -33.5s55.333 -15.5 84 -21.5s56.667 -12.167 84 -18.5s51.666 -14.333 72.999 -24s38.5 -22.167 51.5 -37.5s19.5 -35.333 19.5 -60c0 -26 -5.33301 -47.333 -16 -64s-24.667 -29.834 -42 -39.501
s-36.833 -16.5 -58.5 -20.5s-43.167 -6 -64.5 -6c-27.333 0 -53.5 3.33301 -78.5 10s-47 17 -66 31s-34.333 31.833 -46 53.5s-17.5 47.5 -17.5 77.5h-90c0 -43.333 7.83301 -80.833 23.5 -112.5s37 -57.834 64 -78.501s58.333 -36 94 -46s73.5 -15 113.5 -15
c32.667 0 65.5 4 98.5 12s62.833 20.5 89.5 37.5s48.5 39 65.5 66s25.5 59.5 25.5 97.5c0 34.667 -6.5 63.834 -19.5 87.501s-30.167 43.167 -51.5 58.5s-45.666 27.5 -72.999 36.5s-55.333 16.833 -84 23.5s-56.667 12.834 -84 18.501s-51.833 12.834 -73.5 21.501
s-39 19.834 -52 33.501s-19.5 31.5 -19.5 53.5c0 23.333 4.5 42.833 13.5 58.5s21 28.167 36 37.5s32.167 16 51.5 20s39 6 59 6c49.333 0 89.833 -11.5 121.5 -34.5s50.167 -60.167 55.5 -111.5h90z" />
    <glyph glyph-name="T" unicode="T" horiz-adv-x="574" 
d="M240 0h95v634h238v80h-571v-80h238v-634z" />
    <glyph glyph-name="U" unicode="U" horiz-adv-x="722" 
d="M648 714l-95 0.00195312v-456c0 -63.333 -15.833 -111.666 -47.5 -144.999s-77.834 -50 -138.501 -50c-63.333 0 -112.166 16.667 -146.499 50s-51.5 81.666 -51.5 144.999v456h-95v-456c0 -47.333 6.66699 -88.333 20 -123s32.5 -63.334 57.5 -86.001
s55.667 -39.334 92 -50.001s77.5 -16 123.5 -16c89.333 0 158.5 23.167 207.5 69.5s73.5 114.833 73.5 205.5v456z" />
    <glyph glyph-name="V" unicode="V" horiz-adv-x="611" 
d="M613 714h-99l-206 -619h-2l-204 619h-103l252 -714h108z" />
    <glyph glyph-name="W" unicode="W" horiz-adv-x="926" 
d="M914 714h-95l-145 -594h-2l-158 594h-103l-160 -594h-2l-140 594h-97l183 -714h99l165 600h2l163 -600h99z" />
    <glyph glyph-name="X" unicode="X" horiz-adv-x="611" 
d="M-1 0h107l198 295l192 -295h116l-251 367l236 347h-106l-186 -279l-178 279h-114l235 -347z" />
    <glyph glyph-name="Y" unicode="Y" horiz-adv-x="648" 
d="M646 714h-108l-209 -340l-214 340h-113l276 -422v-292h95v292z" />
    <glyph glyph-name="Z" unicode="Z" horiz-adv-x="611" 
d="M22 0h568v80h-455l443 554v80h-522v-80h410l-444 -554v-80z" />
    <glyph glyph-name="bracketleft" unicode="[" horiz-adv-x="259" 
d="M259 731h-187v-929h187v68h-107v793h107v68z" />
    <glyph glyph-name="backslash" unicode="\" horiz-adv-x="333" 
d="M55 731h-73l296 -748h73z" />
    <glyph glyph-name="bracketright" unicode="]" horiz-adv-x="259" 
d="M0 -198h187v929h-187v-68h107v-793h-107v-68z" />
    <glyph glyph-name="asciicircum" unicode="^" horiz-adv-x="600" 
d="M50 264h71l178 360l181 -360h70l-218 433h-64z" />
    <glyph glyph-name="underscore" unicode="_" horiz-adv-x="500" 
d="M0 -125h500v50h-500v-50z" />
    <glyph glyph-name="grave" unicode="`" horiz-adv-x="222" 
d="M108 588h64l-86 143h-109z" />
    <glyph glyph-name="a" unicode="a" horiz-adv-x="537" 
d="M384 180c0 -12 -3 -24.8301 -9 -38.4971s-15.333 -26.334 -28 -38.001s-29 -21.334 -49 -29.001s-44 -11.5 -72 -11.5c-13.333 0 -26 1.33301 -38 4s-22.5 7 -31.5 13s-16.333 13.833 -22 23.5s-8.5 21.5 -8.5 35.5c0 16 2.83301 29.333 8.5 40s13.167 19.5 22.5 26.5
s20.333 12.5 33 16.5s26 7.33301 40 10s28.5 4.83398 43.5 6.50098s29.167 3.66699 42.5 6s26 5.16602 38 8.49902s22 7.66602 30 12.999v-86zM522 68.0029c-9.33301 -3.33301 -18.001 -5.00098 -26.001 -5.00098c-13.333 0 -21.166 4.66699 -23.499 14s-3.5 24 -3.5 44v266
c0 30 -5.66699 54.333 -17 73s-26.333 33.167 -45 43.5s-39.5 17.166 -62.5 20.499s-46.167 5 -69.5 5c-28.667 0 -56 -3 -82 -9s-49 -15.833 -69 -29.5s-36 -31.5 -48 -53.5s-18.667 -49 -20 -81h85c2 38 15 63.833 39 77.5s54 20.5 90 20.5c13.333 0 26.833 -1 40.5 -3
s26 -6 37 -12s19.833 -14.667 26.5 -26s10 -26.333 10 -45c0 -16 -4.66699 -28.167 -14 -36.5s-21.833 -14.666 -37.5 -18.999s-34 -7.66602 -55 -9.99902s-43.167 -5.83301 -66.5 -10.5c-22 -4 -43.5 -9.16699 -64.5 -15.5s-39.667 -15.166 -56 -26.499
s-29.5 -26.333 -39.5 -45s-15 -42.667 -15 -72c0 -26 4.5 -48.167 13.5 -66.5s21.167 -33.333 36.5 -45s33.5 -20.167 54.5 -25.5s43.167 -8 66.5 -8c36 0 69.5 6.33301 100.5 19s58.167 33 81.5 61c0 -28 6.5 -48.333 19.5 -61s30.5 -19 52.5 -19
c13.333 0 25 1.16699 35 3.5s18.667 5.16602 26 8.49902v68z" />
    <glyph glyph-name="b" unicode="b" horiz-adv-x="593" 
d="M467 263c0 -25.333 -2.66699 -49.998 -8 -73.998s-14 -45.333 -26 -64s-28 -33.667 -48 -45s-44.333 -17 -73 -17c-29.333 0 -54.333 5.5 -75 16.5s-37.5 25.5 -50.5 43.5s-22.5 38.833 -28.5 62.5s-9 48.167 -9 73.5c0 24 2.83301 47.667 8.5 71
s14.834 44.166 27.501 62.499s29 33.166 49 44.499s44.333 17 73 17c27.333 0 51.166 -5.33301 71.499 -16s37 -25 50 -43s22.667 -38.5 29 -61.5s9.5 -46.5 9.5 -70.5zM67 0.00195312l85.001 -0.00292969v69h2c9.33301 -15.333 20.833 -28.166 34.5 -38.499
s28.167 -18.666 43.5 -24.999s30.666 -10.833 45.999 -13.5s29.666 -4 42.999 -4c39.333 0 73.833 7.16699 103.5 21.5s54.334 33.666 74.001 57.999s34.334 52.833 44.001 85.5s14.5 67.334 14.5 104.001s-5 71.334 -15 104.001s-24.833 61.5 -44.5 86.5
s-44.334 44.833 -74.001 59.5s-64.5 22 -104.5 22c-36 0 -69 -6.5 -99 -19.5s-52 -33.833 -66 -62.5h-2v267h-85v-714z" />
    <glyph glyph-name="c" unicode="c" horiz-adv-x="537" 
d="M503 351c-3.33301 30.667 -11.167 57.165 -23.5 79.498s-28.5 40.833 -48.5 55.5s-42.833 25.5 -68.5 32.5s-53.167 10.5 -82.5 10.5c-41.333 0 -77.166 -7.16699 -107.499 -21.5s-55.666 -34 -75.999 -59s-35.5 -54.333 -45.5 -88s-15 -69.834 -15 -108.501
s5.16699 -74.167 15.5 -106.5s25.666 -60.166 45.999 -83.499s45.666 -41.5 75.999 -54.5s65.166 -19.5 104.499 -19.5c65.333 0 117.333 17.667 156 53s62.667 84.666 72 147.999h-87c-5.33301 -39.333 -20 -70.166 -44 -92.499s-56.667 -33.5 -98 -33.5
c-27.333 0 -50.5 5.33301 -69.5 16s-34.5 24.834 -46.5 42.501s-20.833 37.834 -26.5 60.501s-8.5 46 -8.5 70c0 26 2.66699 51.167 8 75.5s14.166 45.833 26.499 64.5s28.833 33.667 49.5 45s46.334 17 77.001 17c35.333 0 63.833 -9 85.5 -27s35.834 -43.333 42.501 -76
h88z" />
    <glyph glyph-name="d" unicode="d" horiz-adv-x="593" 
d="M526 714l-85.001 0.00292969v-266h-2c-9.33301 15.333 -20.833 28.166 -34.5 38.499s-28.167 18.666 -43.5 24.999s-30.666 10.833 -45.999 13.5s-29.666 4 -42.999 4c-39.333 0 -73.833 -7.16699 -103.5 -21.5s-54.334 -33.833 -74.001 -58.5
s-34.334 -53.167 -44.001 -85.5s-14.5 -66.833 -14.5 -103.5s5 -71.334 15 -104.001s24.833 -61.5 44.5 -86.5s44.334 -44.833 74.001 -59.5s64.5 -22 104.5 -22c36 0 69 6.5 99 19.5s52 33.833 66 62.5h2v-70h85v714zM125.999 254.003c0 25.333 2.66699 49.998 8 73.998
s14 45.333 26 64s27.833 33.667 47.5 45s44.167 17 73.5 17s54.333 -5.5 75 -16.5s37.5 -25.5 50.5 -43.5s22.5 -38.833 28.5 -62.5s9 -48.167 9 -73.5c0 -24 -2.83301 -47.667 -8.5 -71s-14.834 -44.166 -27.501 -62.499s-29 -33.166 -49 -44.499s-44.333 -17 -73 -17
c-27.333 0 -51.166 5.33301 -71.499 16s-37 25 -50 43s-22.667 38.5 -29 61.5s-9.5 46.5 -9.5 70.5z" />
    <glyph glyph-name="e" unicode="e" horiz-adv-x="537" 
d="M421 164c-7.33301 -34 -22.667 -59.334 -46 -76.001s-52.666 -25 -87.999 -25c-28 0 -52.333 4.66699 -73 14s-37.667 21.833 -51 37.5s-23 33.667 -29 54s-8.66699 41.833 -8 64.5h387c1.33301 31.333 -1.5 64.333 -8.5 99s-19.667 66.667 -38 96
s-42.666 53.5 -72.999 72.5s-68.5 28.5 -114.5 28.5c-35.333 0 -67.833 -6.66699 -97.5 -20s-55.334 -32 -77.001 -56s-38.5 -52.5 -50.5 -85.5s-18 -68.833 -18 -107.5c1.33301 -39.333 7.16602 -75.666 17.499 -108.999s25.833 -62 46.5 -86s46.167 -42.833 76.5 -56.5
s66.166 -20.5 107.499 -20.5c58.667 0 107.334 15 146.001 45s63.667 73.667 75 131h-84zM125.999 307.999c1.33301 20 5.66602 38.833 12.999 56.5s17.333 33.167 30 46.5s27.834 23.833 45.501 31.5s37.5 11.5 59.5 11.5c20.667 0 40 -3.83301 58 -11.5s33.5 -18 46.5 -31
s23.333 -28.5 31 -46.5s12.167 -37 13.5 -57h-297z" />
    <glyph glyph-name="f" unicode="f" horiz-adv-x="296" 
d="M99 0h85v442h100v75h-100v72c0 22.667 5.66699 38 17 46s27.333 12 48 12c7.33301 0 15.333 -0.5 24 -1.5s16.667 -2.83301 24 -5.5v74c-8 2.66699 -17.167 4.66699 -27.5 6s-19.5 2 -27.5 2c-46.667 0 -82.167 -10.833 -106.5 -32.5s-36.5 -53.5 -36.5 -95.5v-77h-87
v-75h87v-442z" />
    <glyph glyph-name="g" unicode="g" horiz-adv-x="574" 
d="M272 69c-28 0 -51.333 5.83496 -70 17.502s-33.667 27 -45 46s-19.333 40.167 -24 63.5s-7 46.666 -7 69.999c0 24.667 2.83301 48.334 8.5 71.001s14.667 42.667 27 60s28.166 31.166 47.499 41.499s42.666 15.5 69.999 15.5c26.667 0 49.334 -5.33301 68.001 -16
s33.834 -24.834 45.501 -42.501s20.167 -37.5 25.5 -59.5s8 -44.333 8 -67c0 -24 -2.83301 -48 -8.5 -72s-14.5 -45.5 -26.5 -64.5s-27.833 -34.333 -47.5 -46s-43.5 -17.5 -71.5 -17.5zM510 517.002l-79.9932 -0.00195312v-74h-2c-15.333 28.667 -36.5 50.167 -63.5 64.5
s-56.833 21.5 -89.5 21.5c-44.667 0 -82.334 -8.5 -113.001 -25.5s-55.334 -38.833 -74.001 -65.5s-32 -56 -40 -88s-12 -63.333 -12 -94c0 -35.333 4.83301 -68.833 14.5 -100.5s24.167 -59.5 43.5 -83.5s43.333 -43 72 -57s62.334 -21 101.001 -21c16 0 32.167 2 48.5 6
s31.666 9.83301 45.999 17.5s27.166 17.334 38.499 29.001s20.666 25.5 27.999 41.5h2v-34c0 -29.333 -2.83301 -56 -8.5 -80s-14.834 -44.5 -27.501 -61.5s-28.667 -30.333 -48 -40s-43 -14.5 -71 -14.5c-14 0 -28.667 1.5 -44 4.5s-29.5 7.83301 -42.5 14.5
s-24 15.334 -33 26.001s-13.833 23.667 -14.5 39h-85c1.33301 -28 8.66602 -51.667 21.999 -71s30.166 -35 50.499 -47s43 -20.667 68 -26s49.5 -8 73.5 -8c82 0 142.5 21.167 181.5 63.5s58.5 105.833 58.5 190.5v473z" />
    <glyph glyph-name="h" unicode="h" 
d="M64 0l84.998 -0.00195312v292c0 23.333 3.16699 44.833 9.5 64.5s15.833 36.834 28.5 51.501s28.5 26 47.5 34s41.5 12 67.5 12c32.667 0 58.334 -9.33301 77.001 -28s28 -44 28 -76v-350h85v340c0 28 -2.83301 53.5 -8.5 76.5s-15.5 42.833 -29.5 59.5
s-32.333 29.667 -55 39s-51 14 -85 14c-15.333 0 -31.166 -1.66699 -47.499 -5s-31.833 -8.5 -46.5 -15.5s-28.167 -16.167 -40.5 -27.5s-21.833 -24.666 -28.5 -39.999h-2v273h-85v-714z" />
    <glyph glyph-name="i" unicode="i" horiz-adv-x="222" 
d="M69 0h85v517h-85v-517zM154 714h-85v-104h85v104z" />
    <glyph glyph-name="j" unicode="j" horiz-adv-x="222" 
d="M154 517h-84.9971v-569c0 -26.667 -3.33301 -45.167 -10 -55.5s-19.334 -15.5 -38.001 -15.5h-18c-5.33301 0 -11 0.666992 -17 2v-73c7.33301 -1.33301 14.666 -2.33301 21.999 -3s14.666 -1 21.999 -1c38 0 68.167 10.5 90.5 31.5s33.5 54.5 33.5 100.5v583z
M154.003 714h-85v-104h85v104z" />
    <glyph glyph-name="k" unicode="k" horiz-adv-x="519" 
d="M69 0h85v196l80 74l177 -270h108l-220 329l205 188h-114l-236 -226v423h-85v-714z" />
    <glyph glyph-name="l" unicode="l" horiz-adv-x="222" 
d="M69 0h85v714h-85v-714z" />
    <glyph glyph-name="m" unicode="m" horiz-adv-x="853" 
d="M64 0h85.002v322c0 10 2.5 22.5 7.5 37.5s13 29.5 24 43.5s25.167 26 42.5 36s38.666 15 63.999 15c18.667 0 34.334 -2.83301 47.001 -8.5s22.667 -13.667 30 -24s12.5 -22.5 15.5 -36.5s4.5 -29.333 4.5 -46v-339h85v322c0 40 12.167 72 36.5 96s57.166 36 98.499 36
c20.667 0 37.5 -3 50.5 -9s23.167 -14.167 30.5 -24.5s12.333 -22.5 15 -36.5s4 -29 4 -45v-339h85v379c0 26.667 -4.16699 49.5 -12.5 68.5s-20 34.5 -35 46.5s-33 20.833 -54 26.5s-44.5 8.5 -70.5 8.5c-33.333 0 -64.333 -7.66699 -93 -23s-51.667 -37 -69 -65
c-10.667 32 -29 54.667 -55 68s-55 20 -87 20c-72.667 0 -128.334 -29.333 -167.001 -88h-2v76h-80v-517z" />
    <glyph glyph-name="n" unicode="n" 
d="M64 0l84.998 -0.000976562v292c0 23.333 3.16699 44.833 9.5 64.5s15.833 36.834 28.5 51.501s28.5 26 47.5 34s41.5 12 67.5 12c32.667 0 58.334 -9.33301 77.001 -28s28 -44 28 -76v-350h85v340c0 28 -2.83301 53.5 -8.5 76.5s-15.5 42.833 -29.5 59.5
s-32.333 29.667 -55 39s-51 14 -85 14c-37.333 0 -70.166 -7.66699 -98.499 -23s-51.5 -39 -69.5 -71h-2v82h-80v-517z" />
    <glyph glyph-name="o" unicode="o" horiz-adv-x="574" 
d="M36 258c0 -38 5.33301 -73.333 16 -106s26.667 -61.167 48 -85.5s47.5 -43.5 78.5 -57.5s67.167 -21 108.5 -21c40.667 0 76.667 7 108 21s57.666 33.167 78.999 57.5s37.333 52.833 48 85.5s16 68 16 106s-5.33301 73.5 -16 106.5s-26.667 61.667 -48 86
s-47.666 43.5 -78.999 57.5s-67.333 21 -108 21c-41.333 0 -77.5 -7 -108.5 -21s-57.167 -33.167 -78.5 -57.5s-37.333 -53 -48 -86s-16 -68.5 -16 -106.5zM126 258c0 31.333 4.16699 59.166 12.5 83.499s19.833 44.833 34.5 61.5s31.834 29.334 51.501 38.001
s40.5 13 62.5 13s42.833 -4.33301 62.5 -13s36.834 -21.334 51.501 -38.001s26.167 -37.167 34.5 -61.5s12.5 -52.166 12.5 -83.499s-4.16699 -59.166 -12.5 -83.499s-19.833 -44.666 -34.5 -60.999s-31.834 -28.833 -51.501 -37.5s-40.5 -13 -62.5 -13
s-42.833 4.33301 -62.5 13s-36.834 21.167 -51.501 37.5s-26.167 36.666 -34.5 60.999s-12.5 52.166 -12.5 83.499z" />
    <glyph glyph-name="p" unicode="p" horiz-adv-x="593" 
d="M467 263c0 -25.333 -2.66699 -49.998 -8 -73.998s-14 -45.333 -26 -64s-28 -33.667 -48 -45s-44.333 -17 -73 -17c-29.333 0 -54.333 5.5 -75 16.5s-37.5 25.5 -50.5 43.5s-22.5 38.833 -28.5 62.5s-9 48.167 -9 73.5c0 24 2.83301 47.667 8.5 71
s14.834 44.166 27.501 62.499s29 33.166 49 44.499s44.333 17 73 17c27.333 0 51.166 -5.33301 71.499 -16s37 -25 50 -43s22.667 -38.5 29 -61.5s9.5 -46.5 9.5 -70.5zM67 -197.998l85.001 -0.00292969v267h2c9.33301 -15.333 20.833 -28.166 34.5 -38.499
s28.167 -18.666 43.5 -24.999s30.666 -10.833 45.999 -13.5s29.666 -4 42.999 -4c39.333 0 73.833 7.16699 103.5 21.5s54.334 33.666 74.001 57.999s34.334 52.833 44.001 85.5s14.5 67.334 14.5 104.001s-5 71.334 -15 104.001s-24.833 61.5 -44.5 86.5
s-44.334 44.833 -74.001 59.5s-64.5 22 -104.5 22c-36 0 -69 -6.5 -99 -19.5s-52 -33.833 -66 -62.5h-2v70h-85v-715z" />
    <glyph glyph-name="q" unicode="q" horiz-adv-x="593" 
d="M526 517l-85.001 0.00292969v-69h-2c-9.33301 15.333 -20.833 28.166 -34.5 38.499s-28.167 18.666 -43.5 24.999s-30.666 10.833 -45.999 13.5s-29.666 4 -42.999 4c-39.333 0 -73.833 -7.16699 -103.5 -21.5s-54.334 -33.833 -74.001 -58.5
s-34.334 -53.167 -44.001 -85.5s-14.5 -66.833 -14.5 -103.5s5 -71.334 15 -104.001s24.833 -61.5 44.5 -86.5s44.334 -44.833 74.001 -59.5s64.5 -22 104.5 -22c36 0 69 6.5 99 19.5s52 33.833 66 62.5h2v-268h85v715zM125.999 254.003c0 25.333 2.66699 49.998 8 73.998
s14 45.333 26 64s27.833 33.667 47.5 45s44.167 17 73.5 17s54.333 -5.5 75 -16.5s37.5 -25.5 50.5 -43.5s22.5 -38.833 28.5 -62.5s9 -48.167 9 -73.5c0 -24 -2.83301 -47.667 -8.5 -71s-14.834 -44.166 -27.501 -62.499s-29 -33.166 -49 -44.499s-44.333 -17 -73 -17
c-27.333 0 -51.166 5.33301 -71.499 16s-37 25 -50 43s-22.667 38.5 -29 61.5s-9.5 46.5 -9.5 70.5z" />
    <glyph glyph-name="r" unicode="r" horiz-adv-x="333" 
d="M61 0h84.999v230c0 32.667 3.33301 62 10 88s17.334 48 32.001 66s34 31.667 58 41s53 14 87 14v90c-46 1.33301 -84 -8 -114 -28s-55.333 -51 -76 -93h-2v109h-80v-517z" />
    <glyph glyph-name="s" unicode="s" horiz-adv-x="500" 
d="M31 163c1.33301 -32 7.99707 -59.1631 19.9971 -81.4961s28 -40.333 48 -54s42.833 -23.667 68.5 -30s53.167 -9.5 82.5 -9.5c26 0 52.167 2.66699 78.5 8s50 14.333 71 27s38 29.5 51 50.5s19.5 46.833 19.5 77.5c0 24.667 -4.83301 45.334 -14.5 62.001
s-22.334 30.5 -38.001 41.5s-33.667 19.833 -54 26.5s-41.166 12.334 -62.499 17.001l-60 13.5c-20 4.33301 -38 9.66602 -54 15.999s-29.167 14.166 -39.5 23.499s-15.5 21.666 -15.5 36.999c0 12.667 3.33301 23.334 10 32.001s15.334 15.5 26.001 20.5
s22.5 8.5 35.5 10.5s25.833 3 38.5 3c14 0 27.833 -1.5 41.5 -4.5s26 -7.83301 37 -14.5s20.333 -15.5 28 -26.5s12.167 -24.833 13.5 -41.5h85c-2 31.333 -8.66699 57.5 -20 78.5s-26.5 37.667 -45.5 50s-41 21 -66 26s-51.833 7.5 -80.5 7.5
c-22.667 0 -45.5 -2.83301 -68.5 -8.5s-43.667 -14.334 -62 -26.001s-33.333 -26.834 -45 -45.501s-17.5 -41 -17.5 -67c0 -24.667 4.83301 -45.334 14.5 -62.001s22.5 -30.334 38.5 -41.001s34 -19.334 54 -26.001s40.667 -12.334 62 -17.001l62.5 -13.5
c20.333 -4.33301 38.333 -9.83301 54 -16.5s28.334 -15.167 38.001 -25.5s14.5 -23.833 14.5 -40.5c0 -16 -4 -29.167 -12 -39.5s-18.167 -18.166 -30.5 -23.499s-25.833 -9 -40.5 -11s-28.667 -3 -42 -3c-17.333 0 -34.166 1.66699 -50.499 5s-31 8.83301 -44 16.5
s-23.5 17.834 -31.5 30.501s-12.333 28.667 -13 48h-85z" />
    <glyph glyph-name="t" unicode="t" horiz-adv-x="315" 
d="M182 672h-85.002v-155h-88v-75h88v-329c0 -24 2.33301 -43.333 7 -58s11.834 -26 21.501 -34s22.334 -13.5 38.001 -16.5s34.5 -4.5 56.5 -4.5h65v75h-39c-13.333 0 -24.166 0.5 -32.499 1.5s-14.833 3.16699 -19.5 6.5s-7.83398 8 -9.50098 14s-2.5 14 -2.5 24v321h103
v75h-103v155z" />
    <glyph glyph-name="u" unicode="u" 
d="M492 517l-84.998 0.000976562v-292c0 -23.333 -3.16699 -44.833 -9.5 -64.5s-15.833 -36.834 -28.5 -51.501s-28.5 -26 -47.5 -34s-41.5 -12 -67.5 -12c-32.667 0 -58.334 9.33301 -77.001 28s-28 44 -28 76v350h-85v-340c0 -28 2.83301 -53.5 8.5 -76.5
s15.5 -42.833 29.5 -59.5s32.333 -29.667 55 -39s51 -14 85 -14c37.333 0 70.166 7.66699 98.499 23s51.5 39 69.5 71h2v-82h80v517z" />
    <glyph glyph-name="v" unicode="v" horiz-adv-x="500" 
d="M486 517h-89l-141 -431h-2l-145 431h-95l192 -517h91z" />
    <glyph glyph-name="w" unicode="w" horiz-adv-x="758" 
d="M741 517h-88l-116 -423h-2l-108 423h-93l-104 -423h-2l-117 423h-94l166 -517h92l104 411h2l105 -411h90z" />
    <glyph glyph-name="x" unicode="x" horiz-adv-x="518" 
d="M9 0h103l144 214l144 -214h109l-200 279l178 238h-102l-129 -181l-124 181h-109l180 -245z" />
    <glyph glyph-name="y" unicode="y" horiz-adv-x="500" 
d="M492 517h-90.001l-145 -423h-2l-151 423h-96l205 -514l-35 -88c-8 -15.333 -17.333 -27 -28 -35s-24.667 -12 -42 -12c-8.66699 0 -17.167 1.33301 -25.5 4l-24.5 8v-78c9.33301 -3.33301 19 -5.66602 29 -6.99902s20 -2 30 -2c18.667 0 35.334 2.5 50.001 7.5
s27.667 13 39 24s21.833 25.167 31.5 42.5s19.5 38.666 29.5 63.999z" />
    <glyph glyph-name="z" unicode="z" horiz-adv-x="480" 
d="M22 0h436v75h-330l316 384v58h-402v-75h292l-312 -377v-65z" />
    <glyph glyph-name="braceleft" unicode="{" horiz-adv-x="333" 
d="M309 731l-69.999 0.000976562c-12.667 0 -25.334 -2.83301 -38.001 -8.5s-24.167 -14 -34.5 -25s-18.833 -24.667 -25.5 -41s-10 -35.166 -10 -56.499v-182c0 -17.333 -2.33301 -33.333 -7 -48s-10.834 -27.167 -18.501 -37.5s-16.5 -18.333 -26.5 -24
s-20.333 -8.5 -31 -8.5v-68c21.333 0 40.5 -10.333 57.5 -31s25.5 -49.334 25.5 -86.001v-182c0 -21.333 3.33301 -40.166 10 -56.499s15.167 -30 25.5 -41s21.833 -19.333 34.5 -25s25.334 -8.5 38.001 -8.5h70v60h-50c-10 0 -18 2.5 -24 7.5s-10.833 11.667 -14.5 20
s-6.16699 17.666 -7.5 27.999s-2 20.5 -2 30.5v183c0 25.333 -3.5 46.5 -10.5 63.5s-15.167 30.5 -24.5 40.5s-18.833 17.333 -28.5 22s-17.5 7.33398 -23.5 8.00098v3c6 1.33301 13.833 4.66602 23.5 9.99902s19.167 13.333 28.5 24s17.5 24.167 24.5 40.5
s10.5 36.166 10.5 59.499v183c0 10.667 0.666992 21.167 2 31.5s3.83301 19.5 7.5 27.5s8.5 14.5 14.5 19.5s14 7.5 24 7.5h50v60z" />
    <glyph glyph-name="bar" unicode="|" horiz-adv-x="222" 
d="M77 -214h68v1000h-68v-1000z" />
    <glyph glyph-name="braceright" unicode="}" horiz-adv-x="333" 
d="M24 -198l70 0.00488281c12.667 0 25.334 2.83301 38.001 8.5s24.167 14 34.5 25s18.833 24.667 25.5 41s10 35.166 10 56.499v182c0 17.333 2.33301 33.166 7 47.499s10.834 26.666 18.501 36.999s16.5 18.333 26.5 24s20.333 8.5 31 8.5v68c-10.667 0 -21 2.66699 -31 8
s-18.833 13.166 -26.5 23.499s-13.834 22.833 -18.501 37.5s-7 31 -7 49v182c0 21.333 -3.33301 40.166 -10 56.499s-15.167 30 -25.5 41s-21.833 19.333 -34.5 25s-25.334 8.5 -38.001 8.5h-70v-60h50c10 0 18 -2.5 24 -7.5s10.833 -11.667 14.5 -20
s6.16699 -17.833 7.5 -28.5s2 -21.334 2 -32.001v-181c0 -25.333 3.5 -46.5 10.5 -63.5s15.167 -30.5 24.5 -40.5s18.833 -17.333 28.5 -22s17.5 -7.33398 23.5 -8.00098v-3c-6 -1.33301 -13.833 -4.66602 -23.5 -9.99902s-19.167 -13.333 -28.5 -24
s-17.5 -24.167 -24.5 -40.5s-10.5 -36.166 -10.5 -59.499v-183c0 -10.667 -0.666992 -21.167 -2 -31.5s-3.83301 -19.5 -7.5 -27.5s-8.5 -14.5 -14.5 -19.5s-14 -7.5 -24 -7.5h-50v-60z" />
    <glyph glyph-name="asciitilde" unicode="~" horiz-adv-x="600" 
d="M495 319l-17.9971 -26.502c-6 -9 -12.5 -17.167 -19.5 -24.5s-14.667 -13.333 -23 -18s-17.5 -7 -27.5 -7c-13.333 0 -29 4.66699 -47 14s-36.333 18 -55 26c-19.333 8.66699 -38.333 16.167 -57 22.5s-36.667 9.5 -54 9.5c-16.667 0 -31.5 -2.5 -44.5 -7.5
s-24.5 -11.5 -34.5 -19.5s-18.833 -17.167 -26.5 -27.5s-14.167 -20.833 -19.5 -31.5l36 -50c4 8.66699 8.5 17.5 13.5 26.5s11 17.167 18 24.5s14.667 13.333 23 18s18.166 7 29.499 7c23.333 0 44.333 -4.16699 63 -12.5s36 -17.166 52 -26.499
c16.667 -9.33301 33.167 -17.166 49.5 -23.499s33.833 -9.5 52.5 -9.5c15.333 0 29.166 2.5 41.499 7.5s23.333 11.5 33 19.5s18.667 17.167 27 27.5s16.166 20.833 23.499 31.5z" />
    <glyph glyph-name="quotesinglbase" horiz-adv-x="278" 
d="M83 0h59c0 -11.333 -0.833008 -22.833 -2.5 -34.5s-4.83398 -22.167 -9.50098 -31.5s-10.667 -16.833 -18 -22.5s-16.666 -8.5 -27.999 -8.5v-50c19.333 0 35.833 4 49.5 12s25 18.667 34 32s15.667 28.833 20 46.5s6.5 36.5 6.5 56.5v111h-111v-111z" />
    <glyph glyph-name="quotesinglbase" unicode="&#x201a;" horiz-adv-x="278" 
d="M83 0h59c0 -11.333 -0.833008 -22.833 -2.5 -34.5s-4.83398 -22.167 -9.50098 -31.5s-10.667 -16.833 -18 -22.5s-16.666 -8.5 -27.999 -8.5v-50c19.333 0 35.833 4 49.5 12s25 18.667 34 32s15.667 28.833 20 46.5s6.5 36.5 6.5 56.5v111h-111v-111z" />
    <glyph glyph-name="quotedblbase" horiz-adv-x="426" 
d="M66 0h59c0 -11.333 -0.833008 -22.833 -2.5 -34.5s-4.83398 -22.167 -9.50098 -31.5s-10.667 -16.833 -18 -22.5s-16.666 -8.5 -27.999 -8.5v-50c19.333 0 35.833 4 49.5 12s25 18.667 34 32s15.667 28.833 20 46.5s6.5 36.5 6.5 56.5v111h-111v-111zM249 0h59
c0 -11.333 -0.833008 -22.833 -2.5 -34.5s-4.83398 -22.167 -9.50098 -31.5s-10.667 -16.833 -18 -22.5s-16.666 -8.5 -27.999 -8.5v-50c19.333 0 35.833 4 49.5 12s25 18.667 34 32s15.667 28.833 20 46.5s6.5 36.5 6.5 56.5v111h-111v-111z" />
    <glyph glyph-name="quotedblbase" unicode="&#x201e;" horiz-adv-x="426" 
d="M66 0h59c0 -11.333 -0.833008 -22.833 -2.5 -34.5s-4.83398 -22.167 -9.50098 -31.5s-10.667 -16.833 -18 -22.5s-16.666 -8.5 -27.999 -8.5v-50c19.333 0 35.833 4 49.5 12s25 18.667 34 32s15.667 28.833 20 46.5s6.5 36.5 6.5 56.5v111h-111v-111zM249 0h59
c0 -11.333 -0.833008 -22.833 -2.5 -34.5s-4.83398 -22.167 -9.50098 -31.5s-10.667 -16.833 -18 -22.5s-16.666 -8.5 -27.999 -8.5v-50c19.333 0 35.833 4 49.5 12s25 18.667 34 32s15.667 28.833 20 46.5s6.5 36.5 6.5 56.5v111h-111v-111z" />
    <glyph glyph-name="ellipsis" unicode="&#x85;" horiz-adv-x="1000" 
d="M111 0h111v111h-111v-111zM444 0h111v111h-111v-111zM777 0h111v111h-111v-111z" />
    <glyph glyph-name="ellipsis" unicode="&#x2026;" horiz-adv-x="1000" 
d="M111 0h111v111h-111v-111zM444 0h111v111h-111v-111zM777 0h111v111h-111v-111z" />
    <glyph glyph-name="dagger" 
d="M236 -155h80v597h198v75h-198v197h-80v-197h-194v-75h194v-597z" />
    <glyph glyph-name="dagger" unicode="&#x2020;" 
d="M236 -155h80v597h198v75h-198v197h-80v-197h-194v-75h194v-597z" />
    <glyph glyph-name="daggerdbl" 
d="M236 -155h80v197h198v75h-198v325h198v75h-198v197h-80v-197h-194v-75h194v-325h-194v-75h194v-197z" />
    <glyph glyph-name="daggerdbl" unicode="&#x2021;" 
d="M236 -155h80v197h198v75h-198v325h198v75h-198v197h-80v-197h-194v-75h194v-325h-194v-75h194v-197z" />
    <glyph glyph-name="perthousand" horiz-adv-x="1148" 
d="M72 535c0 -24 2.66797 -46.168 8.00098 -66.501s14 -38 26 -53s27.167 -26.667 45.5 -35s40.5 -12.5 66.5 -12.5c20.667 0 40.5 3.33301 59.5 10s35.167 18.334 48.5 35.001c14.667 18 25 38 31 60s9 44.333 9 67c0 24 -2.66699 46.333 -8 67s-13.833 38.5 -25.5 53.5
s-26.667 26.833 -45 35.5s-40.833 13 -67.5 13c-27.333 0 -50.333 -4.5 -69 -13.5s-33.834 -21.333 -45.501 -37s-20.167 -34.167 -25.5 -55.5s-8 -44 -8 -68zM147.001 537.999c0 12.667 1.16504 25.8369 3.49805 39.5039s6.33301 26.167 12 37.5
s13.334 20.666 23.001 27.999s22.167 11 37.5 11c14 0 25.5 -4 34.5 -12s16 -18 21 -30s8.33301 -24.833 10 -38.5s2.5 -25.834 2.5 -36.501c0 -12 -1 -24.833 -3 -38.5s-5.66699 -26 -11 -37s-12.666 -20.167 -21.999 -27.5s-21.333 -11 -36 -11
c-15.333 0 -27.833 3.5 -37.5 10.5s-17 16.167 -22 27.5s-8.33301 23.666 -10 36.999s-2.5 26.666 -2.5 39.999zM436.999 155.002c0 -24 2.66797 -46.168 8.00098 -66.501s14 -38 26 -53s27.167 -26.667 45.5 -35s40.5 -12.5 66.5 -12.5c20.667 0 40.5 3.33301 59.5 10
s35.167 18.334 48.5 35.001c14.667 18 25 38 31 60s9 44.333 9 67c0 24 -2.66699 46.333 -8 67s-13.833 38.5 -25.5 53.5s-26.667 26.833 -45 35.5s-40.833 13 -67.5 13c-27.333 0 -50.333 -4.5 -69 -13.5s-33.834 -21.333 -45.501 -37s-20.167 -34.167 -25.5 -55.5
s-8 -44 -8 -68zM512 158.001c0 12.667 1.16504 25.8369 3.49805 39.5039s6.33301 26.167 12 37.5s13.334 20.666 23.001 27.999s22.167 11 37.5 11c14 0 25.5 -4 34.5 -12s16 -18 21 -30s8.33301 -24.833 10 -38.5s2.5 -25.834 2.5 -36.501c0 -12 -1 -24.833 -3 -38.5
s-5.66699 -26 -11 -37s-12.666 -20.167 -21.999 -27.5s-21.333 -11 -36 -11c-15.333 0 -27.833 3.5 -37.5 10.5s-17 16.167 -22 27.5s-8.33301 23.666 -10 36.999s-2.5 26.666 -2.5 39.999zM781.998 155.004c0 -24 2.66797 -46.168 8.00098 -66.501s14 -38 26 -53
s27.167 -26.667 45.5 -35s40.5 -12.5 66.5 -12.5c20.667 0 40.5 3.33301 59.5 10s35.167 18.334 48.5 35.001c14.667 18 25 38 31 60s9 44.333 9 67c0 24 -2.66699 46.333 -8 67s-13.833 38.5 -25.5 53.5s-26.667 26.833 -45 35.5s-40.833 13 -67.5 13
c-27.333 0 -50.333 -4.5 -69 -13.5s-33.834 -21.333 -45.501 -37s-20.167 -34.167 -25.5 -55.5s-8 -44 -8 -68zM856.999 158.003c0 12.667 1.16504 25.8369 3.49805 39.5039s6.33301 26.167 12 37.5s13.334 20.666 23.001 27.999s22.167 11 37.5 11c14 0 25.5 -4 34.5 -12
s16 -18 21 -30s8.33301 -24.833 10 -38.5s2.5 -25.834 2.5 -36.501c0 -12 -1 -24.833 -3 -38.5s-5.66699 -26 -11 -37s-12.666 -20.167 -21.999 -27.5s-21.333 -11 -36 -11c-15.333 0 -27.833 3.5 -37.5 10.5s-17 16.167 -22 27.5s-8.33301 23.666 -10 36.999
s-2.5 26.666 -2.5 39.999zM89.9971 -21.9941h86l537 744h-85z" />
    <glyph glyph-name="perthousand" unicode="&#x2030;" horiz-adv-x="1148" 
d="M72 535c0 -24 2.66797 -46.168 8.00098 -66.501s14 -38 26 -53s27.167 -26.667 45.5 -35s40.5 -12.5 66.5 -12.5c20.667 0 40.5 3.33301 59.5 10s35.167 18.334 48.5 35.001c14.667 18 25 38 31 60s9 44.333 9 67c0 24 -2.66699 46.333 -8 67s-13.833 38.5 -25.5 53.5
s-26.667 26.833 -45 35.5s-40.833 13 -67.5 13c-27.333 0 -50.333 -4.5 -69 -13.5s-33.834 -21.333 -45.501 -37s-20.167 -34.167 -25.5 -55.5s-8 -44 -8 -68zM147.001 537.999c0 12.667 1.16504 25.8369 3.49805 39.5039s6.33301 26.167 12 37.5
s13.334 20.666 23.001 27.999s22.167 11 37.5 11c14 0 25.5 -4 34.5 -12s16 -18 21 -30s8.33301 -24.833 10 -38.5s2.5 -25.834 2.5 -36.501c0 -12 -1 -24.833 -3 -38.5s-5.66699 -26 -11 -37s-12.666 -20.167 -21.999 -27.5s-21.333 -11 -36 -11
c-15.333 0 -27.833 3.5 -37.5 10.5s-17 16.167 -22 27.5s-8.33301 23.666 -10 36.999s-2.5 26.666 -2.5 39.999zM436.999 155.002c0 -24 2.66797 -46.168 8.00098 -66.501s14 -38 26 -53s27.167 -26.667 45.5 -35s40.5 -12.5 66.5 -12.5c20.667 0 40.5 3.33301 59.5 10
s35.167 18.334 48.5 35.001c14.667 18 25 38 31 60s9 44.333 9 67c0 24 -2.66699 46.333 -8 67s-13.833 38.5 -25.5 53.5s-26.667 26.833 -45 35.5s-40.833 13 -67.5 13c-27.333 0 -50.333 -4.5 -69 -13.5s-33.834 -21.333 -45.501 -37s-20.167 -34.167 -25.5 -55.5
s-8 -44 -8 -68zM512 158.001c0 12.667 1.16504 25.8369 3.49805 39.5039s6.33301 26.167 12 37.5s13.334 20.666 23.001 27.999s22.167 11 37.5 11c14 0 25.5 -4 34.5 -12s16 -18 21 -30s8.33301 -24.833 10 -38.5s2.5 -25.834 2.5 -36.501c0 -12 -1 -24.833 -3 -38.5
s-5.66699 -26 -11 -37s-12.666 -20.167 -21.999 -27.5s-21.333 -11 -36 -11c-15.333 0 -27.833 3.5 -37.5 10.5s-17 16.167 -22 27.5s-8.33301 23.666 -10 36.999s-2.5 26.666 -2.5 39.999zM781.998 155.004c0 -24 2.66797 -46.168 8.00098 -66.501s14 -38 26 -53
s27.167 -26.667 45.5 -35s40.5 -12.5 66.5 -12.5c20.667 0 40.5 3.33301 59.5 10s35.167 18.334 48.5 35.001c14.667 18 25 38 31 60s9 44.333 9 67c0 24 -2.66699 46.333 -8 67s-13.833 38.5 -25.5 53.5s-26.667 26.833 -45 35.5s-40.833 13 -67.5 13
c-27.333 0 -50.333 -4.5 -69 -13.5s-33.834 -21.333 -45.501 -37s-20.167 -34.167 -25.5 -55.5s-8 -44 -8 -68zM856.999 158.003c0 12.667 1.16504 25.8369 3.49805 39.5039s6.33301 26.167 12 37.5s13.334 20.666 23.001 27.999s22.167 11 37.5 11c14 0 25.5 -4 34.5 -12
s16 -18 21 -30s8.33301 -24.833 10 -38.5s2.5 -25.834 2.5 -36.501c0 -12 -1 -24.833 -3 -38.5s-5.66699 -26 -11 -37s-12.666 -20.167 -21.999 -27.5s-21.333 -11 -36 -11c-15.333 0 -27.833 3.5 -37.5 10.5s-17 16.167 -22 27.5s-8.33301 23.666 -10 36.999
s-2.5 26.666 -2.5 39.999zM89.9971 -21.9941h86l537 744h-85z" />
    <glyph glyph-name="Scaron" horiz-adv-x="648" 
d="M581 505c-1.33301 39.333 -9.00098 73.1641 -23.001 101.497s-32.667 51.833 -56 70.5s-50.666 32.334 -81.999 41.001s-65.333 13 -102 13c-32.667 0 -64.5 -4.16699 -95.5 -12.5s-58.667 -21 -83 -38s-43.833 -38.667 -58.5 -65s-22 -57.5 -22 -93.5
c0 -32.667 6.5 -59.667 19.5 -81s30.333 -39 52 -53s46.167 -25.167 73.5 -33.5s55.333 -15.5 84 -21.5s56.667 -12.167 84 -18.5s51.666 -14.333 72.999 -24s38.5 -22.167 51.5 -37.5s19.5 -35.333 19.5 -60c0 -26 -5.33301 -47.333 -16 -64s-24.667 -29.834 -42 -39.501
s-36.833 -16.5 -58.5 -20.5s-43.167 -6 -64.5 -6c-27.333 0 -53.5 3.33301 -78.5 10s-47 17 -66 31s-34.333 31.833 -46 53.5s-17.5 47.5 -17.5 77.5h-90c0 -43.333 7.83301 -80.833 23.5 -112.5s37 -57.834 64 -78.501s58.333 -36 94 -46s73.5 -15 113.5 -15
c32.667 0 65.5 4 98.5 12s62.833 20.5 89.5 37.5s48.5 39 65.5 66s25.5 59.5 25.5 97.5c0 34.667 -6.5 63.834 -19.5 87.501s-30.167 43.167 -51.5 58.5s-45.666 27.5 -72.999 36.5s-55.333 16.833 -84 23.5s-56.667 12.834 -84 18.501s-51.833 12.834 -73.5 21.501
s-39 19.834 -52 33.501s-19.5 31.5 -19.5 53.5c0 23.333 4.5 42.833 13.5 58.5s21 28.167 36 37.5s32.167 16 51.5 20s39 6 59 6c49.333 0 89.833 -11.5 121.5 -34.5s50.167 -60.167 55.5 -111.5h90zM473.999 907.998h-75l-72 -98l-68 98h-85l103 -143h95z" />
    <glyph glyph-name="Scaron" unicode="&#x160;" horiz-adv-x="648" 
d="M581 505c-1.33301 39.333 -9.00098 73.1641 -23.001 101.497s-32.667 51.833 -56 70.5s-50.666 32.334 -81.999 41.001s-65.333 13 -102 13c-32.667 0 -64.5 -4.16699 -95.5 -12.5s-58.667 -21 -83 -38s-43.833 -38.667 -58.5 -65s-22 -57.5 -22 -93.5
c0 -32.667 6.5 -59.667 19.5 -81s30.333 -39 52 -53s46.167 -25.167 73.5 -33.5s55.333 -15.5 84 -21.5s56.667 -12.167 84 -18.5s51.666 -14.333 72.999 -24s38.5 -22.167 51.5 -37.5s19.5 -35.333 19.5 -60c0 -26 -5.33301 -47.333 -16 -64s-24.667 -29.834 -42 -39.501
s-36.833 -16.5 -58.5 -20.5s-43.167 -6 -64.5 -6c-27.333 0 -53.5 3.33301 -78.5 10s-47 17 -66 31s-34.333 31.833 -46 53.5s-17.5 47.5 -17.5 77.5h-90c0 -43.333 7.83301 -80.833 23.5 -112.5s37 -57.834 64 -78.501s58.333 -36 94 -46s73.5 -15 113.5 -15
c32.667 0 65.5 4 98.5 12s62.833 20.5 89.5 37.5s48.5 39 65.5 66s25.5 59.5 25.5 97.5c0 34.667 -6.5 63.834 -19.5 87.501s-30.167 43.167 -51.5 58.5s-45.666 27.5 -72.999 36.5s-55.333 16.833 -84 23.5s-56.667 12.834 -84 18.501s-51.833 12.834 -73.5 21.501
s-39 19.834 -52 33.501s-19.5 31.5 -19.5 53.5c0 23.333 4.5 42.833 13.5 58.5s21 28.167 36 37.5s32.167 16 51.5 20s39 6 59 6c49.333 0 89.833 -11.5 121.5 -34.5s50.167 -60.167 55.5 -111.5h90zM473.999 907.998h-75l-72 -98l-68 98h-85l103 -143h95z" />
    <glyph glyph-name="guilsinglleft" horiz-adv-x="259" 
d="M202 114v86l-100 78l100 78v86l-152 -120v-88z" />
    <glyph glyph-name="guilsinglleft" unicode="&#x2039;" horiz-adv-x="259" 
d="M202 114v86l-100 78l100 78v86l-152 -120v-88z" />
    <glyph glyph-name="Sacute" horiz-adv-x="648" 
d="M581 505c-1.33301 39.333 -9.00098 73.1641 -23.001 101.497s-32.667 51.833 -56 70.5s-50.666 32.334 -81.999 41.001s-65.333 13 -102 13c-32.667 0 -64.5 -4.16699 -95.5 -12.5s-58.667 -21 -83 -38s-43.833 -38.667 -58.5 -65s-22 -57.5 -22 -93.5
c0 -32.667 6.5 -59.667 19.5 -81s30.333 -39 52 -53s46.167 -25.167 73.5 -33.5s55.333 -15.5 84 -21.5s56.667 -12.167 84 -18.5s51.666 -14.333 72.999 -24s38.5 -22.167 51.5 -37.5s19.5 -35.333 19.5 -60c0 -26 -5.33301 -47.333 -16 -64s-24.667 -29.834 -42 -39.501
s-36.833 -16.5 -58.5 -20.5s-43.167 -6 -64.5 -6c-27.333 0 -53.5 3.33301 -78.5 10s-47 17 -66 31s-34.333 31.833 -46 53.5s-17.5 47.5 -17.5 77.5h-90c0 -43.333 7.83301 -80.833 23.5 -112.5s37 -57.834 64 -78.501s58.333 -36 94 -46s73.5 -15 113.5 -15
c32.667 0 65.5 4 98.5 12s62.833 20.5 89.5 37.5s48.5 39 65.5 66s25.5 59.5 25.5 97.5c0 34.667 -6.5 63.834 -19.5 87.501s-30.167 43.167 -51.5 58.5s-45.666 27.5 -72.999 36.5s-55.333 16.833 -84 23.5s-56.667 12.834 -84 18.501s-51.833 12.834 -73.5 21.501
s-39 19.834 -52 33.501s-19.5 31.5 -19.5 53.5c0 23.333 4.5 42.833 13.5 58.5s21 28.167 36 37.5s32.167 16 51.5 20s39 6 59 6c49.333 0 89.833 -11.5 121.5 -34.5s50.167 -60.167 55.5 -111.5h90zM267.999 764.998h62l133 143h-111z" />
    <glyph glyph-name="Sacute" unicode="&#x15a;" horiz-adv-x="648" 
d="M581 505c-1.33301 39.333 -9.00098 73.1641 -23.001 101.497s-32.667 51.833 -56 70.5s-50.666 32.334 -81.999 41.001s-65.333 13 -102 13c-32.667 0 -64.5 -4.16699 -95.5 -12.5s-58.667 -21 -83 -38s-43.833 -38.667 -58.5 -65s-22 -57.5 -22 -93.5
c0 -32.667 6.5 -59.667 19.5 -81s30.333 -39 52 -53s46.167 -25.167 73.5 -33.5s55.333 -15.5 84 -21.5s56.667 -12.167 84 -18.5s51.666 -14.333 72.999 -24s38.5 -22.167 51.5 -37.5s19.5 -35.333 19.5 -60c0 -26 -5.33301 -47.333 -16 -64s-24.667 -29.834 -42 -39.501
s-36.833 -16.5 -58.5 -20.5s-43.167 -6 -64.5 -6c-27.333 0 -53.5 3.33301 -78.5 10s-47 17 -66 31s-34.333 31.833 -46 53.5s-17.5 47.5 -17.5 77.5h-90c0 -43.333 7.83301 -80.833 23.5 -112.5s37 -57.834 64 -78.501s58.333 -36 94 -46s73.5 -15 113.5 -15
c32.667 0 65.5 4 98.5 12s62.833 20.5 89.5 37.5s48.5 39 65.5 66s25.5 59.5 25.5 97.5c0 34.667 -6.5 63.834 -19.5 87.501s-30.167 43.167 -51.5 58.5s-45.666 27.5 -72.999 36.5s-55.333 16.833 -84 23.5s-56.667 12.834 -84 18.501s-51.833 12.834 -73.5 21.501
s-39 19.834 -52 33.501s-19.5 31.5 -19.5 53.5c0 23.333 4.5 42.833 13.5 58.5s21 28.167 36 37.5s32.167 16 51.5 20s39 6 59 6c49.333 0 89.833 -11.5 121.5 -34.5s50.167 -60.167 55.5 -111.5h90zM267.999 764.998h62l133 143h-111z" />
    <glyph glyph-name="Tcaron" horiz-adv-x="574" 
d="M240 0h95v634h238v80h-571v-80h238v-634zM437 908h-75l-72 -98l-68 98h-85l103 -143h95z" />
    <glyph glyph-name="Tcaron" unicode="&#x164;" horiz-adv-x="574" 
d="M240 0h95v634h238v80h-571v-80h238v-634zM437 908h-75l-72 -98l-68 98h-85l103 -143h95z" />
    <glyph glyph-name="Zcaron" horiz-adv-x="611" 
d="M22 0h568v80h-457l445 554v80h-522v-80h411l-445 -554v-80zM476 908h-75l-72 -98l-68 98h-85l103 -143h95z" />
    <glyph glyph-name="Zcaron" unicode="&#x17d;" horiz-adv-x="611" 
d="M22 0h568v80h-457l445 554v80h-522v-80h411l-445 -554v-80zM476 908h-75l-72 -98l-68 98h-85l103 -143h95z" />
    <glyph glyph-name="Zacute" horiz-adv-x="611" 
d="M22 0h568v80h-457l445 554v80h-522v-80h411l-445 -554v-80zM265 765h62l133 143h-111z" />
    <glyph glyph-name="Zacute" unicode="&#x179;" horiz-adv-x="611" 
d="M22 0h568v80h-457l445 554v80h-522v-80h411l-445 -554v-80zM265 765h62l133 143h-111z" />
    <glyph glyph-name="quoteleft" horiz-adv-x="278" 
d="M195 567h-59c0 11.333 0.833008 22.833 2.5 34.5s4.83398 22.167 9.50098 31.5s10.667 16.833 18 22.5s16.666 8.5 27.999 8.5v50c-19.333 0 -35.833 -4 -49.5 -12s-25 -18.667 -34 -32s-15.667 -28.833 -20 -46.5s-6.5 -36.5 -6.5 -56.5v-111h111v111z" />
    <glyph glyph-name="quoteleft" unicode="&#x2018;" horiz-adv-x="278" 
d="M195 567h-59c0 11.333 0.833008 22.833 2.5 34.5s4.83398 22.167 9.50098 31.5s10.667 16.833 18 22.5s16.666 8.5 27.999 8.5v50c-19.333 0 -35.833 -4 -49.5 -12s-25 -18.667 -34 -32s-15.667 -28.833 -20 -46.5s-6.5 -36.5 -6.5 -56.5v-111h111v111z" />
    <glyph glyph-name="quoteright" horiz-adv-x="278" 
d="M83 603h59c0 -11.333 -0.833008 -22.833 -2.5 -34.5s-4.83398 -22.167 -9.50098 -31.5s-10.667 -16.833 -18 -22.5s-16.666 -8.5 -27.999 -8.5v-50c19.333 0 35.833 4 49.5 12s25 18.667 34 32s15.667 28.833 20 46.5s6.5 36.5 6.5 56.5v111h-111v-111z" />
    <glyph glyph-name="quoteright" unicode="&#x2019;" horiz-adv-x="278" 
d="M83 603h59c0 -11.333 -0.833008 -22.833 -2.5 -34.5s-4.83398 -22.167 -9.50098 -31.5s-10.667 -16.833 -18 -22.5s-16.666 -8.5 -27.999 -8.5v-50c19.333 0 35.833 4 49.5 12s25 18.667 34 32s15.667 28.833 20 46.5s6.5 36.5 6.5 56.5v111h-111v-111z" />
    <glyph glyph-name="quotedblleft" horiz-adv-x="426" 
d="M360 567h-59c0 11.333 0.833008 22.833 2.5 34.5s4.83398 22.167 9.50098 31.5s10.667 16.833 18 22.5s16.666 8.5 27.999 8.5v50c-19.333 0 -35.833 -4 -49.5 -12s-25 -18.667 -34 -32s-15.667 -28.833 -20 -46.5s-6.5 -36.5 -6.5 -56.5v-111h111v111zM177 567h-59
c0 11.333 0.833008 22.833 2.5 34.5s4.83398 22.167 9.50098 31.5s10.667 16.833 18 22.5s16.666 8.5 27.999 8.5v50c-19.333 0 -35.833 -4 -49.5 -12s-25 -18.667 -34 -32s-15.667 -28.833 -20 -46.5s-6.5 -36.5 -6.5 -56.5v-111h111v111z" />
    <glyph glyph-name="quotedblleft" unicode="&#x201c;" horiz-adv-x="426" 
d="M360 567h-59c0 11.333 0.833008 22.833 2.5 34.5s4.83398 22.167 9.50098 31.5s10.667 16.833 18 22.5s16.666 8.5 27.999 8.5v50c-19.333 0 -35.833 -4 -49.5 -12s-25 -18.667 -34 -32s-15.667 -28.833 -20 -46.5s-6.5 -36.5 -6.5 -56.5v-111h111v111zM177 567h-59
c0 11.333 0.833008 22.833 2.5 34.5s4.83398 22.167 9.50098 31.5s10.667 16.833 18 22.5s16.666 8.5 27.999 8.5v50c-19.333 0 -35.833 -4 -49.5 -12s-25 -18.667 -34 -32s-15.667 -28.833 -20 -46.5s-6.5 -36.5 -6.5 -56.5v-111h111v111z" />
    <glyph glyph-name="quotedblright" horiz-adv-x="426" 
d="M249 603h59c0 -11.333 -0.833008 -22.833 -2.5 -34.5s-4.83398 -22.167 -9.50098 -31.5s-10.667 -16.833 -18 -22.5s-16.666 -8.5 -27.999 -8.5v-50c19.333 0 35.833 4 49.5 12s25 18.667 34 32s15.667 28.833 20 46.5s6.5 36.5 6.5 56.5v111h-111v-111zM66 603h59
c0 -11.333 -0.833008 -22.833 -2.5 -34.5s-4.83398 -22.167 -9.50098 -31.5s-10.667 -16.833 -18 -22.5s-16.666 -8.5 -27.999 -8.5v-50c19.333 0 35.833 4 49.5 12s25 18.667 34 32s15.667 28.833 20 46.5s6.5 36.5 6.5 56.5v111h-111v-111z" />
    <glyph glyph-name="quotedblright" unicode="&#x201d;" horiz-adv-x="426" 
d="M249 603h59c0 -11.333 -0.833008 -22.833 -2.5 -34.5s-4.83398 -22.167 -9.50098 -31.5s-10.667 -16.833 -18 -22.5s-16.666 -8.5 -27.999 -8.5v-50c19.333 0 35.833 4 49.5 12s25 18.667 34 32s15.667 28.833 20 46.5s6.5 36.5 6.5 56.5v111h-111v-111zM66 603h59
c0 -11.333 -0.833008 -22.833 -2.5 -34.5s-4.83398 -22.167 -9.50098 -31.5s-10.667 -16.833 -18 -22.5s-16.666 -8.5 -27.999 -8.5v-50c19.333 0 35.833 4 49.5 12s25 18.667 34 32s15.667 28.833 20 46.5s6.5 36.5 6.5 56.5v111h-111v-111z" />
    <glyph glyph-name="bullet" horiz-adv-x="500" 
d="M72 357c0 -24.667 4.66699 -47.834 14 -69.501s22 -40.667 38 -57s34.833 -29.166 56.5 -38.499s44.834 -14 69.501 -14s47.834 4.66699 69.501 14s40.667 22.166 57 38.499s29.166 35.333 38.499 57s14 44.834 14 69.501s-4.66699 47.834 -14 69.501
s-22.166 40.5 -38.499 56.5s-35.333 28.667 -57 38s-44.834 14 -69.501 14s-47.834 -4.66699 -69.501 -14s-40.5 -22 -56.5 -38s-28.667 -34.833 -38 -56.5s-14 -44.834 -14 -69.501z" />
    <glyph glyph-name="bullet" unicode="&#x2022;" horiz-adv-x="500" 
d="M72 357c0 -24.667 4.66699 -47.834 14 -69.501s22 -40.667 38 -57s34.833 -29.166 56.5 -38.499s44.834 -14 69.501 -14s47.834 4.66699 69.501 14s40.667 22.166 57 38.499s29.166 35.333 38.499 57s14 44.834 14 69.501s-4.66699 47.834 -14 69.501
s-22.166 40.5 -38.499 56.5s-35.333 28.667 -57 38s-44.834 14 -69.501 14s-47.834 -4.66699 -69.501 -14s-40.5 -22 -56.5 -38s-28.667 -34.833 -38 -56.5s-14 -44.834 -14 -69.501z" />
    <glyph glyph-name="endash" horiz-adv-x="500" 
d="M0 238h500v80h-500v-80z" />
    <glyph glyph-name="endash" unicode="&#x2013;" horiz-adv-x="500" 
d="M0 238h500v80h-500v-80z" />
    <glyph glyph-name="emdash" horiz-adv-x="1000" 
d="M130 238h740v80h-740v-80z" />
    <glyph glyph-name="emdash" unicode="&#x2014;" horiz-adv-x="1000" 
d="M130 238h740v80h-740v-80z" />
    <glyph glyph-name="trademark" horiz-adv-x="990" 
d="M390 714h-326v-55h129v-357h68v357h129v55zM927 714h-104l-121 -313l-123 313h-105v-412h68v344h2l135 -344h43l135 344h2v-344h68v412z" />
    <glyph glyph-name="trademark" unicode="&#x2122;" horiz-adv-x="990" 
d="M390 714h-326v-55h129v-357h68v357h129v55zM927 714h-104l-121 -313l-123 313h-105v-412h68v344h2l135 -344h43l135 344h2v-344h68v412z" />
    <glyph glyph-name="scaron" horiz-adv-x="500" 
d="M31 163c1.33301 -32 7.99707 -59.1631 19.9971 -81.4961s28 -40.333 48 -54s42.833 -23.667 68.5 -30s53.167 -9.5 82.5 -9.5c26 0 52.167 2.66699 78.5 8s50 14.333 71 27s38 29.5 51 50.5s19.5 46.833 19.5 77.5c0 24.667 -4.83301 45.334 -14.5 62.001
s-22.334 30.5 -38.001 41.5s-33.667 19.833 -54 26.5s-41.166 12.334 -62.499 17.001l-60 13.5c-20 4.33301 -38 9.66602 -54 15.999s-29.167 14.166 -39.5 23.499s-15.5 21.666 -15.5 36.999c0 12.667 3.33301 23.334 10 32.001s15.334 15.5 26.001 20.5
s22.5 8.5 35.5 10.5s25.833 3 38.5 3c14 0 27.833 -1.5 41.5 -4.5s26 -7.83301 37 -14.5s20.333 -15.5 28 -26.5s12.167 -24.833 13.5 -41.5h85c-2 31.333 -8.66699 57.5 -20 78.5s-26.5 37.667 -45.5 50s-41 21 -66 26s-51.833 7.5 -80.5 7.5
c-22.667 0 -45.5 -2.83301 -68.5 -8.5s-43.667 -14.334 -62 -26.001s-33.333 -26.834 -45 -45.501s-17.5 -41 -17.5 -67c0 -24.667 4.83301 -45.334 14.5 -62.001s22.5 -30.334 38.5 -41.001s34 -19.334 54 -26.001s40.667 -12.334 62 -17.001l62.5 -13.5
c20.333 -4.33301 38.333 -9.83301 54 -16.5s28.334 -15.167 38.001 -25.5s14.5 -23.833 14.5 -40.5c0 -16 -4 -29.167 -12 -39.5s-18.167 -18.166 -30.5 -23.499s-25.833 -9 -40.5 -11s-28.667 -3 -42 -3c-17.333 0 -34.166 1.66699 -50.499 5s-31 8.83301 -44 16.5
s-23.5 17.834 -31.5 30.501s-12.333 28.667 -13 48h-85zM399.997 731.004h-75l-72 -98l-68 98h-85l103 -143h95z" />
    <glyph glyph-name="scaron" unicode="&#x161;" horiz-adv-x="500" 
d="M31 163c1.33301 -32 7.99707 -59.1631 19.9971 -81.4961s28 -40.333 48 -54s42.833 -23.667 68.5 -30s53.167 -9.5 82.5 -9.5c26 0 52.167 2.66699 78.5 8s50 14.333 71 27s38 29.5 51 50.5s19.5 46.833 19.5 77.5c0 24.667 -4.83301 45.334 -14.5 62.001
s-22.334 30.5 -38.001 41.5s-33.667 19.833 -54 26.5s-41.166 12.334 -62.499 17.001l-60 13.5c-20 4.33301 -38 9.66602 -54 15.999s-29.167 14.166 -39.5 23.499s-15.5 21.666 -15.5 36.999c0 12.667 3.33301 23.334 10 32.001s15.334 15.5 26.001 20.5
s22.5 8.5 35.5 10.5s25.833 3 38.5 3c14 0 27.833 -1.5 41.5 -4.5s26 -7.83301 37 -14.5s20.333 -15.5 28 -26.5s12.167 -24.833 13.5 -41.5h85c-2 31.333 -8.66699 57.5 -20 78.5s-26.5 37.667 -45.5 50s-41 21 -66 26s-51.833 7.5 -80.5 7.5
c-22.667 0 -45.5 -2.83301 -68.5 -8.5s-43.667 -14.334 -62 -26.001s-33.333 -26.834 -45 -45.501s-17.5 -41 -17.5 -67c0 -24.667 4.83301 -45.334 14.5 -62.001s22.5 -30.334 38.5 -41.001s34 -19.334 54 -26.001s40.667 -12.334 62 -17.001l62.5 -13.5
c20.333 -4.33301 38.333 -9.83301 54 -16.5s28.334 -15.167 38.001 -25.5s14.5 -23.833 14.5 -40.5c0 -16 -4 -29.167 -12 -39.5s-18.167 -18.166 -30.5 -23.499s-25.833 -9 -40.5 -11s-28.667 -3 -42 -3c-17.333 0 -34.166 1.66699 -50.499 5s-31 8.83301 -44 16.5
s-23.5 17.834 -31.5 30.501s-12.333 28.667 -13 48h-85zM399.997 731.004h-75l-72 -98l-68 98h-85l103 -143h95z" />
    <glyph glyph-name="guilsinglright" horiz-adv-x="259" 
d="M57 442v-86l100 -78l-100 -78v-86l152 120v88z" />
    <glyph glyph-name="guilsinglright" unicode="&#x203a;" horiz-adv-x="259" 
d="M57 442v-86l100 -78l-100 -78v-86l152 120v88z" />
    <glyph glyph-name="sacute" horiz-adv-x="500" 
d="M31 163c1.33301 -32 7.99707 -59.1631 19.9971 -81.4961s28 -40.333 48 -54s42.833 -23.667 68.5 -30s53.167 -9.5 82.5 -9.5c26 0 52.167 2.66699 78.5 8s50 14.333 71 27s38 29.5 51 50.5s19.5 46.833 19.5 77.5c0 24.667 -4.83301 45.334 -14.5 62.001
s-22.334 30.5 -38.001 41.5s-33.667 19.833 -54 26.5s-41.166 12.334 -62.499 17.001l-60 13.5c-20 4.33301 -38 9.66602 -54 15.999s-29.167 14.166 -39.5 23.499s-15.5 21.666 -15.5 36.999c0 12.667 3.33301 23.334 10 32.001s15.334 15.5 26.001 20.5
s22.5 8.5 35.5 10.5s25.833 3 38.5 3c14 0 27.833 -1.5 41.5 -4.5s26 -7.83301 37 -14.5s20.333 -15.5 28 -26.5s12.167 -24.833 13.5 -41.5h85c-2 31.333 -8.66699 57.5 -20 78.5s-26.5 37.667 -45.5 50s-41 21 -66 26s-51.833 7.5 -80.5 7.5
c-22.667 0 -45.5 -2.83301 -68.5 -8.5s-43.667 -14.334 -62 -26.001s-33.333 -26.834 -45 -45.501s-17.5 -41 -17.5 -67c0 -24.667 4.83301 -45.334 14.5 -62.001s22.5 -30.334 38.5 -41.001s34 -19.334 54 -26.001s40.667 -12.334 62 -17.001l62.5 -13.5
c20.333 -4.33301 38.333 -9.83301 54 -16.5s28.334 -15.167 38.001 -25.5s14.5 -23.833 14.5 -40.5c0 -16 -4 -29.167 -12 -39.5s-18.167 -18.166 -30.5 -23.499s-25.833 -9 -40.5 -11s-28.667 -3 -42 -3c-17.333 0 -34.166 1.66699 -50.499 5s-31 8.83301 -44 16.5
s-23.5 17.834 -31.5 30.501s-12.333 28.667 -13 48h-85zM188.997 588.004h62l133 143h-111z" />
    <glyph glyph-name="sacute" unicode="&#x15b;" horiz-adv-x="500" 
d="M31 163c1.33301 -32 7.99707 -59.1631 19.9971 -81.4961s28 -40.333 48 -54s42.833 -23.667 68.5 -30s53.167 -9.5 82.5 -9.5c26 0 52.167 2.66699 78.5 8s50 14.333 71 27s38 29.5 51 50.5s19.5 46.833 19.5 77.5c0 24.667 -4.83301 45.334 -14.5 62.001
s-22.334 30.5 -38.001 41.5s-33.667 19.833 -54 26.5s-41.166 12.334 -62.499 17.001l-60 13.5c-20 4.33301 -38 9.66602 -54 15.999s-29.167 14.166 -39.5 23.499s-15.5 21.666 -15.5 36.999c0 12.667 3.33301 23.334 10 32.001s15.334 15.5 26.001 20.5
s22.5 8.5 35.5 10.5s25.833 3 38.5 3c14 0 27.833 -1.5 41.5 -4.5s26 -7.83301 37 -14.5s20.333 -15.5 28 -26.5s12.167 -24.833 13.5 -41.5h85c-2 31.333 -8.66699 57.5 -20 78.5s-26.5 37.667 -45.5 50s-41 21 -66 26s-51.833 7.5 -80.5 7.5
c-22.667 0 -45.5 -2.83301 -68.5 -8.5s-43.667 -14.334 -62 -26.001s-33.333 -26.834 -45 -45.501s-17.5 -41 -17.5 -67c0 -24.667 4.83301 -45.334 14.5 -62.001s22.5 -30.334 38.5 -41.001s34 -19.334 54 -26.001s40.667 -12.334 62 -17.001l62.5 -13.5
c20.333 -4.33301 38.333 -9.83301 54 -16.5s28.334 -15.167 38.001 -25.5s14.5 -23.833 14.5 -40.5c0 -16 -4 -29.167 -12 -39.5s-18.167 -18.166 -30.5 -23.499s-25.833 -9 -40.5 -11s-28.667 -3 -42 -3c-17.333 0 -34.166 1.66699 -50.499 5s-31 8.83301 -44 16.5
s-23.5 17.834 -31.5 30.501s-12.333 28.667 -13 48h-85zM188.997 588.004h62l133 143h-111z" />
    <glyph glyph-name="tcaron" horiz-adv-x="352" 
d="M182 672h-85.002v-155h-88v-75h88v-329c0 -24 2.33301 -43.333 7 -58s11.834 -26 21.501 -34s22.334 -13.5 38.001 -16.5s34.5 -4.5 56.5 -4.5h65v75h-39c-13.333 0 -24.166 0.5 -32.499 1.5s-14.833 3.16699 -19.5 6.5s-7.83398 8 -9.50098 14s-2.5 14 -2.5 24v321h103
v75h-103v155zM247.998 751l0.000976562 -96.9961h51c0 -6.66699 -0.5 -13.834 -1.5 -21.501s-3.33301 -15 -7 -22s-8.83398 -13.333 -15.501 -19s-15.667 -9.83398 -27 -12.501v-40c20 3.33301 36.167 9.16602 48.5 17.499s22 18.166 29 29.499s11.667 23.5 14 36.5
s3.5 25.833 3.5 38.5v90h-95z" />
    <glyph glyph-name="tcaron" unicode="&#x165;" horiz-adv-x="352" 
d="M182 672h-85.002v-155h-88v-75h88v-329c0 -24 2.33301 -43.333 7 -58s11.834 -26 21.501 -34s22.334 -13.5 38.001 -16.5s34.5 -4.5 56.5 -4.5h65v75h-39c-13.333 0 -24.166 0.5 -32.499 1.5s-14.833 3.16699 -19.5 6.5s-7.83398 8 -9.50098 14s-2.5 14 -2.5 24v321h103
v75h-103v155zM247.998 751l0.000976562 -96.9961h51c0 -6.66699 -0.5 -13.834 -1.5 -21.501s-3.33301 -15 -7 -22s-8.83398 -13.333 -15.501 -19s-15.667 -9.83398 -27 -12.501v-40c20 3.33301 36.167 9.16602 48.5 17.499s22 18.166 29 29.499s11.667 23.5 14 36.5
s3.5 25.833 3.5 38.5v90h-95z" />
    <glyph glyph-name="zcaron" horiz-adv-x="480" 
d="M22 0h436v75h-330l316 384v58h-402v-75h291l-311 -377v-65zM390 731h-75l-72 -98l-68 98h-85l103 -143h95z" />
    <glyph glyph-name="zcaron" unicode="&#x17e;" horiz-adv-x="480" 
d="M22 0h436v75h-330l316 384v58h-402v-75h291l-311 -377v-65zM390 731h-75l-72 -98l-68 98h-85l103 -143h95z" />
    <glyph glyph-name="zacute" horiz-adv-x="480" 
d="M22 0h436v75h-330l316 384v58h-402v-75h291l-311 -377v-65zM189 588h62l133 143h-111z" />
    <glyph glyph-name="zacute" unicode="&#x17a;" horiz-adv-x="480" 
d="M22 0h436v75h-330l316 384v58h-402v-75h291l-311 -377v-65zM189 588h62l133 143h-111z" />
    <glyph glyph-name="caron" unicode="&#xa1;" horiz-adv-x="222" 
d="M261 731h-77l-70 -96l-69 96h-84l104 -143h93z" />
    <glyph glyph-name="caron" unicode="&#x2c7;" horiz-adv-x="222" 
d="M261 731h-77l-70 -96l-69 96h-84l104 -143h93z" />
    <glyph glyph-name="breve" unicode="&#xa2;" horiz-adv-x="222" 
d="M-45 731c13.333 -95.333 64.668 -143 154.001 -143c44 0 79.5 12.5 106.5 37.5s44.167 60.167 51.5 105.5h-51c-10 -28 -21.833 -49.667 -35.5 -65s-34.834 -23 -63.501 -23s-52.5 7 -71.5 21s-32.5 36.333 -40.5 67h-50z" />
    <glyph glyph-name="breve" unicode="&#x2d8;" horiz-adv-x="222" 
d="M-45 731c13.333 -95.333 64.668 -143 154.001 -143c44 0 79.5 12.5 106.5 37.5s44.167 60.167 51.5 105.5h-51c-10 -28 -21.833 -49.667 -35.5 -65s-34.834 -23 -63.501 -23s-52.5 7 -71.5 21s-32.5 36.333 -40.5 67h-50z" />
    <glyph glyph-name="Lslash" unicode="&#xa3;" 
d="M78 0h473v80h-378v228l228 160v76l-228 -160v330h-95v-398l-79 -56v-76l79 56v-240z" />
    <glyph glyph-name="Lslash" unicode="&#x141;" 
d="M78 0h473v80h-378v228l228 160v76l-228 -160v330h-95v-398l-79 -56v-76l79 56v-240z" />
    <glyph glyph-name="currency" unicode="&#xa4;" 
d="M25 555l57.001 -58.001c-18.667 -18.667 -32.334 -41 -41.001 -67s-13 -53 -13 -81s4.5 -54.333 13.5 -79s21.833 -47 38.5 -67l-55 -58l48 -48l55 58c20 -18 43 -31.5 69 -40.5s53.667 -13.5 83 -13.5c28 0 54.833 4.66699 80.5 14s48.167 23 67.5 41l56 -58l47 47
l-55 56c17.333 20.667 30.333 43.834 39 69.501s13 52.5 13 80.5s-4.33301 55 -13 81s-21.667 48.333 -39 67l55 55l-50 51l-57 -56c-18 15.333 -39.667 27.5 -65 36.5s-51.333 13.5 -78 13.5c-28 0 -55.333 -4.5 -82 -13.5s-49.667 -21.5 -69 -37.5l-56 56z
M281.001 523.999c22.667 0 43.999 -4.66602 63.999 -13.999s37.167 -21.833 51.5 -37.5s25.666 -34 33.999 -55s12.5 -43.167 12.5 -66.5c0 -24 -4.16699 -46.667 -12.5 -68s-19.666 -39.833 -33.999 -55.5s-31.5 -28.167 -51.5 -37.5s-41.667 -14 -65 -14
s-45.166 4.5 -65.499 13.5s-38 21.167 -53 36.5s-26.833 33.666 -35.5 54.999s-13 44 -13 68c0 24.667 4.33301 47.667 13 69s20.5 39.833 35.5 55.5s32.667 28 53 37s42.5 13.5 66.5 13.5z" />
    <glyph glyph-name="Aogonek" unicode="&#xa5;" horiz-adv-x="648" 
d="M443 295h-242l121 333h2zM-7 0l98 -0.00195312l80 215h302l78 -215h35c-24.667 -15.333 -44.334 -29.666 -59.001 -42.999s-25.834 -25.5 -33.501 -36.5s-12.667 -20.667 -15 -29s-3.5 -14.833 -3.5 -19.5c0 -20 3.66699 -35.5 11 -46.5s16 -19.167 26 -24.5
s20.167 -8.5 30.5 -9.5s18.5 -1.5 24.5 -1.5c20.667 0 40.5 4.5 59.5 13.5s35.167 25.167 48.5 48.5l-32 18c-7.33301 -9.33301 -15.666 -16.666 -24.999 -21.999s-21.666 -8 -36.999 -8c-13.333 0 -23 4.33301 -29 13s-9 18.334 -9 29.001
c0 13.333 5.33301 29.166 16 47.499s33 41.833 67 70.5h30l-279 714h-105z" />
    <glyph glyph-name="Aogonek" unicode="&#x104;" horiz-adv-x="648" 
d="M443 295h-242l121 333h2zM-7 0l98 -0.00195312l80 215h302l78 -215h35c-24.667 -15.333 -44.334 -29.666 -59.001 -42.999s-25.834 -25.5 -33.501 -36.5s-12.667 -20.667 -15 -29s-3.5 -14.833 -3.5 -19.5c0 -20 3.66699 -35.5 11 -46.5s16 -19.167 26 -24.5
s20.167 -8.5 30.5 -9.5s18.5 -1.5 24.5 -1.5c20.667 0 40.5 4.5 59.5 13.5s35.167 25.167 48.5 48.5l-32 18c-7.33301 -9.33301 -15.666 -16.666 -24.999 -21.999s-21.666 -8 -36.999 -8c-13.333 0 -23 4.33301 -29 13s-9 18.334 -9 29.001
c0 13.333 5.33301 29.166 16 47.499s33 41.833 67 70.5h30l-279 714h-105z" />
    <glyph glyph-name="brokenbar" unicode="&#xa6;" horiz-adv-x="222" 
d="M77 -89h68v250h-68v-250zM145 661h-68v-250h68v250z" />
    <glyph glyph-name="section" unicode="&#xa7;" 
d="M190 420c22.667 -15.333 45.499 -29.8301 68.499 -43.4971l69.5 -41.5l34.5 -21.5c12.333 -7.66699 23.833 -16.334 34.5 -26.001s19.5 -20.334 26.5 -32.001s10.5 -24.5 10.5 -38.5c0 -22.667 -7.16699 -41.834 -21.5 -57.501s-31.166 -27.5 -50.499 -35.5
c-22.667 15.333 -45.667 29.833 -69 43.5s-47 26.834 -71 39.501l-37 22.5c-12.667 7.66699 -24 16.167 -34 25.5s-18.167 20 -24.5 32s-9.5 26 -9.5 42c0 21.333 7.33301 40.166 22 56.499s31.667 27.833 51 34.5zM464.999 546.003
c-1.33301 62.667 -18.6641 109.171 -51.9971 139.504s-77.333 45.5 -132 45.5c-23.333 0 -46 -3.5 -68 -10.5s-41.667 -17.5 -59 -31.5s-31.333 -31 -42 -51s-16 -43 -16 -69c0 -21.333 4 -40.5 12 -57.5s19.333 -33.167 34 -48.5c-14.667 -4 -28.5 -10.5 -41.5 -19.5
s-24.333 -19.667 -34 -32s-17.334 -26 -23.001 -41s-8.5 -30.167 -8.5 -45.5c0 -27.333 5 -51.333 15 -72s23.167 -39.334 39.5 -56.001s35 -31.5 56 -44.5s42.167 -25.167 63.5 -36.5l64 -35c20.667 -11.333 39.167 -23 55.5 -35s29.5 -25 39.5 -39s15 -29.667 15 -47
c0 -14 -3 -26.167 -9 -36.5s-13.667 -19 -23 -26s-20.166 -12.167 -32.499 -15.5s-24.5 -5 -36.5 -5c-34 0 -61.333 10.5 -82 31.5s-31.334 48.5 -32.001 82.5h-85c4 -58.667 23.667 -104.834 59 -138.501s82.666 -50.5 141.999 -50.5c26.667 0 51.5 3.83301 74.5 11.5
s42.833 18.5 59.5 32.5s29.667 30.833 39 50.5s14 41.5 14 65.5c0 50.667 -19.667 90.667 -59 120c14.667 6 28.5 13.833 41.5 23.5s24 21 33 34s16.167 27.167 21.5 42.5s8 31 8 47c0 24 -4.83301 45.667 -14.5 65s-22.167 36.666 -37.5 51.999s-33 29.166 -53 41.499
s-40.333 24.166 -61 35.499l-61.5 33c-19.667 10.667 -37.334 21.834 -53.001 33.501s-28.167 24 -37.5 37s-14 27.5 -14 43.5c0 29.333 9.16699 51 27.5 65s40.833 21 67.5 21c32 0 56.667 -10.667 74 -32s26.333 -47.333 27 -78h85z" />
    <glyph glyph-name="dieresis" unicode="&#xa8;" horiz-adv-x="222" 
d="M160 610h90v104h-90v-104zM-28 610h90v104h-90v-104z" />
    <glyph glyph-name="copyright" unicode="&#xa9;" horiz-adv-x="800" 
d="M24 359c0 -54 10 -103.833 30 -149.5s47.167 -85.334 81.5 -119.001s74.333 -60 120 -79s94.167 -28.5 145.5 -28.5c50.667 0 98.834 9.5 144.501 28.5s85.5 45.333 119.5 79s61 73.334 81 119.001s30 95.5 30 149.5c0 52.667 -10 101.667 -30 147
s-47 84.666 -81 117.999s-73.833 59.5 -119.5 78.5s-93.834 28.5 -144.501 28.5c-51.333 0 -99.833 -9.5 -145.5 -28.5s-85.667 -45.167 -120 -78.5s-61.5 -72.666 -81.5 -117.999s-30 -94.333 -30 -147zM92 359c0 44.667 7.83301 86.167 23.5 124.5
s37.334 71.833 65.001 100.5s60.334 51.167 98.001 67.5s78.5 24.5 122.5 24.5c43.333 0 83.666 -8.16699 120.999 -24.5s69.833 -38.833 97.5 -67.5s49.334 -62.167 65.001 -100.5s23.5 -79.833 23.5 -124.5c0 -46 -7.83301 -88.5 -23.5 -127.5
s-37.334 -72.833 -65.001 -101.5s-60.167 -51.167 -97.5 -67.5s-77.666 -24.5 -120.999 -24.5c-44 0 -84.833 8.16699 -122.5 24.5s-70.334 38.833 -98.001 67.5s-49.334 62.5 -65.001 101.5s-23.5 81.5 -23.5 127.5zM535 285c-4.66699 -30 -17.833 -54.501 -39.5 -73.501
s-49.167 -28.5 -82.5 -28.5c-24 0 -45.5 4.83301 -64.5 14.5s-35.167 22.5 -48.5 38.5s-23.5 34.667 -30.5 56s-10.5 43.666 -10.5 66.999c0 24 3.33301 46.333 10 67s16.334 38.834 29.001 54.501s28.5 27.834 47.5 36.501s40.833 13 65.5 13
c33.333 0 61 -9.16699 83 -27.5s35.667 -41.5 41 -69.5h63c-4 24.667 -11.5 46.5 -22.5 65.5s-24.833 35 -41.5 48s-35.5 22.667 -56.5 29s-43.5 9.5 -67.5 9.5c-34 0 -64.667 -5.66699 -92 -17s-50.333 -27 -69 -47s-33 -44 -43 -72s-15 -58.667 -15 -92
c0 -32.667 5.16699 -63 15.5 -91s25.166 -52.167 44.499 -72.5s42.666 -36.333 69.999 -48s58 -17.5 92 -17.5c46 0 85.833 14 119.5 42s55.834 66.333 66.501 115h-64z" />
    <glyph glyph-name="Scedilla" unicode="&#xaa;" horiz-adv-x="648" 
d="M581 505c-1.33301 39.333 -9 73.166 -23 101.499s-32.667 51.833 -56 70.5s-50.666 32.334 -81.999 41.001s-65.333 13 -102 13c-32.667 0 -64.5 -4.16699 -95.5 -12.5s-58.667 -21 -83 -38s-43.833 -38.667 -58.5 -65s-22 -57.5 -22 -93.5
c0 -32.667 6.5 -59.667 19.5 -81s30.333 -39 52 -53s46.167 -25.167 73.5 -33.5s55.333 -15.5 84 -21.5s56.667 -12.167 84 -18.5s51.666 -14.333 72.999 -24s38.5 -22.167 51.5 -37.5s19.5 -35.333 19.5 -60c0 -26 -5.33301 -47.333 -16 -64s-24.667 -29.834 -42 -39.501
s-36.833 -16.5 -58.5 -20.5s-43.167 -6 -64.5 -6c-27.333 0 -53.5 3.33301 -78.5 10s-47 17 -66 31s-34.333 31.833 -46 53.5s-17.5 47.5 -17.5 77.5h-90c0 -40.667 6.83301 -76.167 20.5 -106.5s32.5 -55.833 56.5 -76.5s52.167 -36.5 84.5 -47.5
s67.166 -17.5 104.499 -19.5l-49 -63l17 -28c7.33301 2.66699 14 4.66699 20 6s13 2 21 2c13.333 0 24.5 -2.83301 33.5 -8.5s13.5 -13.167 13.5 -22.5c0 -6 -2 -10.833 -6 -14.5s-9 -6.83398 -15 -9.50098s-12.667 -4.5 -20 -5.5s-14.333 -1.5 -21 -1.5
c-10.667 0 -21.5 1.33301 -32.5 4s-20.5 5.66699 -28.5 9l-18 -44c15.333 -5.33301 30.5 -9.83301 45.5 -13.5s30.5 -5.5 46.5 -5.5c14 0 28.333 1.5 43 4.5s28 8 40 15s21.833 16.167 29.5 27.5s11.5 25.333 11.5 42c0 12 -2.33301 22.667 -7 32s-11 17 -19 23
s-17 10.5 -27 13.5s-20.333 4.5 -31 4.5c-15.333 0 -26.333 -2.33301 -33 -7l-2 2l29 37c32 0.666992 63.833 5.16699 95.5 13.5s60.167 21.166 85.5 38.499s46 39.166 62 65.499s24 57.833 24 94.5c0 34.667 -6.5 63.834 -19.5 87.501s-30.167 43.167 -51.5 58.5
s-45.666 27.5 -72.999 36.5s-55.333 16.833 -84 23.5s-56.667 12.834 -84 18.501s-51.833 12.834 -73.5 21.501s-39 19.834 -52 33.501s-19.5 31.5 -19.5 53.5c0 23.333 4.5 42.833 13.5 58.5s21 28.167 36 37.5s32.167 16 51.5 20s39 6 59 6
c49.333 0 89.833 -11.5 121.5 -34.5s50.167 -60.167 55.5 -111.5h90z" />
    <glyph glyph-name="Scedilla" unicode="&#xf6c1;" horiz-adv-x="648" 
d="M581 505c-1.33301 39.333 -9 73.166 -23 101.499s-32.667 51.833 -56 70.5s-50.666 32.334 -81.999 41.001s-65.333 13 -102 13c-32.667 0 -64.5 -4.16699 -95.5 -12.5s-58.667 -21 -83 -38s-43.833 -38.667 -58.5 -65s-22 -57.5 -22 -93.5
c0 -32.667 6.5 -59.667 19.5 -81s30.333 -39 52 -53s46.167 -25.167 73.5 -33.5s55.333 -15.5 84 -21.5s56.667 -12.167 84 -18.5s51.666 -14.333 72.999 -24s38.5 -22.167 51.5 -37.5s19.5 -35.333 19.5 -60c0 -26 -5.33301 -47.333 -16 -64s-24.667 -29.834 -42 -39.501
s-36.833 -16.5 -58.5 -20.5s-43.167 -6 -64.5 -6c-27.333 0 -53.5 3.33301 -78.5 10s-47 17 -66 31s-34.333 31.833 -46 53.5s-17.5 47.5 -17.5 77.5h-90c0 -40.667 6.83301 -76.167 20.5 -106.5s32.5 -55.833 56.5 -76.5s52.167 -36.5 84.5 -47.5
s67.166 -17.5 104.499 -19.5l-49 -63l17 -28c7.33301 2.66699 14 4.66699 20 6s13 2 21 2c13.333 0 24.5 -2.83301 33.5 -8.5s13.5 -13.167 13.5 -22.5c0 -6 -2 -10.833 -6 -14.5s-9 -6.83398 -15 -9.50098s-12.667 -4.5 -20 -5.5s-14.333 -1.5 -21 -1.5
c-10.667 0 -21.5 1.33301 -32.5 4s-20.5 5.66699 -28.5 9l-18 -44c15.333 -5.33301 30.5 -9.83301 45.5 -13.5s30.5 -5.5 46.5 -5.5c14 0 28.333 1.5 43 4.5s28 8 40 15s21.833 16.167 29.5 27.5s11.5 25.333 11.5 42c0 12 -2.33301 22.667 -7 32s-11 17 -19 23
s-17 10.5 -27 13.5s-20.333 4.5 -31 4.5c-15.333 0 -26.333 -2.33301 -33 -7l-2 2l29 37c32 0.666992 63.833 5.16699 95.5 13.5s60.167 21.166 85.5 38.499s46 39.166 62 65.499s24 57.833 24 94.5c0 34.667 -6.5 63.834 -19.5 87.501s-30.167 43.167 -51.5 58.5
s-45.666 27.5 -72.999 36.5s-55.333 16.833 -84 23.5s-56.667 12.834 -84 18.501s-51.833 12.834 -73.5 21.501s-39 19.834 -52 33.501s-19.5 31.5 -19.5 53.5c0 23.333 4.5 42.833 13.5 58.5s21 28.167 36 37.5s32.167 16 51.5 20s39 6 59 6
c49.333 0 89.833 -11.5 121.5 -34.5s50.167 -60.167 55.5 -111.5h90z" />
    <glyph glyph-name="Scedilla" unicode="&#x15e;" horiz-adv-x="648" 
d="M581 505c-1.33301 39.333 -9 73.166 -23 101.499s-32.667 51.833 -56 70.5s-50.666 32.334 -81.999 41.001s-65.333 13 -102 13c-32.667 0 -64.5 -4.16699 -95.5 -12.5s-58.667 -21 -83 -38s-43.833 -38.667 -58.5 -65s-22 -57.5 -22 -93.5
c0 -32.667 6.5 -59.667 19.5 -81s30.333 -39 52 -53s46.167 -25.167 73.5 -33.5s55.333 -15.5 84 -21.5s56.667 -12.167 84 -18.5s51.666 -14.333 72.999 -24s38.5 -22.167 51.5 -37.5s19.5 -35.333 19.5 -60c0 -26 -5.33301 -47.333 -16 -64s-24.667 -29.834 -42 -39.501
s-36.833 -16.5 -58.5 -20.5s-43.167 -6 -64.5 -6c-27.333 0 -53.5 3.33301 -78.5 10s-47 17 -66 31s-34.333 31.833 -46 53.5s-17.5 47.5 -17.5 77.5h-90c0 -40.667 6.83301 -76.167 20.5 -106.5s32.5 -55.833 56.5 -76.5s52.167 -36.5 84.5 -47.5
s67.166 -17.5 104.499 -19.5l-49 -63l17 -28c7.33301 2.66699 14 4.66699 20 6s13 2 21 2c13.333 0 24.5 -2.83301 33.5 -8.5s13.5 -13.167 13.5 -22.5c0 -6 -2 -10.833 -6 -14.5s-9 -6.83398 -15 -9.50098s-12.667 -4.5 -20 -5.5s-14.333 -1.5 -21 -1.5
c-10.667 0 -21.5 1.33301 -32.5 4s-20.5 5.66699 -28.5 9l-18 -44c15.333 -5.33301 30.5 -9.83301 45.5 -13.5s30.5 -5.5 46.5 -5.5c14 0 28.333 1.5 43 4.5s28 8 40 15s21.833 16.167 29.5 27.5s11.5 25.333 11.5 42c0 12 -2.33301 22.667 -7 32s-11 17 -19 23
s-17 10.5 -27 13.5s-20.333 4.5 -31 4.5c-15.333 0 -26.333 -2.33301 -33 -7l-2 2l29 37c32 0.666992 63.833 5.16699 95.5 13.5s60.167 21.166 85.5 38.499s46 39.166 62 65.499s24 57.833 24 94.5c0 34.667 -6.5 63.834 -19.5 87.501s-30.167 43.167 -51.5 58.5
s-45.666 27.5 -72.999 36.5s-55.333 16.833 -84 23.5s-56.667 12.834 -84 18.501s-51.833 12.834 -73.5 21.501s-39 19.834 -52 33.501s-19.5 31.5 -19.5 53.5c0 23.333 4.5 42.833 13.5 58.5s21 28.167 36 37.5s32.167 16 51.5 20s39 6 59 6
c49.333 0 89.833 -11.5 121.5 -34.5s50.167 -60.167 55.5 -111.5h90z" />
    <glyph glyph-name="guillemotleft" unicode="&#xab;" horiz-adv-x="463" 
d="M398 114v86l-100 78l100 78v86l-152 -120v-88zM202 114v86l-100 78l100 78v86l-152 -120v-88z" />
    <glyph glyph-name="registered" unicode="&#xae;" horiz-adv-x="800" 
d="M212 545c0 -26.667 5 -51.5 15 -74.5s23.667 -42.833 41 -59.5s37.333 -29.834 60 -39.501s47 -14.5 73 -14.5c25.333 0 49.333 4.83301 72 14.5s42.5 22.834 59.5 39.501s30.5 36.5 40.5 59.5s15 47.833 15 74.5s-5 51.334 -15 74.001s-23.5 42.334 -40.5 59.001
s-36.833 29.667 -59.5 39s-46.667 14 -72 14c-26 0 -50.333 -4.66699 -73 -14s-42.667 -22.333 -60 -39s-31 -36.334 -41 -59.001s-15 -47.334 -15 -74.001zM246 545c0 22.667 4 43.667 12 63s18.833 36.166 32.5 50.499s30 25.5 49 33.5s39.5 12 61.5 12
c21.333 0 41.333 -4 60 -12s34.834 -19.167 48.501 -33.5s24.5 -31.166 32.5 -50.499s12 -40.333 12 -63s-4 -43.834 -12 -63.501s-18.833 -36.667 -32.5 -51s-29.834 -25.5 -48.501 -33.5s-38.667 -12 -60 -12c-22 0 -42.5 4 -61.5 12s-35.333 19.167 -49 33.5
s-24.5 31.333 -32.5 51s-12 40.834 -12 63.501zM328 435l34 0.00195312v94h36l59 -94h37l-63 97c16.667 1.33301 30.5 6.66602 41.5 15.999s16.5 23.666 16.5 42.999c0 42 -25.667 63 -77 63h-84v-219zM362 626.002h45.001c11.333 0 22.166 -1.83301 32.499 -5.5
s15.5 -12.834 15.5 -27.501c0 -17.333 -5.83301 -27.666 -17.5 -30.999s-25.167 -5 -40.5 -5h-35v69z" />
    <glyph glyph-name="Zdotaccent" unicode="&#xaf;" horiz-adv-x="611" 
d="M22 0h568v80h-457l445 554v80h-522v-80h411l-445 -554v-80zM361 891h-90v-104h90v104z" />
    <glyph glyph-name="Zdotaccent" unicode="&#x17b;" horiz-adv-x="611" 
d="M22 0h568v80h-457l445 554v80h-522v-80h411l-445 -554v-80zM361 891h-90v-104h90v104z" />
    <glyph glyph-name="degree" unicode="&#xb0;" horiz-adv-x="400" 
d="M56 565c0 -20 3.66699 -38.833 11 -56.5s17.5 -33 30.5 -46s28.333 -23.167 46 -30.5s36.5 -11 56.5 -11s38.667 3.66699 56 11s32.5 17.5 45.5 30.5s23.333 28.333 31 46s11.5 36.5 11.5 56.5s-3.83301 38.667 -11.5 56s-18 32.5 -31 45.5s-28.167 23.333 -45.5 31
s-36 11.5 -56 11.5s-38.833 -3.83301 -56.5 -11.5s-33 -18 -46 -31s-23.167 -28.167 -30.5 -45.5s-11 -36 -11 -56zM106 565c0 12 2.16699 23.5 6.5 34.5s10.5 21 18.5 30s17.833 16.167 29.5 21.5s24.834 8 39.501 8s27.834 -2.66699 39.501 -8s21.5 -12.5 29.5 -21.5
s14.167 -19 18.5 -30s6.5 -22.5 6.5 -34.5s-2.16699 -23.5 -6.5 -34.5s-10.5 -21 -18.5 -30s-17.833 -16.167 -29.5 -21.5s-24.834 -8 -39.501 -8s-27.834 2.66699 -39.501 8s-21.5 12.5 -29.5 21.5s-14.167 19 -18.5 30s-6.5 22.5 -6.5 34.5z" />
    <glyph glyph-name="plusminus" unicode="&#xb1;" horiz-adv-x="600" 
d="M48 271h218v-167h68v167h218v68h-218v166h-68v-166h-218v-68zM48 0h504v68h-504v-68z" />
    <glyph glyph-name="ogonek" unicode="&#xb2;" horiz-adv-x="222" 
d="M135 3c-25.333 -15.333 -45.499 -29.8359 -60.499 -43.5029s-26.5 -26.334 -34.5 -38.001s-13.167 -21.667 -15.5 -30s-3.5 -14.833 -3.5 -19.5c0 -20 3.66699 -35.5 11 -46.5s16 -19.167 26 -24.5s20.167 -8.5 30.5 -9.5s18.5 -1.5 24.5 -1.5
c20.667 0 40.5 4.5 59.5 13.5s35.167 25.167 48.5 48.5l-32 18c-7.33301 -9.33301 -15.666 -16.666 -24.999 -21.999s-21.666 -8 -36.999 -8c-13.333 0 -23 4.33301 -29 13s-9 18.334 -9 29.001c0 6.66699 1.16699 14.167 3.5 22.5s6.66602 17.333 12.999 27
s15.166 20.334 26.499 32.001s25.666 24.834 42.999 39.501h-40z" />
    <glyph glyph-name="ogonek" unicode="&#x2db;" horiz-adv-x="222" 
d="M135 3c-25.333 -15.333 -45.499 -29.8359 -60.499 -43.5029s-26.5 -26.334 -34.5 -38.001s-13.167 -21.667 -15.5 -30s-3.5 -14.833 -3.5 -19.5c0 -20 3.66699 -35.5 11 -46.5s16 -19.167 26 -24.5s20.167 -8.5 30.5 -9.5s18.5 -1.5 24.5 -1.5
c20.667 0 40.5 4.5 59.5 13.5s35.167 25.167 48.5 48.5l-32 18c-7.33301 -9.33301 -15.666 -16.666 -24.999 -21.999s-21.666 -8 -36.999 -8c-13.333 0 -23 4.33301 -29 13s-9 18.334 -9 29.001c0 6.66699 1.16699 14.167 3.5 22.5s6.66602 17.333 12.999 27
s15.166 20.334 26.499 32.001s25.666 24.834 42.999 39.501h-40z" />
    <glyph glyph-name="lslash" unicode="&#xb3;" horiz-adv-x="222" 
d="M69 0h85v389l70 56v71l-70 -56v254h-85v-321l-70 -56v-71l70 55v-321z" />
    <glyph glyph-name="lslash" unicode="&#x142;" horiz-adv-x="222" 
d="M69 0h85v389l70 56v71l-70 -56v254h-85v-321l-70 -56v-71l70 55v-321z" />
    <glyph glyph-name="acute" unicode="&#xb4;" horiz-adv-x="222" 
d="M50 588h64l131 143h-109z" />
    <glyph glyph-name="mu" unicode="&#xb5;" 
d="M492 517l-84.9971 0.000976562v-292c0 -23.333 -3.16699 -44.833 -9.5 -64.5s-15.833 -36.834 -28.5 -51.501s-28.5 -26 -47.5 -34s-41.5 -12 -67.5 -12c-32.667 0 -58.334 9.33301 -77.001 28s-28 44 -28 76v350h-85v-715h85v224h2c8.66699 -13.333 20.667 -23 36 -29
s33.666 -9 54.999 -9c37.333 0 70.166 7.66699 98.499 23s51.5 39 69.5 71h2v-82h80v517z" />
    <glyph glyph-name="mu" unicode="&#x3bc;" 
d="M492 517l-84.9971 0.000976562v-292c0 -23.333 -3.16699 -44.833 -9.5 -64.5s-15.833 -36.834 -28.5 -51.501s-28.5 -26 -47.5 -34s-41.5 -12 -67.5 -12c-32.667 0 -58.334 9.33301 -77.001 28s-28 44 -28 76v350h-85v-715h85v224h2c8.66699 -13.333 20.667 -23 36 -29
s33.666 -9 54.999 -9c37.333 0 70.166 7.66699 98.499 23s51.5 39 69.5 71h2v-82h80v517z" />
    <glyph glyph-name="paragraph" unicode="&#xb6;" horiz-adv-x="600" 
d="M515 714l-238.999 0.00195312c-70.667 0 -126.334 -18 -167.001 -54s-61 -86.667 -61 -152c0 -26 5.16699 -50.333 15.5 -73s24.666 -42.334 42.999 -59.001s40.333 -29.834 66 -39.501s53.834 -14.5 84.501 -14.5v-477h68v814h122v-814h68v869z" />
    <glyph glyph-name="periodcentered" unicode="&#xb7;" horiz-adv-x="278" 
d="M75 311c0 -17.333 6.49902 -32.333 19.499 -45s28.167 -19 45.5 -19c16.667 0 31.334 6.66699 44.001 20s19 28 19 44c0 17.333 -6.33301 32.333 -19 45s-27.667 19 -45 19s-32.333 -6.33301 -45 -19s-19 -27.667 -19 -45z" />
    <glyph glyph-name="periodcentered" unicode="&#x22c5;" horiz-adv-x="278" 
d="M75 311c0 -17.333 6.49902 -32.333 19.499 -45s28.167 -19 45.5 -19c16.667 0 31.334 6.66699 44.001 20s19 28 19 44c0 17.333 -6.33301 32.333 -19 45s-27.667 19 -45 19s-32.333 -6.33301 -45 -19s-19 -27.667 -19 -45z" />
    <glyph glyph-name="cedilla" unicode="&#xb8;" horiz-adv-x="222" 
d="M5 -191c15.333 -5.33301 30.5 -9.83203 45.5 -13.499s30.5 -5.5 46.5 -5.5c14 0 28.333 1.5 43 4.5s28 8 40 15s21.833 16.167 29.5 27.5s11.5 25.333 11.5 42c0 12 -2.33301 22.667 -7 32s-11 17 -19 23s-17 10.5 -27 13.5s-20.333 4.5 -31 4.5
c-15.333 0 -26.333 -2.33301 -33 -7l-2 2l42 54h-42l-61 -79l17 -28c7.33301 2.66699 14 4.66699 20 6s13 2 21 2c13.333 0 24.5 -2.83301 33.5 -8.5s13.5 -13.167 13.5 -22.5c0 -6 -2 -10.833 -6 -14.5s-9 -6.83398 -15 -9.50098s-12.667 -4.5 -20 -5.5
s-14.333 -1.5 -21 -1.5c-10.667 0 -21.5 1.33301 -32.5 4s-20.5 5.66699 -28.5 9z" />
    <glyph glyph-name="aogonek" unicode="&#xb9;" horiz-adv-x="537" 
d="M384 180c0 -12 -3 -24.8301 -9 -38.4971s-15.333 -26.334 -28 -38.001s-29 -21.334 -49 -29.001s-44 -11.5 -72 -11.5c-13.333 0 -26 1.33301 -38 4s-22.5 7 -31.5 13s-16.333 13.833 -22 23.5s-8.5 21.5 -8.5 35.5c0 16 2.83301 29.333 8.5 40s13.167 19.5 22.5 26.5
s20.333 12.5 33 16.5s26 7.33301 40 10s28.5 4.83398 43.5 6.50098s29.167 3.66699 42.5 6s26 5.16602 38 8.49902s22 7.66602 30 12.999v-86zM469 387.003c0 30 -5.6709 54.3262 -17.0039 72.9932s-26.333 33.167 -45 43.5s-39.5 17.166 -62.5 20.499s-46.167 5 -69.5 5
c-28.667 0 -56 -3 -82 -9s-49 -15.833 -69 -29.5s-36 -31.5 -48 -53.5s-18.667 -49 -20 -81h85c2 38 15 63.833 39 77.5s54 20.5 90 20.5c13.333 0 26.833 -1 40.5 -3s26 -6 37 -12s19.833 -14.667 26.5 -26s10 -26.333 10 -45c0 -16 -4.66699 -28.167 -14 -36.5
s-21.833 -14.666 -37.5 -18.999s-34 -7.66602 -55 -9.99902s-43.167 -5.83301 -66.5 -10.5c-22 -4 -43.5 -9.16699 -64.5 -15.5s-39.667 -15.166 -56 -26.499s-29.5 -26.333 -39.5 -45s-15 -42.667 -15 -72c0 -26 4.5 -48.167 13.5 -66.5s21.167 -33.333 36.5 -45
s33.5 -20.167 54.5 -25.5s43.167 -8 66.5 -8c36 0 69.5 6.33301 100.5 19s58.167 33 81.5 61c0 -25.333 5 -44 15 -56s24.333 -19.667 43 -23c-20.667 -13.333 -37.167 -26.166 -49.5 -38.499s-21.666 -23.666 -27.999 -33.999s-10.5 -19.333 -12.5 -27s-3 -13.5 -3 -17.5
c0 -20 3.66699 -35.5 11 -46.5s16 -19.167 26 -24.5s20.167 -8.5 30.5 -9.5s18.5 -1.5 24.5 -1.5c20.667 0 40.5 4.5 59.5 13.5s35.167 25.167 48.5 48.5l-32 18c-7.33301 -9.33301 -15.666 -16.666 -24.999 -21.999s-21.666 -8 -36.999 -8c-13.333 0 -23 4.33301 -29 13
s-9 18.334 -9 29.001c0 13.333 4.66699 28.5 14 45.5s29.333 38.5 60 64.5c5.33301 0.666992 10 1.83398 14 3.50098s8 3.16699 12 4.5v68c-9.33301 -3.33301 -18 -5 -26 -5c-13.333 0 -21.166 4.66699 -23.499 14s-3.5 24 -3.5 44v266z" />
    <glyph glyph-name="aogonek" unicode="&#x105;" horiz-adv-x="537" 
d="M384 180c0 -12 -3 -24.8301 -9 -38.4971s-15.333 -26.334 -28 -38.001s-29 -21.334 -49 -29.001s-44 -11.5 -72 -11.5c-13.333 0 -26 1.33301 -38 4s-22.5 7 -31.5 13s-16.333 13.833 -22 23.5s-8.5 21.5 -8.5 35.5c0 16 2.83301 29.333 8.5 40s13.167 19.5 22.5 26.5
s20.333 12.5 33 16.5s26 7.33301 40 10s28.5 4.83398 43.5 6.50098s29.167 3.66699 42.5 6s26 5.16602 38 8.49902s22 7.66602 30 12.999v-86zM469 387.003c0 30 -5.6709 54.3262 -17.0039 72.9932s-26.333 33.167 -45 43.5s-39.5 17.166 -62.5 20.499s-46.167 5 -69.5 5
c-28.667 0 -56 -3 -82 -9s-49 -15.833 -69 -29.5s-36 -31.5 -48 -53.5s-18.667 -49 -20 -81h85c2 38 15 63.833 39 77.5s54 20.5 90 20.5c13.333 0 26.833 -1 40.5 -3s26 -6 37 -12s19.833 -14.667 26.5 -26s10 -26.333 10 -45c0 -16 -4.66699 -28.167 -14 -36.5
s-21.833 -14.666 -37.5 -18.999s-34 -7.66602 -55 -9.99902s-43.167 -5.83301 -66.5 -10.5c-22 -4 -43.5 -9.16699 -64.5 -15.5s-39.667 -15.166 -56 -26.499s-29.5 -26.333 -39.5 -45s-15 -42.667 -15 -72c0 -26 4.5 -48.167 13.5 -66.5s21.167 -33.333 36.5 -45
s33.5 -20.167 54.5 -25.5s43.167 -8 66.5 -8c36 0 69.5 6.33301 100.5 19s58.167 33 81.5 61c0 -25.333 5 -44 15 -56s24.333 -19.667 43 -23c-20.667 -13.333 -37.167 -26.166 -49.5 -38.499s-21.666 -23.666 -27.999 -33.999s-10.5 -19.333 -12.5 -27s-3 -13.5 -3 -17.5
c0 -20 3.66699 -35.5 11 -46.5s16 -19.167 26 -24.5s20.167 -8.5 30.5 -9.5s18.5 -1.5 24.5 -1.5c20.667 0 40.5 4.5 59.5 13.5s35.167 25.167 48.5 48.5l-32 18c-7.33301 -9.33301 -15.666 -16.666 -24.999 -21.999s-21.666 -8 -36.999 -8c-13.333 0 -23 4.33301 -29 13
s-9 18.334 -9 29.001c0 13.333 4.66699 28.5 14 45.5s29.333 38.5 60 64.5c5.33301 0.666992 10 1.83398 14 3.50098s8 3.16699 12 4.5v68c-9.33301 -3.33301 -18 -5 -26 -5c-13.333 0 -21.166 4.66699 -23.499 14s-3.5 24 -3.5 44v266z" />
    <glyph glyph-name="scedilla" unicode="&#xba;" horiz-adv-x="500" 
d="M31 163c1.33301 -30 7.49902 -55.8271 18.499 -77.4941s25.5 -39.5 43.5 -53.5s38.833 -24.5 62.5 -31.5s49.167 -10.833 76.5 -11.5l-52 -67l17 -28c7.33301 2.66699 14 4.66699 20 6s13 2 21 2c13.333 0 24.5 -2.83301 33.5 -8.5s13.5 -13.167 13.5 -22.5
c0 -6 -2 -10.833 -6 -14.5s-9 -6.83398 -15 -9.50098s-12.667 -4.5 -20 -5.5s-14.333 -1.5 -21 -1.5c-10.667 0 -21.5 1.33301 -32.5 4s-20.5 5.66699 -28.5 9l-18 -44c15.333 -5.33301 30.5 -9.83301 45.5 -13.5s30.5 -5.5 46.5 -5.5c14 0 28.333 1.5 43 4.5s28 8 40 15
s21.833 16.167 29.5 27.5s11.5 25.333 11.5 42c0 12 -2.33301 22.667 -7 32s-11 17 -19 23s-17 10.5 -27 13.5s-20.333 4.5 -31 4.5c-15.333 0 -26.333 -2.33301 -33 -7l-2 2l33 42c24.667 1.33301 48.667 5.16602 72 11.499s44.166 15.833 62.499 28.5s33.166 29 44.499 49
s17 44.333 17 73c0 24.667 -4.83301 45.334 -14.5 62.001s-22.334 30.5 -38.001 41.5s-33.667 19.833 -54 26.5s-41.166 12.334 -62.499 17.001l-60 13.5c-20 4.33301 -38 9.66602 -54 15.999s-29.167 14.166 -39.5 23.499s-15.5 21.666 -15.5 36.999
c0 12.667 3.33301 23.334 10 32.001s15.334 15.5 26.001 20.5s22.5 8.5 35.5 10.5s25.833 3 38.5 3c14 0 27.833 -1.5 41.5 -4.5s26 -7.83301 37 -14.5s20.333 -15.5 28 -26.5s12.167 -24.833 13.5 -41.5h85c-2 31.333 -8.66699 57.5 -20 78.5s-26.5 37.667 -45.5 50
s-41 21 -66 26s-51.833 7.5 -80.5 7.5c-22.667 0 -45.5 -2.83301 -68.5 -8.5s-43.667 -14.334 -62 -26.001s-33.333 -26.834 -45 -45.501s-17.5 -41 -17.5 -67c0 -24.667 4.83301 -45.334 14.5 -62.001s22.5 -30.334 38.5 -41.001s34 -19.334 54 -26.001
s40.667 -12.334 62 -17.001l62.5 -13.5c20.333 -4.33301 38.333 -9.83301 54 -16.5s28.334 -15.167 38.001 -25.5s14.5 -23.833 14.5 -40.5c0 -16 -4 -29.167 -12 -39.5s-18.167 -18.166 -30.5 -23.499s-25.833 -9 -40.5 -11s-28.667 -3 -42 -3
c-17.333 0 -34.166 1.66699 -50.499 5s-31 8.83301 -44 16.5s-23.5 17.834 -31.5 30.501s-12.333 28.667 -13 48h-85z" />
    <glyph glyph-name="scedilla" unicode="&#xf6c2;" horiz-adv-x="500" 
d="M31 163c1.33301 -30 7.49902 -55.8271 18.499 -77.4941s25.5 -39.5 43.5 -53.5s38.833 -24.5 62.5 -31.5s49.167 -10.833 76.5 -11.5l-52 -67l17 -28c7.33301 2.66699 14 4.66699 20 6s13 2 21 2c13.333 0 24.5 -2.83301 33.5 -8.5s13.5 -13.167 13.5 -22.5
c0 -6 -2 -10.833 -6 -14.5s-9 -6.83398 -15 -9.50098s-12.667 -4.5 -20 -5.5s-14.333 -1.5 -21 -1.5c-10.667 0 -21.5 1.33301 -32.5 4s-20.5 5.66699 -28.5 9l-18 -44c15.333 -5.33301 30.5 -9.83301 45.5 -13.5s30.5 -5.5 46.5 -5.5c14 0 28.333 1.5 43 4.5s28 8 40 15
s21.833 16.167 29.5 27.5s11.5 25.333 11.5 42c0 12 -2.33301 22.667 -7 32s-11 17 -19 23s-17 10.5 -27 13.5s-20.333 4.5 -31 4.5c-15.333 0 -26.333 -2.33301 -33 -7l-2 2l33 42c24.667 1.33301 48.667 5.16602 72 11.499s44.166 15.833 62.499 28.5s33.166 29 44.499 49
s17 44.333 17 73c0 24.667 -4.83301 45.334 -14.5 62.001s-22.334 30.5 -38.001 41.5s-33.667 19.833 -54 26.5s-41.166 12.334 -62.499 17.001l-60 13.5c-20 4.33301 -38 9.66602 -54 15.999s-29.167 14.166 -39.5 23.499s-15.5 21.666 -15.5 36.999
c0 12.667 3.33301 23.334 10 32.001s15.334 15.5 26.001 20.5s22.5 8.5 35.5 10.5s25.833 3 38.5 3c14 0 27.833 -1.5 41.5 -4.5s26 -7.83301 37 -14.5s20.333 -15.5 28 -26.5s12.167 -24.833 13.5 -41.5h85c-2 31.333 -8.66699 57.5 -20 78.5s-26.5 37.667 -45.5 50
s-41 21 -66 26s-51.833 7.5 -80.5 7.5c-22.667 0 -45.5 -2.83301 -68.5 -8.5s-43.667 -14.334 -62 -26.001s-33.333 -26.834 -45 -45.501s-17.5 -41 -17.5 -67c0 -24.667 4.83301 -45.334 14.5 -62.001s22.5 -30.334 38.5 -41.001s34 -19.334 54 -26.001
s40.667 -12.334 62 -17.001l62.5 -13.5c20.333 -4.33301 38.333 -9.83301 54 -16.5s28.334 -15.167 38.001 -25.5s14.5 -23.833 14.5 -40.5c0 -16 -4 -29.167 -12 -39.5s-18.167 -18.166 -30.5 -23.499s-25.833 -9 -40.5 -11s-28.667 -3 -42 -3
c-17.333 0 -34.166 1.66699 -50.499 5s-31 8.83301 -44 16.5s-23.5 17.834 -31.5 30.501s-12.333 28.667 -13 48h-85z" />
    <glyph glyph-name="scedilla" unicode="&#x15f;" horiz-adv-x="500" 
d="M31 163c1.33301 -30 7.49902 -55.8271 18.499 -77.4941s25.5 -39.5 43.5 -53.5s38.833 -24.5 62.5 -31.5s49.167 -10.833 76.5 -11.5l-52 -67l17 -28c7.33301 2.66699 14 4.66699 20 6s13 2 21 2c13.333 0 24.5 -2.83301 33.5 -8.5s13.5 -13.167 13.5 -22.5
c0 -6 -2 -10.833 -6 -14.5s-9 -6.83398 -15 -9.50098s-12.667 -4.5 -20 -5.5s-14.333 -1.5 -21 -1.5c-10.667 0 -21.5 1.33301 -32.5 4s-20.5 5.66699 -28.5 9l-18 -44c15.333 -5.33301 30.5 -9.83301 45.5 -13.5s30.5 -5.5 46.5 -5.5c14 0 28.333 1.5 43 4.5s28 8 40 15
s21.833 16.167 29.5 27.5s11.5 25.333 11.5 42c0 12 -2.33301 22.667 -7 32s-11 17 -19 23s-17 10.5 -27 13.5s-20.333 4.5 -31 4.5c-15.333 0 -26.333 -2.33301 -33 -7l-2 2l33 42c24.667 1.33301 48.667 5.16602 72 11.499s44.166 15.833 62.499 28.5s33.166 29 44.499 49
s17 44.333 17 73c0 24.667 -4.83301 45.334 -14.5 62.001s-22.334 30.5 -38.001 41.5s-33.667 19.833 -54 26.5s-41.166 12.334 -62.499 17.001l-60 13.5c-20 4.33301 -38 9.66602 -54 15.999s-29.167 14.166 -39.5 23.499s-15.5 21.666 -15.5 36.999
c0 12.667 3.33301 23.334 10 32.001s15.334 15.5 26.001 20.5s22.5 8.5 35.5 10.5s25.833 3 38.5 3c14 0 27.833 -1.5 41.5 -4.5s26 -7.83301 37 -14.5s20.333 -15.5 28 -26.5s12.167 -24.833 13.5 -41.5h85c-2 31.333 -8.66699 57.5 -20 78.5s-26.5 37.667 -45.5 50
s-41 21 -66 26s-51.833 7.5 -80.5 7.5c-22.667 0 -45.5 -2.83301 -68.5 -8.5s-43.667 -14.334 -62 -26.001s-33.333 -26.834 -45 -45.501s-17.5 -41 -17.5 -67c0 -24.667 4.83301 -45.334 14.5 -62.001s22.5 -30.334 38.5 -41.001s34 -19.334 54 -26.001
s40.667 -12.334 62 -17.001l62.5 -13.5c20.333 -4.33301 38.333 -9.83301 54 -16.5s28.334 -15.167 38.001 -25.5s14.5 -23.833 14.5 -40.5c0 -16 -4 -29.167 -12 -39.5s-18.167 -18.166 -30.5 -23.499s-25.833 -9 -40.5 -11s-28.667 -3 -42 -3
c-17.333 0 -34.166 1.66699 -50.499 5s-31 8.83301 -44 16.5s-23.5 17.834 -31.5 30.501s-12.333 28.667 -13 48h-85z" />
    <glyph glyph-name="guillemotright" unicode="&#xbb;" horiz-adv-x="463" 
d="M65 442v-86l100 -78l-100 -78v-86l152 120v88zM261 442v-86l100 -78l-100 -78v-86l152 120v88z" />
    <glyph glyph-name="Lcaron" unicode="&#xbc;" 
d="M258 714l0.000976562 -96.9961h51c0 -6.66699 -0.5 -13.834 -1.5 -21.501s-3.33301 -15 -7 -22s-8.83398 -13.333 -15.501 -19s-15.667 -9.83398 -27 -12.501v-40c20 3.33301 36.167 9.16602 48.5 17.499s22 18.166 29 29.499s11.667 23.5 14 36.5s3.5 25.833 3.5 38.5
v90h-95zM78.001 0.00390625h473v80h-378v634h-95v-714z" />
    <glyph glyph-name="Lcaron" unicode="&#x13d;" 
d="M258 714l0.000976562 -96.9961h51c0 -6.66699 -0.5 -13.834 -1.5 -21.501s-3.33301 -15 -7 -22s-8.83398 -13.333 -15.501 -19s-15.667 -9.83398 -27 -12.501v-40c20 3.33301 36.167 9.16602 48.5 17.499s22 18.166 29 29.499s11.667 23.5 14 36.5s3.5 25.833 3.5 38.5
v90h-95zM78.001 0.00390625h473v80h-378v634h-95v-714z" />
    <glyph glyph-name="hungarumlaut" unicode="&#xbd;" horiz-adv-x="222" 
d="M-48 588h66l120 143h-105zM108 588h66l120 143h-105z" />
    <glyph glyph-name="hungarumlaut" unicode="&#x2dd;" horiz-adv-x="222" 
d="M-48 588h66l120 143h-105zM108 588h66l120 143h-105z" />
    <glyph glyph-name="lcaron" unicode="&#xbe;" horiz-adv-x="315" 
d="M153 0v714h-85v-714h85zM219 714l0.000976562 -96.9961h51c0 -6.66699 -0.5 -13.834 -1.5 -21.501s-3.33301 -15 -7 -22s-8.83398 -13.333 -15.501 -19s-15.667 -9.83398 -27 -12.501v-40c20 3.33301 36.167 9.16602 48.5 17.499s22 18.166 29 29.499
s11.667 23.5 14 36.5s3.5 25.833 3.5 38.5v90h-95z" />
    <glyph glyph-name="lcaron" unicode="&#x13e;" horiz-adv-x="315" 
d="M153 0v714h-85v-714h85zM219 714l0.000976562 -96.9961h51c0 -6.66699 -0.5 -13.834 -1.5 -21.501s-3.33301 -15 -7 -22s-8.83398 -13.333 -15.501 -19s-15.667 -9.83398 -27 -12.501v-40c20 3.33301 36.167 9.16602 48.5 17.499s22 18.166 29 29.499
s11.667 23.5 14 36.5s3.5 25.833 3.5 38.5v90h-95z" />
    <glyph glyph-name="zdotaccent" unicode="&#xbf;" horiz-adv-x="480" 
d="M22 0h436v75h-330l316 384v58h-402v-75h291l-311 -377v-65zM295 714h-90v-104h90v104z" />
    <glyph glyph-name="zdotaccent" unicode="&#x17c;" horiz-adv-x="480" 
d="M22 0h436v75h-330l316 384v58h-402v-75h291l-311 -377v-65zM295 714h-90v-104h90v104z" />
    <glyph glyph-name="Racute" unicode="&#xc0;" horiz-adv-x="685" 
d="M173 385v249h236c44.667 0 77 -11.5 97 -34.5s30 -52.167 30 -87.5c0 -26 -4.5 -47.167 -13.5 -63.5s-21 -29.333 -36 -39s-32.5 -16.167 -52.5 -19.5s-41 -5 -63 -5h-198zM78 0l95 0.00195312v305h232c22.667 0 41.167 -3.5 55.5 -10.5s25.833 -16.333 34.5 -28
s15 -25.334 19 -41.001s7.33301 -32.167 10 -49.5c3.33301 -24.667 5.33301 -46.167 6 -64.5s1.5 -34.5 2.5 -48.5s2.5 -26 4.5 -36s6.33301 -19 13 -27h106c-10 12 -17.5 25.833 -22.5 41.5s-8.66699 32 -11 49s-4 34.667 -5 53s-2.16699 36.166 -3.5 53.499
c-2 17.333 -4.66699 34 -8 50s-9 30.5 -17 43.5s-18.5 24.167 -31.5 33.5s-29.833 16 -50.5 20v2c43.333 12 74.833 34.333 94.5 67s29.5 70.667 29.5 114c0 57.333 -19.333 102.833 -58 136.5s-91.667 50.5 -159 50.5h-336v-714zM282 765.002h62l133 143h-111z" />
    <glyph glyph-name="Racute" unicode="&#x154;" horiz-adv-x="685" 
d="M173 385v249h236c44.667 0 77 -11.5 97 -34.5s30 -52.167 30 -87.5c0 -26 -4.5 -47.167 -13.5 -63.5s-21 -29.333 -36 -39s-32.5 -16.167 -52.5 -19.5s-41 -5 -63 -5h-198zM78 0l95 0.00195312v305h232c22.667 0 41.167 -3.5 55.5 -10.5s25.833 -16.333 34.5 -28
s15 -25.334 19 -41.001s7.33301 -32.167 10 -49.5c3.33301 -24.667 5.33301 -46.167 6 -64.5s1.5 -34.5 2.5 -48.5s2.5 -26 4.5 -36s6.33301 -19 13 -27h106c-10 12 -17.5 25.833 -22.5 41.5s-8.66699 32 -11 49s-4 34.667 -5 53s-2.16699 36.166 -3.5 53.499
c-2 17.333 -4.66699 34 -8 50s-9 30.5 -17 43.5s-18.5 24.167 -31.5 33.5s-29.833 16 -50.5 20v2c43.333 12 74.833 34.333 94.5 67s29.5 70.667 29.5 114c0 57.333 -19.333 102.833 -58 136.5s-91.667 50.5 -159 50.5h-336v-714zM282 765.002h62l133 143h-111z" />
    <glyph glyph-name="Aacute" unicode="&#xc1;" horiz-adv-x="648" 
d="M-7 0h98l80 215h302l78 -215h105l-279 714h-105zM443 295h-242l121 333h2zM263 765h62l133 143h-111z" />
    <glyph glyph-name="Acircumflex" unicode="&#xc2;" horiz-adv-x="648" 
d="M174 765h75l72 98l68 -98h85l-103 143h-95zM-7 0h98l80 215h302l78 -215h105l-279 714h-105zM443 295h-242l121 333h2z" />
    <glyph glyph-name="Abreve" unicode="&#xc3;" horiz-adv-x="648" 
d="M-7 0h98l80 215h302l78 -215h105l-279 714h-105zM443 295h-242l121 333h2zM168 908c6.66699 -47.333 22.667 -83 48 -107s61.333 -36 108 -36s82.667 12 108 36s41.333 59.667 48 107h-51c-7.33301 -28 -20.333 -49.667 -39 -65s-40.667 -23 -66 -23
s-47.5 7.66699 -66.5 23s-32.167 37 -39.5 65h-50z" />
    <glyph glyph-name="Abreve" unicode="&#x102;" horiz-adv-x="648" 
d="M-7 0h98l80 215h302l78 -215h105l-279 714h-105zM443 295h-242l121 333h2zM168 908c6.66699 -47.333 22.667 -83 48 -107s61.333 -36 108 -36s82.667 12 108 36s41.333 59.667 48 107h-51c-7.33301 -28 -20.333 -49.667 -39 -65s-40.667 -23 -66 -23
s-47.5 7.66699 -66.5 23s-32.167 37 -39.5 65h-50z" />
    <glyph glyph-name="Adieresis" unicode="&#xc4;" horiz-adv-x="648" 
d="M-7 0h98l80 215h302l78 -215h105l-279 714h-105zM443 295h-242l121 333h2zM373 787h90v104h-90v-104zM185 787h90v104h-90v-104z" />
    <glyph glyph-name="Lacute" unicode="&#xc5;" 
d="M78 0h473v80h-378v634h-95v-714zM97 765h62l133 143h-111z" />
    <glyph glyph-name="Lacute" unicode="&#x139;" 
d="M78 0h473v80h-378v634h-95v-714zM97 765h62l133 143h-111z" />
    <glyph glyph-name="Cacute" unicode="&#xc6;" horiz-adv-x="722" 
d="M675 499c-5.33301 38 -16.665 71.4951 -33.998 100.495s-39 53.167 -65 72.5s-55.667 34 -89 44s-68.666 15 -105.999 15c-55.333 0 -104 -9.83301 -146 -29.5s-77.167 -46.5 -105.5 -80.5s-49.833 -73.833 -64.5 -119.5s-22 -94.5 -22 -146.5
s6.83301 -100.667 20.5 -146s34.167 -84.666 61.5 -117.999s61.666 -59.666 102.999 -78.999s89.666 -29 144.999 -29c90.667 0 162.5 25.333 215.5 76s84.167 120.667 93.5 210h-95c-2 -29.333 -8 -56.666 -18 -81.999s-23.833 -47.166 -41.5 -65.499
s-38.667 -32.666 -63 -42.999s-52.166 -15.5 -83.499 -15.5c-42.667 0 -79.334 8 -110.001 24s-55.834 37.5 -75.501 64.5s-34.167 58.667 -43.5 95s-14 74.833 -14 115.5c0 37.333 4.66699 73.333 14 108s23.833 65.5 43.5 92.5s44.667 48.5 75 64.5s66.833 24 109.5 24
c24.667 0 48 -3.16699 70 -9.5s41.833 -15.833 59.5 -28.5s32.5 -28.5 44.5 -47.5s20.667 -41.167 26 -66.5h95zM300.001 764.995h62l133 143h-111z" />
    <glyph glyph-name="Cacute" unicode="&#x106;" horiz-adv-x="722" 
d="M675 499c-5.33301 38 -16.665 71.4951 -33.998 100.495s-39 53.167 -65 72.5s-55.667 34 -89 44s-68.666 15 -105.999 15c-55.333 0 -104 -9.83301 -146 -29.5s-77.167 -46.5 -105.5 -80.5s-49.833 -73.833 -64.5 -119.5s-22 -94.5 -22 -146.5
s6.83301 -100.667 20.5 -146s34.167 -84.666 61.5 -117.999s61.666 -59.666 102.999 -78.999s89.666 -29 144.999 -29c90.667 0 162.5 25.333 215.5 76s84.167 120.667 93.5 210h-95c-2 -29.333 -8 -56.666 -18 -81.999s-23.833 -47.166 -41.5 -65.499
s-38.667 -32.666 -63 -42.999s-52.166 -15.5 -83.499 -15.5c-42.667 0 -79.334 8 -110.001 24s-55.834 37.5 -75.501 64.5s-34.167 58.667 -43.5 95s-14 74.833 -14 115.5c0 37.333 4.66699 73.333 14 108s23.833 65.5 43.5 92.5s44.667 48.5 75 64.5s66.833 24 109.5 24
c24.667 0 48 -3.16699 70 -9.5s41.833 -15.833 59.5 -28.5s32.5 -28.5 44.5 -47.5s20.667 -41.167 26 -66.5h95zM300.001 764.995h62l133 143h-111z" />
    <glyph glyph-name="Ccedilla" unicode="&#xc7;" horiz-adv-x="722" 
d="M675 499c-5.33301 38 -16.665 71.498 -33.998 100.498s-39 53.167 -65 72.5s-55.667 34 -89 44s-68.666 15 -105.999 15c-55.333 0 -104 -9.83301 -146 -29.5s-77.167 -46.5 -105.5 -80.5s-49.833 -73.833 -64.5 -119.5s-22 -94.5 -22 -146.5
c0 -49.333 6.16699 -95.666 18.5 -138.999s30.666 -81.5 54.999 -114.5s55.166 -59.667 92.499 -80s81 -32.5 131 -36.5l-49 -63l17 -28c7.33301 2.66699 14 4.66699 20 6s13 2 21 2c13.333 0 24.5 -2.83301 33.5 -8.5s13.5 -13.167 13.5 -22.5c0 -6 -2 -10.833 -6 -14.5
s-9 -6.83398 -15 -9.50098s-12.667 -4.5 -20 -5.5s-14.333 -1.5 -21 -1.5c-10.667 0 -21.5 1.33301 -32.5 4s-20.5 5.66699 -28.5 9l-18 -44c15.333 -5.33301 30.5 -9.83301 45.5 -13.5s30.5 -5.5 46.5 -5.5c14 0 28.333 1.5 43 4.5s28 8 40 15s21.833 16.167 29.5 27.5
s11.5 25.333 11.5 42c0 12 -2.33301 22.667 -7 32s-11 17 -19 23s-17 10.5 -27 13.5s-20.333 4.5 -31 4.5c-15.333 0 -26.333 -2.33301 -33 -7l-2 2l29 37c88 1.33301 157.833 27.166 209.5 77.499s82.167 119.5 91.5 207.5h-95c-2 -29.333 -8 -56.666 -18 -81.999
s-23.833 -47.166 -41.5 -65.499s-38.667 -32.666 -63 -42.999s-52.166 -15.5 -83.499 -15.5c-42.667 0 -79.334 8 -110.001 24s-55.834 37.5 -75.501 64.5s-34.167 58.667 -43.5 95s-14 74.833 -14 115.5c0 37.333 4.66699 73.333 14 108s23.833 65.5 43.5 92.5
s44.667 48.5 75 64.5s66.833 24 109.5 24c24.667 0 48 -3.16699 70 -9.5s41.833 -15.833 59.5 -28.5s32.5 -28.5 44.5 -47.5s20.667 -41.167 26 -66.5h95z" />
    <glyph glyph-name="Ccaron" unicode="&#xc8;" horiz-adv-x="722" 
d="M675 499c-5.33301 38 -16.665 71.4951 -33.998 100.495s-39 53.167 -65 72.5s-55.667 34 -89 44s-68.666 15 -105.999 15c-55.333 0 -104 -9.83301 -146 -29.5s-77.167 -46.5 -105.5 -80.5s-49.833 -73.833 -64.5 -119.5s-22 -94.5 -22 -146.5
s6.83301 -100.667 20.5 -146s34.167 -84.666 61.5 -117.999s61.666 -59.666 102.999 -78.999s89.666 -29 144.999 -29c90.667 0 162.5 25.333 215.5 76s84.167 120.667 93.5 210h-95c-2 -29.333 -8 -56.666 -18 -81.999s-23.833 -47.166 -41.5 -65.499
s-38.667 -32.666 -63 -42.999s-52.166 -15.5 -83.499 -15.5c-42.667 0 -79.334 8 -110.001 24s-55.834 37.5 -75.501 64.5s-34.167 58.667 -43.5 95s-14 74.833 -14 115.5c0 37.333 4.66699 73.333 14 108s23.833 65.5 43.5 92.5s44.667 48.5 75 64.5s66.833 24 109.5 24
c24.667 0 48 -3.16699 70 -9.5s41.833 -15.833 59.5 -28.5s32.5 -28.5 44.5 -47.5s20.667 -41.167 26 -66.5h95zM511.001 907.995h-75l-72 -98l-68 98h-85l103 -143h95z" />
    <glyph glyph-name="Ccaron" unicode="&#x10c;" horiz-adv-x="722" 
d="M675 499c-5.33301 38 -16.665 71.4951 -33.998 100.495s-39 53.167 -65 72.5s-55.667 34 -89 44s-68.666 15 -105.999 15c-55.333 0 -104 -9.83301 -146 -29.5s-77.167 -46.5 -105.5 -80.5s-49.833 -73.833 -64.5 -119.5s-22 -94.5 -22 -146.5
s6.83301 -100.667 20.5 -146s34.167 -84.666 61.5 -117.999s61.666 -59.666 102.999 -78.999s89.666 -29 144.999 -29c90.667 0 162.5 25.333 215.5 76s84.167 120.667 93.5 210h-95c-2 -29.333 -8 -56.666 -18 -81.999s-23.833 -47.166 -41.5 -65.499
s-38.667 -32.666 -63 -42.999s-52.166 -15.5 -83.499 -15.5c-42.667 0 -79.334 8 -110.001 24s-55.834 37.5 -75.501 64.5s-34.167 58.667 -43.5 95s-14 74.833 -14 115.5c0 37.333 4.66699 73.333 14 108s23.833 65.5 43.5 92.5s44.667 48.5 75 64.5s66.833 24 109.5 24
c24.667 0 48 -3.16699 70 -9.5s41.833 -15.833 59.5 -28.5s32.5 -28.5 44.5 -47.5s20.667 -41.167 26 -66.5h95zM511.001 907.995h-75l-72 -98l-68 98h-85l103 -143h95z" />
    <glyph glyph-name="Eacute" unicode="&#xc9;" horiz-adv-x="611" 
d="M78 0h496v80h-401v247h371v80h-371v227h398v80h-493v-714zM245 765h62l133 143h-111z" />
    <glyph glyph-name="Eogonek" unicode="&#xca;" horiz-adv-x="611" 
d="M78 0l458.998 -0.00195312c-25.333 -15.333 -45.5 -29.666 -60.5 -42.999s-26.333 -25.5 -34 -36.5s-12.667 -20.667 -15 -29s-3.5 -14.833 -3.5 -19.5c0 -20 3.66699 -35.5 11 -46.5s16 -19.167 26 -24.5s20.167 -8.5 30.5 -9.5s18.5 -1.5 24.5 -1.5
c20.667 0 40.5 4.5 59.5 13.5s35.167 25.167 48.5 48.5l-32 18c-7.33301 -9.33301 -15.666 -16.666 -24.999 -21.999s-21.666 -8 -36.999 -8c-13.333 0 -23 4.33301 -29 13s-9 18.334 -9 29.001c0 13.333 5.33301 29.166 16 47.499s32.667 41.833 66 70.5v80h-401v247h371
v80h-371v227h398v80h-493v-714z" />
    <glyph glyph-name="Eogonek" unicode="&#x118;" horiz-adv-x="611" 
d="M78 0l458.998 -0.00195312c-25.333 -15.333 -45.5 -29.666 -60.5 -42.999s-26.333 -25.5 -34 -36.5s-12.667 -20.667 -15 -29s-3.5 -14.833 -3.5 -19.5c0 -20 3.66699 -35.5 11 -46.5s16 -19.167 26 -24.5s20.167 -8.5 30.5 -9.5s18.5 -1.5 24.5 -1.5
c20.667 0 40.5 4.5 59.5 13.5s35.167 25.167 48.5 48.5l-32 18c-7.33301 -9.33301 -15.666 -16.666 -24.999 -21.999s-21.666 -8 -36.999 -8c-13.333 0 -23 4.33301 -29 13s-9 18.334 -9 29.001c0 13.333 5.33301 29.166 16 47.499s32.667 41.833 66 70.5v80h-401v247h371
v80h-371v227h398v80h-493v-714z" />
    <glyph glyph-name="Edieresis" unicode="&#xcb;" horiz-adv-x="611" 
d="M78 0h496v80h-401v247h371v80h-371v227h398v80h-493v-714zM375 787h90v104h-90v-104zM187 787h90v104h-90v-104z" />
    <glyph glyph-name="Ecaron" unicode="&#xcc;" horiz-adv-x="611" 
d="M78 0h496v80h-401v247h371v80h-371v227h398v80h-493v-714zM476 908h-75l-72 -98l-68 98h-85l103 -143h95z" />
    <glyph glyph-name="Ecaron" unicode="&#x11a;" horiz-adv-x="611" 
d="M78 0h496v80h-401v247h371v80h-371v227h398v80h-493v-714zM476 908h-75l-72 -98l-68 98h-85l103 -143h95z" />
    <glyph glyph-name="Iacute" unicode="&#xcd;" horiz-adv-x="259" 
d="M82 0h95v714h-95v-714zM69 765h62l133 143h-111z" />
    <glyph glyph-name="Icircumflex" unicode="&#xce;" horiz-adv-x="259" 
d="M82 0h95v714h-95v-714zM-21 765h76l72 98l68 -98h85l-103 143h-95z" />
    <glyph glyph-name="Dcaron" unicode="&#xcf;" horiz-adv-x="704" 
d="M78 0l245.001 -0.000976562c59.333 0 110.666 8.33301 153.999 25s79 40.834 107 72.501s48.667 70.667 62 117s20 99.5 20 159.5c0 114.667 -29.667 200 -89 256s-144 84 -254 84h-245v-714zM173.001 633.999l160 0.000976562c44 0 81 -6.33301 111 -19
s54.5 -30.667 73.5 -54s32.667 -51.833 41 -85.5s12.5 -71.834 12.5 -114.501c0 -44 -4.5 -81.5 -13.5 -112.5s-20.5 -56.833 -34.5 -77.5s-29.833 -37 -47.5 -49s-35.5 -21.167 -53.5 -27.5s-35 -10.333 -51 -12s-29.333 -2.5 -40 -2.5h-158v554zM460.001 908h-75l-72 -98
l-68 98h-85l103 -143h95z" />
    <glyph glyph-name="Dcaron" unicode="&#x10e;" horiz-adv-x="704" 
d="M78 0l245.001 -0.000976562c59.333 0 110.666 8.33301 153.999 25s79 40.834 107 72.501s48.667 70.667 62 117s20 99.5 20 159.5c0 114.667 -29.667 200 -89 256s-144 84 -254 84h-245v-714zM173.001 633.999l160 0.000976562c44 0 81 -6.33301 111 -19
s54.5 -30.667 73.5 -54s32.667 -51.833 41 -85.5s12.5 -71.834 12.5 -114.501c0 -44 -4.5 -81.5 -13.5 -112.5s-20.5 -56.833 -34.5 -77.5s-29.833 -37 -47.5 -49s-35.5 -21.167 -53.5 -27.5s-35 -10.333 -51 -12s-29.333 -2.5 -40 -2.5h-158v554zM460.001 908h-75l-72 -98
l-68 98h-85l103 -143h95z" />
    <glyph glyph-name="Dcroat" unicode="&#xd0;" horiz-adv-x="704" 
d="M78 0l245.001 -0.000976562c59.333 0 110.666 8.33301 153.999 25s79 40.834 107 72.501s48.667 70.667 62 117s20 99.5 20 159.5c0 114.667 -29.667 200 -89 256s-144 84 -254 84h-245v-307h-70v-68h70v-339zM173.001 633.999l160 0.000976562c44 0 81 -6.33301 111 -19
s54.5 -30.667 73.5 -54s32.667 -51.833 41 -85.5s12.5 -71.834 12.5 -114.501c0 -44 -4.5 -81.5 -13.5 -112.5s-20.5 -56.833 -34.5 -77.5s-29.833 -37 -47.5 -49s-35.5 -21.167 -53.5 -27.5s-35 -10.333 -51 -12s-29.333 -2.5 -40 -2.5h-158v259h214v68h-214v227z" />
    <glyph glyph-name="Dcroat" unicode="&#x110;" horiz-adv-x="704" 
d="M78 0l245.001 -0.000976562c59.333 0 110.666 8.33301 153.999 25s79 40.834 107 72.501s48.667 70.667 62 117s20 99.5 20 159.5c0 114.667 -29.667 200 -89 256s-144 84 -254 84h-245v-307h-70v-68h70v-339zM173.001 633.999l160 0.000976562c44 0 81 -6.33301 111 -19
s54.5 -30.667 73.5 -54s32.667 -51.833 41 -85.5s12.5 -71.834 12.5 -114.501c0 -44 -4.5 -81.5 -13.5 -112.5s-20.5 -56.833 -34.5 -77.5s-29.833 -37 -47.5 -49s-35.5 -21.167 -53.5 -27.5s-35 -10.333 -51 -12s-29.333 -2.5 -40 -2.5h-158v259h214v68h-214v227z" />
    <glyph glyph-name="Nacute" unicode="&#xd1;" horiz-adv-x="722" 
d="M77 0h90v573h2l373 -573h104v714h-90v-579h-2l-376 579h-101v-714zM320 765h62l133 143h-111z" />
    <glyph glyph-name="Nacute" unicode="&#x143;" horiz-adv-x="722" 
d="M77 0h90v573h2l373 -573h104v714h-90v-579h-2l-376 579h-101v-714zM320 765h62l133 143h-111z" />
    <glyph glyph-name="Ncaron" unicode="&#xd2;" horiz-adv-x="722" 
d="M77 0h90v573h2l373 -573h104v714h-90v-579h-2l-376 579h-101v-714zM511 908h-75l-72 -98l-68 98h-85l103 -143h95z" />
    <glyph glyph-name="Ncaron" unicode="&#x147;" horiz-adv-x="722" 
d="M77 0h90v573h2l373 -573h104v714h-90v-579h-2l-376 579h-101v-714zM511 908h-75l-72 -98l-68 98h-85l103 -143h95z" />
    <glyph glyph-name="Oacute" unicode="&#xd3;" horiz-adv-x="760" 
d="M38 357c0 -48.667 7.16699 -95.5 21.5 -140.5s35.833 -84.833 64.5 -119.5s64.334 -62.334 107.001 -83.001s92.334 -31 149.001 -31s106.334 10.333 149.001 31s78.334 48.334 107.001 83.001s50.167 74.5 64.5 119.5s21.5 91.833 21.5 140.5s-7.16699 95.5 -21.5 140.5
s-35.833 84.833 -64.5 119.5s-64.334 62.334 -107.001 83.001s-92.334 31 -149.001 31s-106.334 -10.333 -149.001 -31s-78.334 -48.334 -107.001 -83.001s-50.167 -74.5 -64.5 -119.5s-21.5 -91.833 -21.5 -140.5zM133 357c0 36 4.66699 71.5 14 106.5s24 66.5 44 94.5
s45.667 50.5 77 67.5s68.666 25.5 111.999 25.5s80.666 -8.5 111.999 -25.5s57 -39.5 77 -67.5s34.667 -59.5 44 -94.5s14 -70.5 14 -106.5s-4.66699 -71.5 -14 -106.5s-24 -66.5 -44 -94.5s-45.667 -50.5 -77 -67.5s-68.666 -25.5 -111.999 -25.5
s-80.666 8.5 -111.999 25.5s-57 39.5 -77 67.5s-34.667 59.5 -44 94.5s-14 70.5 -14 106.5zM319 765h62l133 143h-111z" />
    <glyph glyph-name="Ocircumflex" unicode="&#xd4;" horiz-adv-x="760" 
d="M38 357c0 -48.667 7.16699 -95.5 21.5 -140.5s35.833 -84.833 64.5 -119.5s64.334 -62.334 107.001 -83.001s92.334 -31 149.001 -31s106.334 10.333 149.001 31s78.334 48.334 107.001 83.001s50.167 74.5 64.5 119.5s21.5 91.833 21.5 140.5s-7.16699 95.5 -21.5 140.5
s-35.833 84.833 -64.5 119.5s-64.334 62.334 -107.001 83.001s-92.334 31 -149.001 31s-106.334 -10.333 -149.001 -31s-78.334 -48.334 -107.001 -83.001s-50.167 -74.5 -64.5 -119.5s-21.5 -91.833 -21.5 -140.5zM133 357c0 36 4.66699 71.5 14 106.5s24 66.5 44 94.5
s45.667 50.5 77 67.5s68.666 25.5 111.999 25.5s80.666 -8.5 111.999 -25.5s57 -39.5 77 -67.5s34.667 -59.5 44 -94.5s14 -70.5 14 -106.5s-4.66699 -71.5 -14 -106.5s-24 -66.5 -44 -94.5s-45.667 -50.5 -77 -67.5s-68.666 -25.5 -111.999 -25.5
s-80.666 8.5 -111.999 25.5s-57 39.5 -77 67.5s-34.667 59.5 -44 94.5s-14 70.5 -14 106.5zM230 765h75l72 98l68 -98h85l-103 143h-95z" />
    <glyph glyph-name="Ohungarumlaut" unicode="&#xd5;" horiz-adv-x="760" 
d="M133 357c0 36 4.66699 71.5 14 106.5s24 66.5 44 94.5s45.667 50.5 77 67.5s68.666 25.5 111.999 25.5s80.666 -8.5 111.999 -25.5s57 -39.5 77 -67.5s34.667 -59.5 44 -94.5s14 -70.5 14 -106.5s-4.66699 -71.5 -14 -106.5s-24 -66.5 -44 -94.5s-45.667 -50.5 -77 -67.5
s-68.666 -25.5 -111.999 -25.5s-80.666 8.5 -111.999 25.5s-57 39.5 -77 67.5s-34.667 59.5 -44 94.5s-14 70.5 -14 106.5zM38 357c0 -48.667 7.16699 -95.5 21.5 -140.5s35.833 -84.833 64.5 -119.5s64.334 -62.334 107.001 -83.001s92.334 -31 149.001 -31
s106.334 10.333 149.001 31s78.334 48.334 107.001 83.001s50.167 74.5 64.5 119.5s21.5 91.833 21.5 140.5s-7.16699 95.5 -21.5 140.5s-35.833 84.833 -64.5 119.5s-64.334 62.334 -107.001 83.001s-92.334 31 -149.001 31s-106.334 -10.333 -149.001 -31
s-78.334 -48.334 -107.001 -83.001s-50.167 -74.5 -64.5 -119.5s-21.5 -91.833 -21.5 -140.5zM251 765h68l118 143h-105zM407 765h68l118 143h-105z" />
    <glyph glyph-name="Ohungarumlaut" unicode="&#x150;" horiz-adv-x="760" 
d="M133 357c0 36 4.66699 71.5 14 106.5s24 66.5 44 94.5s45.667 50.5 77 67.5s68.666 25.5 111.999 25.5s80.666 -8.5 111.999 -25.5s57 -39.5 77 -67.5s34.667 -59.5 44 -94.5s14 -70.5 14 -106.5s-4.66699 -71.5 -14 -106.5s-24 -66.5 -44 -94.5s-45.667 -50.5 -77 -67.5
s-68.666 -25.5 -111.999 -25.5s-80.666 8.5 -111.999 25.5s-57 39.5 -77 67.5s-34.667 59.5 -44 94.5s-14 70.5 -14 106.5zM38 357c0 -48.667 7.16699 -95.5 21.5 -140.5s35.833 -84.833 64.5 -119.5s64.334 -62.334 107.001 -83.001s92.334 -31 149.001 -31
s106.334 10.333 149.001 31s78.334 48.334 107.001 83.001s50.167 74.5 64.5 119.5s21.5 91.833 21.5 140.5s-7.16699 95.5 -21.5 140.5s-35.833 84.833 -64.5 119.5s-64.334 62.334 -107.001 83.001s-92.334 31 -149.001 31s-106.334 -10.333 -149.001 -31
s-78.334 -48.334 -107.001 -83.001s-50.167 -74.5 -64.5 -119.5s-21.5 -91.833 -21.5 -140.5zM251 765h68l118 143h-105zM407 765h68l118 143h-105z" />
    <glyph glyph-name="Odieresis" unicode="&#xd6;" horiz-adv-x="760" 
d="M133 357c0 36 4.66699 71.5 14 106.5s24 66.5 44 94.5s45.667 50.5 77 67.5s68.666 25.5 111.999 25.5s80.666 -8.5 111.999 -25.5s57 -39.5 77 -67.5s34.667 -59.5 44 -94.5s14 -70.5 14 -106.5s-4.66699 -71.5 -14 -106.5s-24 -66.5 -44 -94.5s-45.667 -50.5 -77 -67.5
s-68.666 -25.5 -111.999 -25.5s-80.666 8.5 -111.999 25.5s-57 39.5 -77 67.5s-34.667 59.5 -44 94.5s-14 70.5 -14 106.5zM38 357c0 -48.667 7.16699 -95.5 21.5 -140.5s35.833 -84.833 64.5 -119.5s64.334 -62.334 107.001 -83.001s92.334 -31 149.001 -31
s106.334 10.333 149.001 31s78.334 48.334 107.001 83.001s50.167 74.5 64.5 119.5s21.5 91.833 21.5 140.5s-7.16699 95.5 -21.5 140.5s-35.833 84.833 -64.5 119.5s-64.334 62.334 -107.001 83.001s-92.334 31 -149.001 31s-106.334 -10.333 -149.001 -31
s-78.334 -48.334 -107.001 -83.001s-50.167 -74.5 -64.5 -119.5s-21.5 -91.833 -21.5 -140.5zM241 787h90v104h-90v-104zM429 787h90v104h-90v-104z" />
    <glyph glyph-name="multiply" unicode="&#xd7;" horiz-adv-x="600" 
d="M119 24l182 182l181 -182l48 48l-181 182l180 180l-48 48l-180 -180l-181 180l-48 -48l181 -180l-182 -182z" />
    <glyph glyph-name="Rcaron" unicode="&#xd8;" horiz-adv-x="685" 
d="M173 385v249h236c44.667 0 77 -11.5 97 -34.5s30 -52.167 30 -87.5c0 -26 -4.5 -47.167 -13.5 -63.5s-21 -29.333 -36 -39s-32.5 -16.167 -52.5 -19.5s-41 -5 -63 -5h-198zM78 0l95 0.00195312v305h232c22.667 0 41.167 -3.5 55.5 -10.5s25.833 -16.333 34.5 -28
s15 -25.334 19 -41.001s7.33301 -32.167 10 -49.5c3.33301 -24.667 5.33301 -46.167 6 -64.5s1.5 -34.5 2.5 -48.5s2.5 -26 4.5 -36s6.33301 -19 13 -27h106c-10 12 -17.5 25.833 -22.5 41.5s-8.66699 32 -11 49s-4 34.667 -5 53s-2.16699 36.166 -3.5 53.499
c-2 17.333 -4.66699 34 -8 50s-9 30.5 -17 43.5s-18.5 24.167 -31.5 33.5s-29.833 16 -50.5 20v2c43.333 12 74.833 34.333 94.5 67s29.5 70.667 29.5 114c0 57.333 -19.333 102.833 -58 136.5s-91.667 50.5 -159 50.5h-336v-714zM463 908.002h-75l-72 -98l-68 98h-85
l103 -143h95z" />
    <glyph glyph-name="Rcaron" unicode="&#x158;" horiz-adv-x="685" 
d="M173 385v249h236c44.667 0 77 -11.5 97 -34.5s30 -52.167 30 -87.5c0 -26 -4.5 -47.167 -13.5 -63.5s-21 -29.333 -36 -39s-32.5 -16.167 -52.5 -19.5s-41 -5 -63 -5h-198zM78 0l95 0.00195312v305h232c22.667 0 41.167 -3.5 55.5 -10.5s25.833 -16.333 34.5 -28
s15 -25.334 19 -41.001s7.33301 -32.167 10 -49.5c3.33301 -24.667 5.33301 -46.167 6 -64.5s1.5 -34.5 2.5 -48.5s2.5 -26 4.5 -36s6.33301 -19 13 -27h106c-10 12 -17.5 25.833 -22.5 41.5s-8.66699 32 -11 49s-4 34.667 -5 53s-2.16699 36.166 -3.5 53.499
c-2 17.333 -4.66699 34 -8 50s-9 30.5 -17 43.5s-18.5 24.167 -31.5 33.5s-29.833 16 -50.5 20v2c43.333 12 74.833 34.333 94.5 67s29.5 70.667 29.5 114c0 57.333 -19.333 102.833 -58 136.5s-91.667 50.5 -159 50.5h-336v-714zM463 908.002h-75l-72 -98l-68 98h-85
l103 -143h95z" />
    <glyph glyph-name="Uring" unicode="&#xd9;" horiz-adv-x="722" 
d="M648 714l-95 0.00195312v-456c0 -63.333 -15.833 -111.666 -47.5 -144.999s-77.834 -50 -138.501 -50c-63.333 0 -112.166 16.667 -146.499 50s-51.5 81.666 -51.5 144.999v456h-95v-456c0 -47.333 6.66699 -88.333 20 -123s32.5 -63.334 57.5 -86.001
s55.667 -39.334 92 -50.001s77.5 -16 123.5 -16c89.333 0 158.5 23.167 207.5 69.5s73.5 114.833 73.5 205.5v456zM293 835.002c0 19.333 6.5 35.5 19.5 48.5s29.167 19.5 48.5 19.5s35.5 -6.5 48.5 -19.5s19.5 -29.167 19.5 -48.5s-6.5 -35.5 -19.5 -48.5
s-29.167 -19.5 -48.5 -19.5s-35.5 6.5 -48.5 19.5s-19.5 29.167 -19.5 48.5zM248 835.002c0 -15.333 3 -29.833 9 -43.5s14.167 -25.667 24.5 -36s22.333 -18.5 36 -24.5s28.167 -9 43.5 -9s29.833 3 43.5 9s25.667 14.167 36 24.5s18.5 22.333 24.5 36s9 28.167 9 43.5
s-3 29.833 -9 43.5s-14.167 25.667 -24.5 36s-22.333 18.5 -36 24.5s-28.167 9 -43.5 9s-29.833 -3 -43.5 -9s-25.667 -14.167 -36 -24.5s-18.5 -22.333 -24.5 -36s-9 -28.167 -9 -43.5z" />
    <glyph glyph-name="Uring" unicode="&#x16e;" horiz-adv-x="722" 
d="M648 714l-95 0.00195312v-456c0 -63.333 -15.833 -111.666 -47.5 -144.999s-77.834 -50 -138.501 -50c-63.333 0 -112.166 16.667 -146.499 50s-51.5 81.666 -51.5 144.999v456h-95v-456c0 -47.333 6.66699 -88.333 20 -123s32.5 -63.334 57.5 -86.001
s55.667 -39.334 92 -50.001s77.5 -16 123.5 -16c89.333 0 158.5 23.167 207.5 69.5s73.5 114.833 73.5 205.5v456zM293 835.002c0 19.333 6.5 35.5 19.5 48.5s29.167 19.5 48.5 19.5s35.5 -6.5 48.5 -19.5s19.5 -29.167 19.5 -48.5s-6.5 -35.5 -19.5 -48.5
s-29.167 -19.5 -48.5 -19.5s-35.5 6.5 -48.5 19.5s-19.5 29.167 -19.5 48.5zM248 835.002c0 -15.333 3 -29.833 9 -43.5s14.167 -25.667 24.5 -36s22.333 -18.5 36 -24.5s28.167 -9 43.5 -9s29.833 3 43.5 9s25.667 14.167 36 24.5s18.5 22.333 24.5 36s9 28.167 9 43.5
s-3 29.833 -9 43.5s-14.167 25.667 -24.5 36s-22.333 18.5 -36 24.5s-28.167 9 -43.5 9s-29.833 -3 -43.5 -9s-25.667 -14.167 -36 -24.5s-18.5 -22.333 -24.5 -36s-9 -28.167 -9 -43.5z" />
    <glyph glyph-name="Uacute" unicode="&#xda;" horiz-adv-x="722" 
d="M648 714l-95 0.00195312v-456c0 -63.333 -15.833 -111.666 -47.5 -144.999s-77.834 -50 -138.501 -50c-63.333 0 -112.166 16.667 -146.499 50s-51.5 81.666 -51.5 144.999v456h-95v-456c0 -47.333 6.66699 -88.333 20 -123s32.5 -63.334 57.5 -86.001
s55.667 -39.334 92 -50.001s77.5 -16 123.5 -16c89.333 0 158.5 23.167 207.5 69.5s73.5 114.833 73.5 205.5v456zM300 765.002h62l133 143h-111z" />
    <glyph glyph-name="Uhungarumlaut" unicode="&#xdb;" horiz-adv-x="722" 
d="M648 714l-95 0.00195312v-456c0 -63.333 -15.833 -111.666 -47.5 -144.999s-77.834 -50 -138.501 -50c-63.333 0 -112.166 16.667 -146.499 50s-51.5 81.666 -51.5 144.999v456h-95v-456c0 -47.333 6.66699 -88.333 20 -123s32.5 -63.334 57.5 -86.001
s55.667 -39.334 92 -50.001s77.5 -16 123.5 -16c89.333 0 158.5 23.167 207.5 69.5s73.5 114.833 73.5 205.5v456zM222 765.002h68l118 143h-105zM378 765.002h68l118 143h-105z" />
    <glyph glyph-name="Uhungarumlaut" unicode="&#x170;" horiz-adv-x="722" 
d="M648 714l-95 0.00195312v-456c0 -63.333 -15.833 -111.666 -47.5 -144.999s-77.834 -50 -138.501 -50c-63.333 0 -112.166 16.667 -146.499 50s-51.5 81.666 -51.5 144.999v456h-95v-456c0 -47.333 6.66699 -88.333 20 -123s32.5 -63.334 57.5 -86.001
s55.667 -39.334 92 -50.001s77.5 -16 123.5 -16c89.333 0 158.5 23.167 207.5 69.5s73.5 114.833 73.5 205.5v456zM222 765.002h68l118 143h-105zM378 765.002h68l118 143h-105z" />
    <glyph glyph-name="Udieresis" unicode="&#xdc;" horiz-adv-x="722" 
d="M648 714l-95 0.00195312v-456c0 -63.333 -15.833 -111.666 -47.5 -144.999s-77.834 -50 -138.501 -50c-63.333 0 -112.166 16.667 -146.499 50s-51.5 81.666 -51.5 144.999v456h-95v-456c0 -47.333 6.66699 -88.333 20 -123s32.5 -63.334 57.5 -86.001
s55.667 -39.334 92 -50.001s77.5 -16 123.5 -16c89.333 0 158.5 23.167 207.5 69.5s73.5 114.833 73.5 205.5v456zM410 787.002h90v104h-90v-104zM222 787.002h90v104h-90v-104z" />
    <glyph glyph-name="Yacute" unicode="&#xdd;" horiz-adv-x="648" 
d="M646 714h-108l-209 -340l-214 340h-113l276 -422v-292h95v292zM263 765h62l133 143h-111z" />
    <glyph glyph-name="Tcommaaccent" unicode="&#xde;" horiz-adv-x="574" 
d="M240 0h95v634h238v80h-571v-80h238v-634zM240 -51l0.000976562 -96.9961h51c0 -6.66699 -0.5 -13.834 -1.5 -21.501s-3.33301 -15 -7 -22s-8.83398 -13.333 -15.501 -19s-15.667 -9.83398 -27 -12.501v-40c20 3.33301 36.167 9.16602 48.5 17.499s22 18.166 29 29.499
s11.667 23.5 14 36.5s3.5 25.833 3.5 38.5v90h-95z" />
    <glyph glyph-name="Tcommaaccent" unicode="&#x162;" horiz-adv-x="574" 
d="M240 0h95v634h238v80h-571v-80h238v-634zM240 -51l0.000976562 -96.9961h51c0 -6.66699 -0.5 -13.834 -1.5 -21.501s-3.33301 -15 -7 -22s-8.83398 -13.333 -15.501 -19s-15.667 -9.83398 -27 -12.501v-40c20 3.33301 36.167 9.16602 48.5 17.499s22 18.166 29 29.499
s11.667 23.5 14 36.5s3.5 25.833 3.5 38.5v90h-95z" />
    <glyph glyph-name="germandbls" unicode="&#xdf;" 
d="M64 0l85 0.00488281v516c0 28 2.83301 51 8.5 69s13.834 32.167 24.501 42.5s23.334 17.666 38.001 21.999s30.667 6.5 48 6.5c16 0 30.667 -3 44 -9s25 -14 35 -24s17.833 -21.833 23.5 -35.5s8.5 -28.5 8.5 -44.5c0 -23.333 -4.16699 -42.666 -12.5 -57.999
s-19.5 -27.5 -33.5 -36.5s-30.167 -15.167 -48.5 -18.5s-37.5 -4.33301 -57.5 -3v-68c28 0 53.333 -1.66699 76 -5s42 -10.333 58 -21s28.333 -25.834 37 -45.501s13 -45.834 13 -78.501c0 -43.333 -13.5 -78.5 -40.5 -105.5s-63.5 -40.5 -109.5 -40.5
c-5.33301 0 -11 0.166992 -17 0.5s-11.667 1.16602 -17 2.49902v-74c7.33301 -1.33301 14.5 -2.33301 21.5 -3s14.167 -1 21.5 -1c34 0 65.167 5.66699 93.5 17s52.666 27.166 72.999 47.499s36.166 44.833 47.499 73.5s17 60 17 94c0 22 -2.83301 43.167 -8.5 63.5
s-14.167 38.5 -25.5 54.5s-25.5 29.5 -42.5 40.5s-36.833 17.833 -59.5 20.5v2c37.333 12 64 31.5 80 58.5s24 59.167 24 96.5c0 28.667 -6.16699 54 -18.5 76s-28.333 40.333 -48 55s-41.834 25.667 -66.501 33s-49.334 11 -74.001 11c-30 0 -57.167 -4.83301 -81.5 -14.5
s-45.166 -23.334 -62.499 -41.001s-30.666 -38.667 -39.999 -63s-14 -51.5 -14 -81.5v-531z" />
    <glyph glyph-name="racute" unicode="&#xe0;" horiz-adv-x="333" 
d="M61 0h84.999v230c0 32.667 3.33301 62 10 88s17.334 48 32.001 66s34 31.667 58 41s53 14 87 14v90c-46 1.33301 -84 -8 -114 -28s-55.333 -51 -76 -93h-2v109h-80v-517zM115.999 588h62l133 143h-111z" />
    <glyph glyph-name="racute" unicode="&#x155;" horiz-adv-x="333" 
d="M61 0h84.999v230c0 32.667 3.33301 62 10 88s17.334 48 32.001 66s34 31.667 58 41s53 14 87 14v90c-46 1.33301 -84 -8 -114 -28s-55.333 -51 -76 -93h-2v109h-80v-517zM115.999 588h62l133 143h-111z" />
    <glyph glyph-name="aacute" unicode="&#xe1;" horiz-adv-x="537" 
d="M384 180c0 -12 -3 -24.8301 -9 -38.4971s-15.333 -26.334 -28 -38.001s-29 -21.334 -49 -29.001s-44 -11.5 -72 -11.5c-13.333 0 -26 1.33301 -38 4s-22.5 7 -31.5 13s-16.333 13.833 -22 23.5s-8.5 21.5 -8.5 35.5c0 16 2.83301 29.333 8.5 40s13.167 19.5 22.5 26.5
s20.333 12.5 33 16.5s26 7.33301 40 10s28.5 4.83398 43.5 6.50098s29.167 3.66699 42.5 6s26 5.16602 38 8.49902s22 7.66602 30 12.999v-86zM522 68.0029c-9.33301 -3.33301 -18.001 -5.00098 -26.001 -5.00098c-13.333 0 -21.166 4.66699 -23.499 14s-3.5 24 -3.5 44v266
c0 30 -5.66699 54.333 -17 73s-26.333 33.167 -45 43.5s-39.5 17.166 -62.5 20.499s-46.167 5 -69.5 5c-28.667 0 -56 -3 -82 -9s-49 -15.833 -69 -29.5s-36 -31.5 -48 -53.5s-18.667 -49 -20 -81h85c2 38 15 63.833 39 77.5s54 20.5 90 20.5c13.333 0 26.833 -1 40.5 -3
s26 -6 37 -12s19.833 -14.667 26.5 -26s10 -26.333 10 -45c0 -16 -4.66699 -28.167 -14 -36.5s-21.833 -14.666 -37.5 -18.999s-34 -7.66602 -55 -9.99902s-43.167 -5.83301 -66.5 -10.5c-22 -4 -43.5 -9.16699 -64.5 -15.5s-39.667 -15.166 -56 -26.499
s-29.5 -26.333 -39.5 -45s-15 -42.667 -15 -72c0 -26 4.5 -48.167 13.5 -66.5s21.167 -33.333 36.5 -45s33.5 -20.167 54.5 -25.5s43.167 -8 66.5 -8c36 0 69.5 6.33301 100.5 19s58.167 33 81.5 61c0 -28 6.5 -48.333 19.5 -61s30.5 -19 52.5 -19
c13.333 0 25 1.16699 35 3.5s18.667 5.16602 26 8.49902v68zM207.999 588.002h62l133 143h-111z" />
    <glyph glyph-name="acircumflex" unicode="&#xe2;" horiz-adv-x="537" 
d="M384 180c0 -12 -3 -24.8301 -9 -38.4971s-15.333 -26.334 -28 -38.001s-29 -21.334 -49 -29.001s-44 -11.5 -72 -11.5c-13.333 0 -26 1.33301 -38 4s-22.5 7 -31.5 13s-16.333 13.833 -22 23.5s-8.5 21.5 -8.5 35.5c0 16 2.83301 29.333 8.5 40s13.167 19.5 22.5 26.5
s20.333 12.5 33 16.5s26 7.33301 40 10s28.5 4.83398 43.5 6.50098s29.167 3.66699 42.5 6s26 5.16602 38 8.49902s22 7.66602 30 12.999v-86zM522 68.0029c-9.33301 -3.33301 -18.001 -5.00098 -26.001 -5.00098c-13.333 0 -21.166 4.66699 -23.499 14s-3.5 24 -3.5 44v266
c0 30 -5.66699 54.333 -17 73s-26.333 33.167 -45 43.5s-39.5 17.166 -62.5 20.499s-46.167 5 -69.5 5c-28.667 0 -56 -3 -82 -9s-49 -15.833 -69 -29.5s-36 -31.5 -48 -53.5s-18.667 -49 -20 -81h85c2 38 15 63.833 39 77.5s54 20.5 90 20.5c13.333 0 26.833 -1 40.5 -3
s26 -6 37 -12s19.833 -14.667 26.5 -26s10 -26.333 10 -45c0 -16 -4.66699 -28.167 -14 -36.5s-21.833 -14.666 -37.5 -18.999s-34 -7.66602 -55 -9.99902s-43.167 -5.83301 -66.5 -10.5c-22 -4 -43.5 -9.16699 -64.5 -15.5s-39.667 -15.166 -56 -26.499
s-29.5 -26.333 -39.5 -45s-15 -42.667 -15 -72c0 -26 4.5 -48.167 13.5 -66.5s21.167 -33.333 36.5 -45s33.5 -20.167 54.5 -25.5s43.167 -8 66.5 -8c36 0 69.5 6.33301 100.5 19s58.167 33 81.5 61c0 -28 6.5 -48.333 19.5 -61s30.5 -19 52.5 -19
c13.333 0 25 1.16699 35 3.5s18.667 5.16602 26 8.49902v68zM118.999 588.002h75l72 98l68 -98h85l-103 143h-95z" />
    <glyph glyph-name="abreve" unicode="&#xe3;" horiz-adv-x="537" 
d="M384 180c0 -12 -3 -24.8301 -9 -38.4971s-15.333 -26.334 -28 -38.001s-29 -21.334 -49 -29.001s-44 -11.5 -72 -11.5c-13.333 0 -26 1.33301 -38 4s-22.5 7 -31.5 13s-16.333 13.833 -22 23.5s-8.5 21.5 -8.5 35.5c0 16 2.83301 29.333 8.5 40s13.167 19.5 22.5 26.5
s20.333 12.5 33 16.5s26 7.33301 40 10s28.5 4.83398 43.5 6.50098s29.167 3.66699 42.5 6s26 5.16602 38 8.49902s22 7.66602 30 12.999v-86zM522 68.0029c-9.33301 -3.33301 -18.001 -5.00098 -26.001 -5.00098c-13.333 0 -21.166 4.66699 -23.499 14s-3.5 24 -3.5 44v266
c0 30 -5.66699 54.333 -17 73s-26.333 33.167 -45 43.5s-39.5 17.166 -62.5 20.499s-46.167 5 -69.5 5c-28.667 0 -56 -3 -82 -9s-49 -15.833 -69 -29.5s-36 -31.5 -48 -53.5s-18.667 -49 -20 -81h85c2 38 15 63.833 39 77.5s54 20.5 90 20.5c13.333 0 26.833 -1 40.5 -3
s26 -6 37 -12s19.833 -14.667 26.5 -26s10 -26.333 10 -45c0 -16 -4.66699 -28.167 -14 -36.5s-21.833 -14.666 -37.5 -18.999s-34 -7.66602 -55 -9.99902s-43.167 -5.83301 -66.5 -10.5c-22 -4 -43.5 -9.16699 -64.5 -15.5s-39.667 -15.166 -56 -26.499
s-29.5 -26.333 -39.5 -45s-15 -42.667 -15 -72c0 -26 4.5 -48.167 13.5 -66.5s21.167 -33.333 36.5 -45s33.5 -20.167 54.5 -25.5s43.167 -8 66.5 -8c36 0 69.5 6.33301 100.5 19s58.167 33 81.5 61c0 -28 6.5 -48.333 19.5 -61s30.5 -19 52.5 -19
c13.333 0 25 1.16699 35 3.5s18.667 5.16602 26 8.49902v68zM112.999 731.002c6.66699 -47.333 22.667 -83 48 -107s61.333 -36 108 -36s82.667 12 108 36s41.333 59.667 48 107h-51c-7.33301 -28 -20.333 -49.667 -39 -65s-40.667 -23 -66 -23s-47.5 7.66699 -66.5 23
s-32.167 37 -39.5 65h-50z" />
    <glyph glyph-name="abreve" unicode="&#x103;" horiz-adv-x="537" 
d="M384 180c0 -12 -3 -24.8301 -9 -38.4971s-15.333 -26.334 -28 -38.001s-29 -21.334 -49 -29.001s-44 -11.5 -72 -11.5c-13.333 0 -26 1.33301 -38 4s-22.5 7 -31.5 13s-16.333 13.833 -22 23.5s-8.5 21.5 -8.5 35.5c0 16 2.83301 29.333 8.5 40s13.167 19.5 22.5 26.5
s20.333 12.5 33 16.5s26 7.33301 40 10s28.5 4.83398 43.5 6.50098s29.167 3.66699 42.5 6s26 5.16602 38 8.49902s22 7.66602 30 12.999v-86zM522 68.0029c-9.33301 -3.33301 -18.001 -5.00098 -26.001 -5.00098c-13.333 0 -21.166 4.66699 -23.499 14s-3.5 24 -3.5 44v266
c0 30 -5.66699 54.333 -17 73s-26.333 33.167 -45 43.5s-39.5 17.166 -62.5 20.499s-46.167 5 -69.5 5c-28.667 0 -56 -3 -82 -9s-49 -15.833 -69 -29.5s-36 -31.5 -48 -53.5s-18.667 -49 -20 -81h85c2 38 15 63.833 39 77.5s54 20.5 90 20.5c13.333 0 26.833 -1 40.5 -3
s26 -6 37 -12s19.833 -14.667 26.5 -26s10 -26.333 10 -45c0 -16 -4.66699 -28.167 -14 -36.5s-21.833 -14.666 -37.5 -18.999s-34 -7.66602 -55 -9.99902s-43.167 -5.83301 -66.5 -10.5c-22 -4 -43.5 -9.16699 -64.5 -15.5s-39.667 -15.166 -56 -26.499
s-29.5 -26.333 -39.5 -45s-15 -42.667 -15 -72c0 -26 4.5 -48.167 13.5 -66.5s21.167 -33.333 36.5 -45s33.5 -20.167 54.5 -25.5s43.167 -8 66.5 -8c36 0 69.5 6.33301 100.5 19s58.167 33 81.5 61c0 -28 6.5 -48.333 19.5 -61s30.5 -19 52.5 -19
c13.333 0 25 1.16699 35 3.5s18.667 5.16602 26 8.49902v68zM112.999 731.002c6.66699 -47.333 22.667 -83 48 -107s61.333 -36 108 -36s82.667 12 108 36s41.333 59.667 48 107h-51c-7.33301 -28 -20.333 -49.667 -39 -65s-40.667 -23 -66 -23s-47.5 7.66699 -66.5 23
s-32.167 37 -39.5 65h-50z" />
    <glyph glyph-name="adieresis" unicode="&#xe4;" horiz-adv-x="537" 
d="M384 180c0 -12 -3 -24.8301 -9 -38.4971s-15.333 -26.334 -28 -38.001s-29 -21.334 -49 -29.001s-44 -11.5 -72 -11.5c-13.333 0 -26 1.33301 -38 4s-22.5 7 -31.5 13s-16.333 13.833 -22 23.5s-8.5 21.5 -8.5 35.5c0 16 2.83301 29.333 8.5 40s13.167 19.5 22.5 26.5
s20.333 12.5 33 16.5s26 7.33301 40 10s28.5 4.83398 43.5 6.50098s29.167 3.66699 42.5 6s26 5.16602 38 8.49902s22 7.66602 30 12.999v-86zM522 68.0029c-9.33301 -3.33301 -18.001 -5.00098 -26.001 -5.00098c-13.333 0 -21.166 4.66699 -23.499 14s-3.5 24 -3.5 44v266
c0 30 -5.66699 54.333 -17 73s-26.333 33.167 -45 43.5s-39.5 17.166 -62.5 20.499s-46.167 5 -69.5 5c-28.667 0 -56 -3 -82 -9s-49 -15.833 -69 -29.5s-36 -31.5 -48 -53.5s-18.667 -49 -20 -81h85c2 38 15 63.833 39 77.5s54 20.5 90 20.5c13.333 0 26.833 -1 40.5 -3
s26 -6 37 -12s19.833 -14.667 26.5 -26s10 -26.333 10 -45c0 -16 -4.66699 -28.167 -14 -36.5s-21.833 -14.666 -37.5 -18.999s-34 -7.66602 -55 -9.99902s-43.167 -5.83301 -66.5 -10.5c-22 -4 -43.5 -9.16699 -64.5 -15.5s-39.667 -15.166 -56 -26.499
s-29.5 -26.333 -39.5 -45s-15 -42.667 -15 -72c0 -26 4.5 -48.167 13.5 -66.5s21.167 -33.333 36.5 -45s33.5 -20.167 54.5 -25.5s43.167 -8 66.5 -8c36 0 69.5 6.33301 100.5 19s58.167 33 81.5 61c0 -28 6.5 -48.333 19.5 -61s30.5 -19 52.5 -19
c13.333 0 25 1.16699 35 3.5s18.667 5.16602 26 8.49902v68zM317.999 610.002h90v104h-90v-104zM129.999 610.002h90v104h-90v-104z" />
    <glyph glyph-name="lacute" unicode="&#xe5;" horiz-adv-x="222" 
d="M69 0h85v714h-85v-714zM50 765h62l133 143h-111z" />
    <glyph glyph-name="lacute" unicode="&#x13a;" horiz-adv-x="222" 
d="M69 0h85v714h-85v-714zM50 765h62l133 143h-111z" />
    <glyph glyph-name="cacute" unicode="&#xe6;" horiz-adv-x="537" 
d="M505 351c-3.33301 30.667 -11.333 57.165 -24 79.498s-29 40.833 -49 55.5s-43 25.5 -69 32.5s-53.667 10.5 -83 10.5c-41.333 0 -77.166 -7.16699 -107.499 -21.5s-55.666 -34 -75.999 -59s-35.5 -54.333 -45.5 -88s-15 -69.834 -15 -108.501
s5.16699 -74.167 15.5 -106.5s25.666 -60.166 45.999 -83.499s45.666 -41.5 75.999 -54.5s65.166 -19.5 104.499 -19.5c65.333 0 117.333 17.667 156 53s62.667 84.666 72 147.999h-85c-5.33301 -39.333 -20.333 -70.166 -45 -92.499s-57.667 -33.5 -99 -33.5
c-27.333 0 -50.5 5.33301 -69.5 16s-34.5 24.834 -46.5 42.501s-20.833 37.834 -26.5 60.501s-8.5 46 -8.5 70c0 26 2.66699 51.167 8 75.5s14.166 45.833 26.499 64.5s28.833 33.667 49.5 45s46.334 17 77.001 17c35.333 0 63.833 -9 85.5 -27s35.834 -43.333 42.501 -76
h90zM218 587.998h62l133 143h-111z" />
    <glyph glyph-name="cacute" unicode="&#x107;" horiz-adv-x="537" 
d="M505 351c-3.33301 30.667 -11.333 57.165 -24 79.498s-29 40.833 -49 55.5s-43 25.5 -69 32.5s-53.667 10.5 -83 10.5c-41.333 0 -77.166 -7.16699 -107.499 -21.5s-55.666 -34 -75.999 -59s-35.5 -54.333 -45.5 -88s-15 -69.834 -15 -108.501
s5.16699 -74.167 15.5 -106.5s25.666 -60.166 45.999 -83.499s45.666 -41.5 75.999 -54.5s65.166 -19.5 104.499 -19.5c65.333 0 117.333 17.667 156 53s62.667 84.666 72 147.999h-85c-5.33301 -39.333 -20.333 -70.166 -45 -92.499s-57.667 -33.5 -99 -33.5
c-27.333 0 -50.5 5.33301 -69.5 16s-34.5 24.834 -46.5 42.501s-20.833 37.834 -26.5 60.501s-8.5 46 -8.5 70c0 26 2.66699 51.167 8 75.5s14.166 45.833 26.499 64.5s28.833 33.667 49.5 45s46.334 17 77.001 17c35.333 0 63.833 -9 85.5 -27s35.834 -43.333 42.501 -76
h90zM218 587.998h62l133 143h-111z" />
    <glyph glyph-name="ccedilla" unicode="&#xe7;" horiz-adv-x="537" 
d="M503 351c-3.33301 30.667 -11.1699 57.166 -23.5029 79.499s-28.5 40.833 -48.5 55.5s-42.833 25.5 -68.5 32.5s-53.167 10.5 -82.5 10.5c-41.333 0 -77.166 -7.16699 -107.499 -21.5s-55.666 -34 -75.999 -59s-35.5 -54.333 -45.5 -88s-15 -69.834 -15 -108.501
c0 -36 4.66699 -69.5 14 -100.5s23 -58 41 -81s40.5 -41.5 67.5 -55.5s58.167 -22.333 93.5 -25l-53 -68l17 -28c7.33301 2.66699 14 4.66699 20 6s13 2 21 2c13.333 0 24.5 -2.83301 33.5 -8.5s13.5 -13.167 13.5 -22.5c0 -6 -2 -10.833 -6 -14.5s-9 -6.83398 -15 -9.50098
s-12.667 -4.5 -20 -5.5s-14.333 -1.5 -21 -1.5c-10.667 0 -21.5 1.33301 -32.5 4s-20.5 5.66699 -28.5 9l-18 -44c15.333 -5.33301 30.5 -9.83301 45.5 -13.5s30.5 -5.5 46.5 -5.5c14 0 28.333 1.5 43 4.5s28 8 40 15s21.833 16.167 29.5 27.5s11.5 25.333 11.5 42
c0 12 -2.33301 22.667 -7 32s-11 17 -19 23s-17 10.5 -27 13.5s-20.333 4.5 -31 4.5c-15.333 0 -26.333 -2.33301 -33 -7l-2 2l33 42c60.667 2.66699 109 21.5 145 56.5s58.667 82.833 68 143.5h-87c-5.33301 -39.333 -20 -70.166 -44 -92.499s-56.667 -33.5 -98 -33.5
c-27.333 0 -50.5 5.33301 -69.5 16s-34.5 24.834 -46.5 42.501s-20.833 37.834 -26.5 60.501s-8.5 46 -8.5 70c0 26 2.66699 51.167 8 75.5s14.166 45.833 26.499 64.5s28.833 33.667 49.5 45s46.334 17 77.001 17c35.333 0 63.833 -9 85.5 -27s35.834 -43.333 42.501 -76
h88z" />
    <glyph glyph-name="ccaron" unicode="&#xe8;" horiz-adv-x="537" 
d="M505 351c-3.33301 30.667 -11.333 57.165 -24 79.498s-29 40.833 -49 55.5s-43 25.5 -69 32.5s-53.667 10.5 -83 10.5c-41.333 0 -77.166 -7.16699 -107.499 -21.5s-55.666 -34 -75.999 -59s-35.5 -54.333 -45.5 -88s-15 -69.834 -15 -108.501
s5.16699 -74.167 15.5 -106.5s25.666 -60.166 45.999 -83.499s45.666 -41.5 75.999 -54.5s65.166 -19.5 104.499 -19.5c65.333 0 117.333 17.667 156 53s62.667 84.666 72 147.999h-85c-5.33301 -39.333 -20.333 -70.166 -45 -92.499s-57.667 -33.5 -99 -33.5
c-27.333 0 -50.5 5.33301 -69.5 16s-34.5 24.834 -46.5 42.501s-20.833 37.834 -26.5 60.501s-8.5 46 -8.5 70c0 26 2.66699 51.167 8 75.5s14.166 45.833 26.499 64.5s28.833 33.667 49.5 45s46.334 17 77.001 17c35.333 0 63.833 -9 85.5 -27s35.834 -43.333 42.501 -76
h90zM429 730.998h-75l-72 -98l-68 98h-85l103 -143h95z" />
    <glyph glyph-name="ccaron" unicode="&#x10d;" horiz-adv-x="537" 
d="M505 351c-3.33301 30.667 -11.333 57.165 -24 79.498s-29 40.833 -49 55.5s-43 25.5 -69 32.5s-53.667 10.5 -83 10.5c-41.333 0 -77.166 -7.16699 -107.499 -21.5s-55.666 -34 -75.999 -59s-35.5 -54.333 -45.5 -88s-15 -69.834 -15 -108.501
s5.16699 -74.167 15.5 -106.5s25.666 -60.166 45.999 -83.499s45.666 -41.5 75.999 -54.5s65.166 -19.5 104.499 -19.5c65.333 0 117.333 17.667 156 53s62.667 84.666 72 147.999h-85c-5.33301 -39.333 -20.333 -70.166 -45 -92.499s-57.667 -33.5 -99 -33.5
c-27.333 0 -50.5 5.33301 -69.5 16s-34.5 24.834 -46.5 42.501s-20.833 37.834 -26.5 60.501s-8.5 46 -8.5 70c0 26 2.66699 51.167 8 75.5s14.166 45.833 26.499 64.5s28.833 33.667 49.5 45s46.334 17 77.001 17c35.333 0 63.833 -9 85.5 -27s35.834 -43.333 42.501 -76
h90zM429 730.998h-75l-72 -98l-68 98h-85l103 -143h95z" />
    <glyph glyph-name="eacute" unicode="&#xe9;" horiz-adv-x="537" 
d="M420 164c-7.33301 -34 -22.499 -59.334 -45.499 -76.001s-52.167 -25 -87.5 -25c-28 0 -52.333 4.66699 -73 14s-37.667 21.833 -51 37.5s-23 33.667 -29 54s-8.66699 41.833 -8 64.5h387c1.33301 31.333 -1.5 64.333 -8.5 99s-19.667 66.667 -38 96
s-42.666 53.5 -72.999 72.5s-68.5 28.5 -114.5 28.5c-35.333 0 -67.833 -6.66699 -97.5 -20s-55.334 -32 -77.001 -56s-38.5 -52.5 -50.5 -85.5s-18 -68.833 -18 -107.5c1.33301 -39.333 7.16602 -75.666 17.499 -108.999s25.833 -62 46.5 -86s46.167 -42.833 76.5 -56.5
s66.166 -20.5 107.499 -20.5c58.667 0 107.334 15 146.001 45s63.667 73.667 75 131h-85zM126.001 307.999c1.33301 20 5.66602 38.833 12.999 56.5s17.333 33.167 30 46.5s27.834 23.833 45.501 31.5s37.5 11.5 59.5 11.5c20.667 0 40 -3.83301 58 -11.5s33.5 -18 46.5 -31
s23.333 -28.5 31 -46.5s12.167 -37 13.5 -57h-297zM208.001 587.999h62l133 143h-111z" />
    <glyph glyph-name="eogonek" unicode="&#xea;" horiz-adv-x="537" 
d="M126 308c1.33301 20 5.66602 38.833 12.999 56.5s17.333 33.167 30 46.5s27.834 23.833 45.501 31.5s37.5 11.5 59.5 11.5c20.667 0 40 -3.83301 58 -11.5s33.5 -18 46.5 -31s23.333 -28.5 31 -46.5s12.167 -37 13.5 -57h-297zM513 233
c1.33301 31.333 -1.5 64.332 -8.5 98.999s-19.667 66.667 -38 96s-42.666 53.5 -72.999 72.5s-68.5 28.5 -114.5 28.5c-35.333 0 -67.833 -6.66699 -97.5 -20s-55.334 -32 -77.001 -56s-38.5 -52.5 -50.5 -85.5s-18 -68.833 -18 -107.5
c1.33301 -39.333 7.16602 -75.666 17.499 -108.999s25.833 -62 46.5 -86s46.167 -42.833 76.5 -56.5s66.166 -20.5 107.499 -20.5c4.66699 0 10 0.166992 16 0.5s11.333 0.833008 16 1.5c-17.333 -13.333 -31 -26 -41 -38s-17.667 -22.833 -23 -32.5
s-8.83301 -18.167 -10.5 -25.5s-2.5 -13 -2.5 -17c0 -20 3.66699 -35.5 11 -46.5s16 -19.167 26 -24.5s20.167 -8.5 30.5 -9.5s18.5 -1.5 24.5 -1.5c20.667 0 40.5 4.5 59.5 13.5s35.167 25.167 48.5 48.5l-32 18c-7.33301 -9.33301 -15.666 -16.666 -24.999 -21.999
s-21.666 -8 -36.999 -8c-13.333 0 -23 4.33301 -29 13s-9 18.334 -9 29.001c0 19.333 7.33301 40.166 22 62.499s35.667 41.166 63 56.499c25.333 14.667 48.5 34.667 69.5 60s35.5 58 43.5 98h-85c-7.33301 -34 -22.5 -59.333 -45.5 -76s-52.167 -25 -87.5 -25
c-28 0 -52.333 4.66699 -73 14s-37.667 21.833 -51 37.5s-23 33.667 -29 54s-8.66699 41.833 -8 64.5h387z" />
    <glyph glyph-name="eogonek" unicode="&#x119;" horiz-adv-x="537" 
d="M126 308c1.33301 20 5.66602 38.833 12.999 56.5s17.333 33.167 30 46.5s27.834 23.833 45.501 31.5s37.5 11.5 59.5 11.5c20.667 0 40 -3.83301 58 -11.5s33.5 -18 46.5 -31s23.333 -28.5 31 -46.5s12.167 -37 13.5 -57h-297zM513 233
c1.33301 31.333 -1.5 64.332 -8.5 98.999s-19.667 66.667 -38 96s-42.666 53.5 -72.999 72.5s-68.5 28.5 -114.5 28.5c-35.333 0 -67.833 -6.66699 -97.5 -20s-55.334 -32 -77.001 -56s-38.5 -52.5 -50.5 -85.5s-18 -68.833 -18 -107.5
c1.33301 -39.333 7.16602 -75.666 17.499 -108.999s25.833 -62 46.5 -86s46.167 -42.833 76.5 -56.5s66.166 -20.5 107.499 -20.5c4.66699 0 10 0.166992 16 0.5s11.333 0.833008 16 1.5c-17.333 -13.333 -31 -26 -41 -38s-17.667 -22.833 -23 -32.5
s-8.83301 -18.167 -10.5 -25.5s-2.5 -13 -2.5 -17c0 -20 3.66699 -35.5 11 -46.5s16 -19.167 26 -24.5s20.167 -8.5 30.5 -9.5s18.5 -1.5 24.5 -1.5c20.667 0 40.5 4.5 59.5 13.5s35.167 25.167 48.5 48.5l-32 18c-7.33301 -9.33301 -15.666 -16.666 -24.999 -21.999
s-21.666 -8 -36.999 -8c-13.333 0 -23 4.33301 -29 13s-9 18.334 -9 29.001c0 19.333 7.33301 40.166 22 62.499s35.667 41.166 63 56.499c25.333 14.667 48.5 34.667 69.5 60s35.5 58 43.5 98h-85c-7.33301 -34 -22.5 -59.333 -45.5 -76s-52.167 -25 -87.5 -25
c-28 0 -52.333 4.66699 -73 14s-37.667 21.833 -51 37.5s-23 33.667 -29 54s-8.66699 41.833 -8 64.5h387z" />
    <glyph glyph-name="edieresis" unicode="&#xeb;" horiz-adv-x="537" 
d="M420 164c-7.33301 -34 -22.499 -59.334 -45.499 -76.001s-52.167 -25 -87.5 -25c-28 0 -52.333 4.66699 -73 14s-37.667 21.833 -51 37.5s-23 33.667 -29 54s-8.66699 41.833 -8 64.5h387c1.33301 31.333 -1.5 64.333 -8.5 99s-19.667 66.667 -38 96
s-42.666 53.5 -72.999 72.5s-68.5 28.5 -114.5 28.5c-35.333 0 -67.833 -6.66699 -97.5 -20s-55.334 -32 -77.001 -56s-38.5 -52.5 -50.5 -85.5s-18 -68.833 -18 -107.5c1.33301 -39.333 7.16602 -75.666 17.499 -108.999s25.833 -62 46.5 -86s46.167 -42.833 76.5 -56.5
s66.166 -20.5 107.499 -20.5c58.667 0 107.334 15 146.001 45s63.667 73.667 75 131h-85zM126.001 307.999c1.33301 20 5.66602 38.833 12.999 56.5s17.333 33.167 30 46.5s27.834 23.833 45.501 31.5s37.5 11.5 59.5 11.5c20.667 0 40 -3.83301 58 -11.5s33.5 -18 46.5 -31
s23.333 -28.5 31 -46.5s12.167 -37 13.5 -57h-297zM328.001 609.999h90v104h-90v-104zM140.001 609.999h90v104h-90v-104z" />
    <glyph glyph-name="ecaron" unicode="&#xec;" horiz-adv-x="537" 
d="M420 164c-7.33301 -34 -22.499 -59.334 -45.499 -76.001s-52.167 -25 -87.5 -25c-28 0 -52.333 4.66699 -73 14s-37.667 21.833 -51 37.5s-23 33.667 -29 54s-8.66699 41.833 -8 64.5h387c1.33301 31.333 -1.5 64.333 -8.5 99s-19.667 66.667 -38 96
s-42.666 53.5 -72.999 72.5s-68.5 28.5 -114.5 28.5c-35.333 0 -67.833 -6.66699 -97.5 -20s-55.334 -32 -77.001 -56s-38.5 -52.5 -50.5 -85.5s-18 -68.833 -18 -107.5c1.33301 -39.333 7.16602 -75.666 17.499 -108.999s25.833 -62 46.5 -86s46.167 -42.833 76.5 -56.5
s66.166 -20.5 107.499 -20.5c58.667 0 107.334 15 146.001 45s63.667 73.667 75 131h-85zM126.001 307.999c1.33301 20 5.66602 38.833 12.999 56.5s17.333 33.167 30 46.5s27.834 23.833 45.501 31.5s37.5 11.5 59.5 11.5c20.667 0 40 -3.83301 58 -11.5s33.5 -18 46.5 -31
s23.333 -28.5 31 -46.5s12.167 -37 13.5 -57h-297zM429.001 730.999h-75l-72 -98l-68 98h-85l103 -143h95z" />
    <glyph glyph-name="ecaron" unicode="&#x11b;" horiz-adv-x="537" 
d="M420 164c-7.33301 -34 -22.499 -59.334 -45.499 -76.001s-52.167 -25 -87.5 -25c-28 0 -52.333 4.66699 -73 14s-37.667 21.833 -51 37.5s-23 33.667 -29 54s-8.66699 41.833 -8 64.5h387c1.33301 31.333 -1.5 64.333 -8.5 99s-19.667 66.667 -38 96
s-42.666 53.5 -72.999 72.5s-68.5 28.5 -114.5 28.5c-35.333 0 -67.833 -6.66699 -97.5 -20s-55.334 -32 -77.001 -56s-38.5 -52.5 -50.5 -85.5s-18 -68.833 -18 -107.5c1.33301 -39.333 7.16602 -75.666 17.499 -108.999s25.833 -62 46.5 -86s46.167 -42.833 76.5 -56.5
s66.166 -20.5 107.499 -20.5c58.667 0 107.334 15 146.001 45s63.667 73.667 75 131h-85zM126.001 307.999c1.33301 20 5.66602 38.833 12.999 56.5s17.333 33.167 30 46.5s27.834 23.833 45.501 31.5s37.5 11.5 59.5 11.5c20.667 0 40 -3.83301 58 -11.5s33.5 -18 46.5 -31
s23.333 -28.5 31 -46.5s12.167 -37 13.5 -57h-297zM429.001 730.999h-75l-72 -98l-68 98h-85l103 -143h95z" />
    <glyph glyph-name="iacute" unicode="&#xed;" horiz-adv-x="222" 
d="M69 0h85v517h-85v-517zM50 588h62l133 143h-111z" />
    <glyph glyph-name="icircumflex" unicode="&#xee;" horiz-adv-x="222" 
d="M69 0h85v517h-85v-517zM-39 588h75l72 98l68 -98h85l-103 143h-95z" />
    <glyph glyph-name="dcaron" unicode="&#xef;" horiz-adv-x="685" 
d="M526 714l-85.001 0.00292969v-266h-2c-9.33301 15.333 -20.833 28.166 -34.5 38.499s-28.167 18.666 -43.5 24.999s-30.666 10.833 -45.999 13.5s-29.666 4 -42.999 4c-39.333 0 -73.833 -7.16699 -103.5 -21.5s-54.334 -33.833 -74.001 -58.5
s-34.334 -53.167 -44.001 -85.5s-14.5 -66.833 -14.5 -103.5s5 -71.334 15 -104.001s24.833 -61.5 44.5 -86.5s44.334 -44.833 74.001 -59.5s64.5 -22 104.5 -22c36 0 69 6.5 99 19.5s52 33.833 66 62.5h2v-70h85v714zM125.999 254.003c0 25.333 2.66699 49.998 8 73.998
s14 45.333 26 64s27.833 33.667 47.5 45s44.167 17 73.5 17s54.333 -5.5 75 -16.5s37.5 -25.5 50.5 -43.5s22.5 -38.833 28.5 -62.5s9 -48.167 9 -73.5c0 -24 -2.83301 -47.667 -8.5 -71s-14.834 -44.166 -27.501 -62.499s-29 -33.166 -49 -44.499s-44.333 -17 -73 -17
c-27.333 0 -51.166 5.33301 -71.499 16s-37 25 -50 43s-22.667 38.5 -29 61.5s-9.5 46.5 -9.5 70.5zM591.999 714.001l0.000976562 -96.9961h51c0 -6.66699 -0.5 -13.834 -1.5 -21.501s-3.33301 -15 -7 -22s-8.83398 -13.333 -15.501 -19s-15.667 -9.83398 -27 -12.501v-40
c20 3.33301 36.167 9.16602 48.5 17.499s22 18.166 29 29.499s11.667 23.5 14 36.5s3.5 25.833 3.5 38.5v90h-95z" />
    <glyph glyph-name="dcaron" unicode="&#x10f;" horiz-adv-x="685" 
d="M526 714l-85.001 0.00292969v-266h-2c-9.33301 15.333 -20.833 28.166 -34.5 38.499s-28.167 18.666 -43.5 24.999s-30.666 10.833 -45.999 13.5s-29.666 4 -42.999 4c-39.333 0 -73.833 -7.16699 -103.5 -21.5s-54.334 -33.833 -74.001 -58.5
s-34.334 -53.167 -44.001 -85.5s-14.5 -66.833 -14.5 -103.5s5 -71.334 15 -104.001s24.833 -61.5 44.5 -86.5s44.334 -44.833 74.001 -59.5s64.5 -22 104.5 -22c36 0 69 6.5 99 19.5s52 33.833 66 62.5h2v-70h85v714zM125.999 254.003c0 25.333 2.66699 49.998 8 73.998
s14 45.333 26 64s27.833 33.667 47.5 45s44.167 17 73.5 17s54.333 -5.5 75 -16.5s37.5 -25.5 50.5 -43.5s22.5 -38.833 28.5 -62.5s9 -48.167 9 -73.5c0 -24 -2.83301 -47.667 -8.5 -71s-14.834 -44.166 -27.501 -62.499s-29 -33.166 -49 -44.499s-44.333 -17 -73 -17
c-27.333 0 -51.166 5.33301 -71.499 16s-37 25 -50 43s-22.667 38.5 -29 61.5s-9.5 46.5 -9.5 70.5zM591.999 714.001l0.000976562 -96.9961h51c0 -6.66699 -0.5 -13.834 -1.5 -21.501s-3.33301 -15 -7 -22s-8.83398 -13.333 -15.501 -19s-15.667 -9.83398 -27 -12.501v-40
c20 3.33301 36.167 9.16602 48.5 17.499s22 18.166 29 29.499s11.667 23.5 14 36.5s3.5 25.833 3.5 38.5v90h-95z" />
    <glyph glyph-name="dcroat" unicode="&#xf0;" horiz-adv-x="593" 
d="M526 714l-85.001 0.00292969v-60h-150v-60h150v-146h-2c-9.33301 15.333 -20.833 28.166 -34.5 38.499s-28.167 18.666 -43.5 24.999s-30.666 10.833 -45.999 13.5s-29.666 4 -42.999 4c-39.333 0 -73.833 -7.16699 -103.5 -21.5s-54.334 -33.833 -74.001 -58.5
s-34.334 -53.167 -44.001 -85.5s-14.5 -66.833 -14.5 -103.5s5 -71.334 15 -104.001s24.833 -61.5 44.5 -86.5s44.334 -44.833 74.001 -59.5s64.5 -22 104.5 -22c36 0 69 6.5 99 19.5s52 33.833 66 62.5h2v-70h85v594h67v60h-67v60zM125.999 254.003
c0 25.333 2.66699 49.998 8 73.998s14 45.333 26 64s27.833 33.667 47.5 45s44.167 17 73.5 17s54.333 -5.5 75 -16.5s37.5 -25.5 50.5 -43.5s22.5 -38.833 28.5 -62.5s9 -48.167 9 -73.5c0 -24 -2.83301 -47.667 -8.5 -71s-14.834 -44.166 -27.501 -62.499
s-29 -33.166 -49 -44.499s-44.333 -17 -73 -17c-27.333 0 -51.166 5.33301 -71.499 16s-37 25 -50 43s-22.667 38.5 -29 61.5s-9.5 46.5 -9.5 70.5z" />
    <glyph glyph-name="dcroat" unicode="&#x111;" horiz-adv-x="593" 
d="M526 714l-85.001 0.00292969v-60h-150v-60h150v-146h-2c-9.33301 15.333 -20.833 28.166 -34.5 38.499s-28.167 18.666 -43.5 24.999s-30.666 10.833 -45.999 13.5s-29.666 4 -42.999 4c-39.333 0 -73.833 -7.16699 -103.5 -21.5s-54.334 -33.833 -74.001 -58.5
s-34.334 -53.167 -44.001 -85.5s-14.5 -66.833 -14.5 -103.5s5 -71.334 15 -104.001s24.833 -61.5 44.5 -86.5s44.334 -44.833 74.001 -59.5s64.5 -22 104.5 -22c36 0 69 6.5 99 19.5s52 33.833 66 62.5h2v-70h85v594h67v60h-67v60zM125.999 254.003
c0 25.333 2.66699 49.998 8 73.998s14 45.333 26 64s27.833 33.667 47.5 45s44.167 17 73.5 17s54.333 -5.5 75 -16.5s37.5 -25.5 50.5 -43.5s22.5 -38.833 28.5 -62.5s9 -48.167 9 -73.5c0 -24 -2.83301 -47.667 -8.5 -71s-14.834 -44.166 -27.501 -62.499
s-29 -33.166 -49 -44.499s-44.333 -17 -73 -17c-27.333 0 -51.166 5.33301 -71.499 16s-37 25 -50 43s-22.667 38.5 -29 61.5s-9.5 46.5 -9.5 70.5z" />
    <glyph glyph-name="nacute" unicode="&#xf1;" 
d="M64 0l84.998 -0.000976562v292c0 23.333 3.16699 44.833 9.5 64.5s15.833 36.834 28.5 51.501s28.5 26 47.5 34s41.5 12 67.5 12c32.667 0 58.334 -9.33301 77.001 -28s28 -44 28 -76v-350h85v340c0 28 -2.83301 53.5 -8.5 76.5s-15.5 42.833 -29.5 59.5
s-32.333 29.667 -55 39s-51 14 -85 14c-37.333 0 -70.166 -7.66699 -98.499 -23s-51.5 -39 -69.5 -71h-2v82h-80v-517zM226.998 587.999h62l133 143h-111z" />
    <glyph glyph-name="nacute" unicode="&#x144;" 
d="M64 0l84.998 -0.000976562v292c0 23.333 3.16699 44.833 9.5 64.5s15.833 36.834 28.5 51.501s28.5 26 47.5 34s41.5 12 67.5 12c32.667 0 58.334 -9.33301 77.001 -28s28 -44 28 -76v-350h85v340c0 28 -2.83301 53.5 -8.5 76.5s-15.5 42.833 -29.5 59.5
s-32.333 29.667 -55 39s-51 14 -85 14c-37.333 0 -70.166 -7.66699 -98.499 -23s-51.5 -39 -69.5 -71h-2v82h-80v-517zM226.998 587.999h62l133 143h-111z" />
    <glyph glyph-name="ncaron" unicode="&#xf2;" 
d="M64 0l84.998 -0.000976562v292c0 23.333 3.16699 44.833 9.5 64.5s15.833 36.834 28.5 51.501s28.5 26 47.5 34s41.5 12 67.5 12c32.667 0 58.334 -9.33301 77.001 -28s28 -44 28 -76v-350h85v340c0 28 -2.83301 53.5 -8.5 76.5s-15.5 42.833 -29.5 59.5
s-32.333 29.667 -55 39s-51 14 -85 14c-37.333 0 -70.166 -7.66699 -98.499 -23s-51.5 -39 -69.5 -71h-2v82h-80v-517zM427.998 730.999h-75l-72 -98l-68 98h-85l103 -143h95z" />
    <glyph glyph-name="ncaron" unicode="&#x148;" 
d="M64 0l84.998 -0.000976562v292c0 23.333 3.16699 44.833 9.5 64.5s15.833 36.834 28.5 51.501s28.5 26 47.5 34s41.5 12 67.5 12c32.667 0 58.334 -9.33301 77.001 -28s28 -44 28 -76v-350h85v340c0 28 -2.83301 53.5 -8.5 76.5s-15.5 42.833 -29.5 59.5
s-32.333 29.667 -55 39s-51 14 -85 14c-37.333 0 -70.166 -7.66699 -98.499 -23s-51.5 -39 -69.5 -71h-2v82h-80v-517zM427.998 730.999h-75l-72 -98l-68 98h-85l103 -143h95z" />
    <glyph glyph-name="oacute" unicode="&#xf3;" horiz-adv-x="574" 
d="M36 258c0 -38 5.33301 -73.333 16 -106s26.667 -61.167 48 -85.5s47.5 -43.5 78.5 -57.5s67.167 -21 108.5 -21c40.667 0 76.667 7 108 21s57.666 33.167 78.999 57.5s37.333 52.833 48 85.5s16 68 16 106s-5.33301 73.5 -16 106.5s-26.667 61.667 -48 86
s-47.666 43.5 -78.999 57.5s-67.333 21 -108 21c-41.333 0 -77.5 -7 -108.5 -21s-57.167 -33.167 -78.5 -57.5s-37.333 -53 -48 -86s-16 -68.5 -16 -106.5zM126 258c0 31.333 4.16699 59.166 12.5 83.499s19.833 44.833 34.5 61.5s31.834 29.334 51.501 38.001
s40.5 13 62.5 13s42.833 -4.33301 62.5 -13s36.834 -21.334 51.501 -38.001s26.167 -37.167 34.5 -61.5s12.5 -52.166 12.5 -83.499s-4.16699 -59.166 -12.5 -83.499s-19.833 -44.666 -34.5 -60.999s-31.834 -28.833 -51.501 -37.5s-40.5 -13 -62.5 -13
s-42.833 4.33301 -62.5 13s-36.834 21.167 -51.501 37.5s-26.167 36.666 -34.5 60.999s-12.5 52.166 -12.5 83.499zM226 588h62l133 143h-111z" />
    <glyph glyph-name="ocircumflex" unicode="&#xf4;" horiz-adv-x="574" 
d="M36 258c0 -38 5.33301 -73.333 16 -106s26.667 -61.167 48 -85.5s47.5 -43.5 78.5 -57.5s67.167 -21 108.5 -21c40.667 0 76.667 7 108 21s57.666 33.167 78.999 57.5s37.333 52.833 48 85.5s16 68 16 106s-5.33301 73.5 -16 106.5s-26.667 61.667 -48 86
s-47.666 43.5 -78.999 57.5s-67.333 21 -108 21c-41.333 0 -77.5 -7 -108.5 -21s-57.167 -33.167 -78.5 -57.5s-37.333 -53 -48 -86s-16 -68.5 -16 -106.5zM126 258c0 31.333 4.16699 59.166 12.5 83.499s19.833 44.833 34.5 61.5s31.834 29.334 51.501 38.001
s40.5 13 62.5 13s42.833 -4.33301 62.5 -13s36.834 -21.334 51.501 -38.001s26.167 -37.167 34.5 -61.5s12.5 -52.166 12.5 -83.499s-4.16699 -59.166 -12.5 -83.499s-19.833 -44.666 -34.5 -60.999s-31.834 -28.833 -51.501 -37.5s-40.5 -13 -62.5 -13
s-42.833 4.33301 -62.5 13s-36.834 21.167 -51.501 37.5s-26.167 36.666 -34.5 60.999s-12.5 52.166 -12.5 83.499zM137 588h75l72 98l68 -98h85l-103 143h-95z" />
    <glyph glyph-name="ohungarumlaut" unicode="&#xf5;" horiz-adv-x="574" 
d="M36 258c0 -38 5.33301 -73.333 16 -106s26.667 -61.167 48 -85.5s47.5 -43.5 78.5 -57.5s67.167 -21 108.5 -21c40.667 0 76.667 7 108 21s57.666 33.167 78.999 57.5s37.333 52.833 48 85.5s16 68 16 106s-5.33301 73.5 -16 106.5s-26.667 61.667 -48 86
s-47.666 43.5 -78.999 57.5s-67.333 21 -108 21c-41.333 0 -77.5 -7 -108.5 -21s-57.167 -33.167 -78.5 -57.5s-37.333 -53 -48 -86s-16 -68.5 -16 -106.5zM126 258c0 31.333 4.16699 59.166 12.5 83.499s19.833 44.833 34.5 61.5s31.834 29.334 51.501 38.001
s40.5 13 62.5 13s42.833 -4.33301 62.5 -13s36.834 -21.334 51.501 -38.001s26.167 -37.167 34.5 -61.5s12.5 -52.166 12.5 -83.499s-4.16699 -59.166 -12.5 -83.499s-19.833 -44.666 -34.5 -60.999s-31.834 -28.833 -51.501 -37.5s-40.5 -13 -62.5 -13
s-42.833 4.33301 -62.5 13s-36.834 21.167 -51.501 37.5s-26.167 36.666 -34.5 60.999s-12.5 52.166 -12.5 83.499zM148 588h68l118 143h-105zM304 588h68l118 143h-105z" />
    <glyph glyph-name="ohungarumlaut" unicode="&#x151;" horiz-adv-x="574" 
d="M36 258c0 -38 5.33301 -73.333 16 -106s26.667 -61.167 48 -85.5s47.5 -43.5 78.5 -57.5s67.167 -21 108.5 -21c40.667 0 76.667 7 108 21s57.666 33.167 78.999 57.5s37.333 52.833 48 85.5s16 68 16 106s-5.33301 73.5 -16 106.5s-26.667 61.667 -48 86
s-47.666 43.5 -78.999 57.5s-67.333 21 -108 21c-41.333 0 -77.5 -7 -108.5 -21s-57.167 -33.167 -78.5 -57.5s-37.333 -53 -48 -86s-16 -68.5 -16 -106.5zM126 258c0 31.333 4.16699 59.166 12.5 83.499s19.833 44.833 34.5 61.5s31.834 29.334 51.501 38.001
s40.5 13 62.5 13s42.833 -4.33301 62.5 -13s36.834 -21.334 51.501 -38.001s26.167 -37.167 34.5 -61.5s12.5 -52.166 12.5 -83.499s-4.16699 -59.166 -12.5 -83.499s-19.833 -44.666 -34.5 -60.999s-31.834 -28.833 -51.501 -37.5s-40.5 -13 -62.5 -13
s-42.833 4.33301 -62.5 13s-36.834 21.167 -51.501 37.5s-26.167 36.666 -34.5 60.999s-12.5 52.166 -12.5 83.499zM148 588h68l118 143h-105zM304 588h68l118 143h-105z" />
    <glyph glyph-name="odieresis" unicode="&#xf6;" horiz-adv-x="574" 
d="M36 258c0 -38 5.33301 -73.333 16 -106s26.667 -61.167 48 -85.5s47.5 -43.5 78.5 -57.5s67.167 -21 108.5 -21c40.667 0 76.667 7 108 21s57.666 33.167 78.999 57.5s37.333 52.833 48 85.5s16 68 16 106s-5.33301 73.5 -16 106.5s-26.667 61.667 -48 86
s-47.666 43.5 -78.999 57.5s-67.333 21 -108 21c-41.333 0 -77.5 -7 -108.5 -21s-57.167 -33.167 -78.5 -57.5s-37.333 -53 -48 -86s-16 -68.5 -16 -106.5zM126 258c0 31.333 4.16699 59.166 12.5 83.499s19.833 44.833 34.5 61.5s31.834 29.334 51.501 38.001
s40.5 13 62.5 13s42.833 -4.33301 62.5 -13s36.834 -21.334 51.501 -38.001s26.167 -37.167 34.5 -61.5s12.5 -52.166 12.5 -83.499s-4.16699 -59.166 -12.5 -83.499s-19.833 -44.666 -34.5 -60.999s-31.834 -28.833 -51.501 -37.5s-40.5 -13 -62.5 -13
s-42.833 4.33301 -62.5 13s-36.834 21.167 -51.501 37.5s-26.167 36.666 -34.5 60.999s-12.5 52.166 -12.5 83.499zM336 610h90v104h-90v-104zM148 610h90v104h-90v-104z" />
    <glyph glyph-name="divide" unicode="&#xf7;" horiz-adv-x="600" 
d="M48 219h504v68h-504v-68zM236 459c0 -17.333 6.49902 -32.333 19.499 -45s28.167 -19 45.5 -19c16.667 0 31.334 6.66699 44.001 20s19 28 19 44c0 17.333 -6.33301 32.333 -19 45s-27.667 19 -45 19s-32.333 -6.33301 -45 -19s-19 -27.667 -19 -45zM235.999 47
c0 -17.333 6.49902 -32.333 19.499 -45s28.167 -19 45.5 -19c16.667 0 31.334 6.66699 44.001 20s19 28 19 44c0 17.333 -6.33301 32.333 -19 45s-27.667 19 -45 19s-32.333 -6.33301 -45 -19s-19 -27.667 -19 -45z" />
    <glyph glyph-name="rcaron" unicode="&#xf8;" horiz-adv-x="333" 
d="M61 0h84.999v230c0 32.667 3.33301 62 10 88s17.334 48 32.001 66s34 31.667 58 41s53 14 87 14v90c-46 1.33301 -84 -8 -114 -28s-55.333 -51 -76 -93h-2v109h-80v-517zM326.999 731h-75l-72 -98l-68 98h-85l103 -143h95z" />
    <glyph glyph-name="rcaron" unicode="&#x159;" horiz-adv-x="333" 
d="M61 0h84.999v230c0 32.667 3.33301 62 10 88s17.334 48 32.001 66s34 31.667 58 41s53 14 87 14v90c-46 1.33301 -84 -8 -114 -28s-55.333 -51 -76 -93h-2v109h-80v-517zM326.999 731h-75l-72 -98l-68 98h-85l103 -143h95z" />
    <glyph glyph-name="uring" unicode="&#xf9;" 
d="M492 517l-84.998 0.000976562v-292c0 -23.333 -3.16699 -44.833 -9.5 -64.5s-15.833 -36.834 -28.5 -51.501s-28.5 -26 -47.5 -34s-41.5 -12 -67.5 -12c-32.667 0 -58.334 9.33301 -77.001 28s-28 44 -28 76v350h-85v-340c0 -28 2.83301 -53.5 8.5 -76.5
s15.5 -42.833 29.5 -59.5s32.333 -29.667 55 -39s51 -14 85 -14c37.333 0 70.166 7.66699 98.499 23s51.5 39 69.5 71h2v-82h80v517zM210.002 662.001c0 19.333 6.5 35.5 19.5 48.5s29.167 19.5 48.5 19.5s35.5 -6.5 48.5 -19.5s19.5 -29.167 19.5 -48.5
s-6.5 -35.5 -19.5 -48.5s-29.167 -19.5 -48.5 -19.5s-35.5 6.5 -48.5 19.5s-19.5 29.167 -19.5 48.5zM165.002 662.001c0 -15.333 3 -29.833 9 -43.5s14.167 -25.667 24.5 -36s22.333 -18.5 36 -24.5s28.167 -9 43.5 -9s29.833 3 43.5 9s25.667 14.167 36 24.5
s18.5 22.333 24.5 36s9 28.167 9 43.5s-3 29.833 -9 43.5s-14.167 25.667 -24.5 36s-22.333 18.5 -36 24.5s-28.167 9 -43.5 9s-29.833 -3 -43.5 -9s-25.667 -14.167 -36 -24.5s-18.5 -22.333 -24.5 -36s-9 -28.167 -9 -43.5z" />
    <glyph glyph-name="uring" unicode="&#x16f;" 
d="M492 517l-84.998 0.000976562v-292c0 -23.333 -3.16699 -44.833 -9.5 -64.5s-15.833 -36.834 -28.5 -51.501s-28.5 -26 -47.5 -34s-41.5 -12 -67.5 -12c-32.667 0 -58.334 9.33301 -77.001 28s-28 44 -28 76v350h-85v-340c0 -28 2.83301 -53.5 8.5 -76.5
s15.5 -42.833 29.5 -59.5s32.333 -29.667 55 -39s51 -14 85 -14c37.333 0 70.166 7.66699 98.499 23s51.5 39 69.5 71h2v-82h80v517zM210.002 662.001c0 19.333 6.5 35.5 19.5 48.5s29.167 19.5 48.5 19.5s35.5 -6.5 48.5 -19.5s19.5 -29.167 19.5 -48.5
s-6.5 -35.5 -19.5 -48.5s-29.167 -19.5 -48.5 -19.5s-35.5 6.5 -48.5 19.5s-19.5 29.167 -19.5 48.5zM165.002 662.001c0 -15.333 3 -29.833 9 -43.5s14.167 -25.667 24.5 -36s22.333 -18.5 36 -24.5s28.167 -9 43.5 -9s29.833 3 43.5 9s25.667 14.167 36 24.5
s18.5 22.333 24.5 36s9 28.167 9 43.5s-3 29.833 -9 43.5s-14.167 25.667 -24.5 36s-22.333 18.5 -36 24.5s-28.167 9 -43.5 9s-29.833 -3 -43.5 -9s-25.667 -14.167 -36 -24.5s-18.5 -22.333 -24.5 -36s-9 -28.167 -9 -43.5z" />
    <glyph glyph-name="uacute" unicode="&#xfa;" 
d="M492 517l-84.998 0.000976562v-292c0 -23.333 -3.16699 -44.833 -9.5 -64.5s-15.833 -36.834 -28.5 -51.501s-28.5 -26 -47.5 -34s-41.5 -12 -67.5 -12c-32.667 0 -58.334 9.33301 -77.001 28s-28 44 -28 76v350h-85v-340c0 -28 2.83301 -53.5 8.5 -76.5
s15.5 -42.833 29.5 -59.5s32.333 -29.667 55 -39s51 -14 85 -14c37.333 0 70.166 7.66699 98.499 23s51.5 39 69.5 71h2v-82h80v517zM217.002 588.001h62l133 143h-111z" />
    <glyph glyph-name="uhungarumlaut" unicode="&#xfb;" 
d="M492 517l-84.998 0.000976562v-292c0 -23.333 -3.16699 -44.833 -9.5 -64.5s-15.833 -36.834 -28.5 -51.501s-28.5 -26 -47.5 -34s-41.5 -12 -67.5 -12c-32.667 0 -58.334 9.33301 -77.001 28s-28 44 -28 76v350h-85v-340c0 -28 2.83301 -53.5 8.5 -76.5
s15.5 -42.833 29.5 -59.5s32.333 -29.667 55 -39s51 -14 85 -14c37.333 0 70.166 7.66699 98.499 23s51.5 39 69.5 71h2v-82h80v517zM139.002 588.001h68l118 143h-105zM295.002 588.001h68l118 143h-105z" />
    <glyph glyph-name="uhungarumlaut" unicode="&#x171;" 
d="M492 517l-84.998 0.000976562v-292c0 -23.333 -3.16699 -44.833 -9.5 -64.5s-15.833 -36.834 -28.5 -51.501s-28.5 -26 -47.5 -34s-41.5 -12 -67.5 -12c-32.667 0 -58.334 9.33301 -77.001 28s-28 44 -28 76v350h-85v-340c0 -28 2.83301 -53.5 8.5 -76.5
s15.5 -42.833 29.5 -59.5s32.333 -29.667 55 -39s51 -14 85 -14c37.333 0 70.166 7.66699 98.499 23s51.5 39 69.5 71h2v-82h80v517zM139.002 588.001h68l118 143h-105zM295.002 588.001h68l118 143h-105z" />
    <glyph glyph-name="udieresis" unicode="&#xfc;" 
d="M492 517l-84.998 0.000976562v-292c0 -23.333 -3.16699 -44.833 -9.5 -64.5s-15.833 -36.834 -28.5 -51.501s-28.5 -26 -47.5 -34s-41.5 -12 -67.5 -12c-32.667 0 -58.334 9.33301 -77.001 28s-28 44 -28 76v350h-85v-340c0 -28 2.83301 -53.5 8.5 -76.5
s15.5 -42.833 29.5 -59.5s32.333 -29.667 55 -39s51 -14 85 -14c37.333 0 70.166 7.66699 98.499 23s51.5 39 69.5 71h2v-82h80v517zM327.002 610.001h90v104h-90v-104zM139.002 610.001h90v104h-90v-104z" />
    <glyph glyph-name="yacute" unicode="&#xfd;" horiz-adv-x="500" 
d="M492 517l-90.001 0.000976562l-145 -423h-2l-152 423h-95l205 -514l-35 -88c-8 -15.333 -17.333 -27 -28 -35s-24.667 -12 -42 -12c-8.66699 0 -17.167 1.33301 -25.5 4l-24.5 8v-80c18 -4.66699 37.667 -7 59 -7c18.667 0 35.334 2.5 50.001 7.5s27.667 13 39 24
s21.833 25.167 31.5 42.5s19.5 38.666 29.5 63.999zM188.999 588.001h62l133 143h-111z" />
    <glyph glyph-name="tcommaaccent" unicode="&#xfe;" horiz-adv-x="315" 
d="M182 672h-85.002v-155h-88v-75h88v-329c0 -24 2.33301 -43.333 7 -58s11.834 -26 21.501 -34s22.334 -13.5 38.001 -16.5s34.5 -4.5 56.5 -4.5h65v75h-39c-13.333 0 -24.166 0.5 -32.499 1.5s-14.833 3.16699 -19.5 6.5s-7.83398 8 -9.50098 14s-2.5 14 -2.5 24v321h103
v75h-103v155zM128.998 -51l0.000976562 -96.9961h51c0 -6.66699 -0.5 -13.834 -1.5 -21.501s-3.33301 -15 -7 -22s-8.83398 -13.333 -15.501 -19s-15.667 -9.83398 -27 -12.501v-40c20 3.33301 36.167 9.16602 48.5 17.499s22 18.166 29 29.499s11.667 23.5 14 36.5
s3.5 25.833 3.5 38.5v90h-95z" />
    <glyph glyph-name="tcommaaccent" unicode="&#x163;" horiz-adv-x="315" 
d="M182 672h-85.002v-155h-88v-75h88v-329c0 -24 2.33301 -43.333 7 -58s11.834 -26 21.501 -34s22.334 -13.5 38.001 -16.5s34.5 -4.5 56.5 -4.5h65v75h-39c-13.333 0 -24.166 0.5 -32.499 1.5s-14.833 3.16699 -19.5 6.5s-7.83398 8 -9.50098 14s-2.5 14 -2.5 24v321h103
v75h-103v155zM128.998 -51l0.000976562 -96.9961h51c0 -6.66699 -0.5 -13.834 -1.5 -21.501s-3.33301 -15 -7 -22s-8.83398 -13.333 -15.501 -19s-15.667 -9.83398 -27 -12.501v-40c20 3.33301 36.167 9.16602 48.5 17.499s22 18.166 29 29.499s11.667 23.5 14 36.5
s3.5 25.833 3.5 38.5v90h-95z" />
    <glyph glyph-name="dotaccent" unicode="&#xff;" horiz-adv-x="222" 
d="M156 714h-90v-104h90v104z" />
    <glyph glyph-name="dotaccent" unicode="&#x2d9;" horiz-adv-x="222" 
d="M156 714h-90v-104h90v104z" />
    <glyph glyph-name="Amacron" unicode="&#x100;" horiz-adv-x="648" 
d="M-7 0h98l80 215h302l78 -215h105l-279 714h-105zM322 628h2l119 -333h-242zM154 807h341v55h-341v-55z" />
    <glyph glyph-name="amacron" unicode="&#x101;" horiz-adv-x="537" 
d="M384 180c0 -12 -3 -24.8301 -9 -38.4971s-15.333 -26.334 -28 -38.001s-29 -21.334 -49 -29.001s-44 -11.5 -72 -11.5c-13.333 0 -26 1.33301 -38 4s-22.5 7 -31.5 13s-16.333 13.833 -22 23.5s-8.5 21.5 -8.5 35.5c0 16 2.83301 29.333 8.5 40s13.167 19.5 22.5 26.5
s20.333 12.5 33 16.5s26 7.33301 40 10s28.5 4.83398 43.5 6.50098s29.167 3.66699 42.5 6s26 5.16602 38 8.49902s22 7.66602 30 12.999v-86zM522 68.0029c-9.33301 -3.33301 -18.001 -5.00098 -26.001 -5.00098c-13.333 0 -21.166 4.66699 -23.499 14s-3.5 24 -3.5 44v266
c0 30 -5.66699 54.333 -17 73s-26.333 33.167 -45 43.5s-39.5 17.166 -62.5 20.499s-46.167 5 -69.5 5c-28.667 0 -56 -3 -82 -9s-49 -15.833 -69 -29.5s-36 -31.5 -48 -53.5s-18.667 -49 -20 -81h85c2 38 15 63.833 39 77.5s54 20.5 90 20.5c13.333 0 26.833 -1 40.5 -3
s26 -6 37 -12s19.833 -14.667 26.5 -26s10 -26.333 10 -45c0 -16 -4.66699 -28.167 -14 -36.5s-21.833 -14.666 -37.5 -18.999s-34 -7.66602 -55 -9.99902s-43.167 -5.83301 -66.5 -10.5c-22 -4 -43.5 -9.16699 -64.5 -15.5s-39.667 -15.166 -56 -26.499
s-29.5 -26.333 -39.5 -45s-15 -42.667 -15 -72c0 -26 4.5 -48.167 13.5 -66.5s21.167 -33.333 36.5 -45s33.5 -20.167 54.5 -25.5s43.167 -8 66.5 -8c36 0 69.5 6.33301 100.5 19s58.167 33 81.5 61c0 -28 6.5 -48.333 19.5 -61s30.5 -19 52.5 -19
c13.333 0 25 1.16699 35 3.5s18.667 5.16602 26 8.49902v68zM110.999 634.002h341v55h-341v-55z" />
    <glyph glyph-name="Emacron" unicode="&#x112;" horiz-adv-x="611" 
d="M78 0h496v80h-401v247h371v80h-371v227h398v80h-493v-714zM154 807h341v55h-341v-55z" />
    <glyph glyph-name="emacron" unicode="&#x113;" horiz-adv-x="537" 
d="M421 164c-7.33301 -34 -22.667 -59.334 -46 -76.001s-52.666 -25 -87.999 -25c-28 0 -52.333 4.66699 -73 14s-37.667 21.833 -51 37.5s-23 33.667 -29 54s-8.66699 41.833 -8 64.5h387c1.33301 31.333 -1.5 64.333 -8.5 99s-19.667 66.667 -38 96
s-42.666 53.5 -72.999 72.5s-68.5 28.5 -114.5 28.5c-35.333 0 -67.833 -6.66699 -97.5 -20s-55.334 -32 -77.001 -56s-38.5 -52.5 -50.5 -85.5s-18 -68.833 -18 -107.5c1.33301 -39.333 7.16602 -75.666 17.499 -108.999s25.833 -62 46.5 -86s46.167 -42.833 76.5 -56.5
s66.166 -20.5 107.499 -20.5c58.667 0 107.334 15 146.001 45s63.667 73.667 75 131h-84zM125.999 307.999c1.33301 20 5.66602 38.833 12.999 56.5s17.333 33.167 30 46.5s27.834 23.833 45.501 31.5s37.5 11.5 59.5 11.5c20.667 0 40 -3.83301 58 -11.5s33.5 -18 46.5 -31
s23.333 -28.5 31 -46.5s12.167 -37 13.5 -57h-297zM116.999 633.999h341v55h-341v-55z" />
    <glyph glyph-name="Edotaccent" unicode="&#x116;" horiz-adv-x="611" 
d="M78 0h496v80h-401v247h371v80h-371v227h398v80h-493v-714zM281 787h90v104h-90v-104z" />
    <glyph glyph-name="edotaccent" unicode="&#x117;" horiz-adv-x="537" 
d="M421 164c-7.33301 -34 -22.667 -59.334 -46 -76.001s-52.666 -25 -87.999 -25c-28 0 -52.333 4.66699 -73 14s-37.667 21.833 -51 37.5s-23 33.667 -29 54s-8.66699 41.833 -8 64.5h387c1.33301 31.333 -1.5 64.333 -8.5 99s-19.667 66.667 -38 96
s-42.666 53.5 -72.999 72.5s-68.5 28.5 -114.5 28.5c-35.333 0 -67.833 -6.66699 -97.5 -20s-55.334 -32 -77.001 -56s-38.5 -52.5 -50.5 -85.5s-18 -68.833 -18 -107.5c1.33301 -39.333 7.16602 -75.666 17.499 -108.999s25.833 -62 46.5 -86s46.167 -42.833 76.5 -56.5
s66.166 -20.5 107.499 -20.5c58.667 0 107.334 15 146.001 45s63.667 73.667 75 131h-84zM125.999 307.999c1.33301 20 5.66602 38.833 12.999 56.5s17.333 33.167 30 46.5s27.834 23.833 45.501 31.5s37.5 11.5 59.5 11.5c20.667 0 40 -3.83301 58 -11.5s33.5 -18 46.5 -31
s23.333 -28.5 31 -46.5s12.167 -37 13.5 -57h-297zM325.999 713.999h-90v-104h90v104z" />
    <glyph glyph-name="Gbreve" unicode="&#x11e;" horiz-adv-x="759" 
d="M637 0l59.9971 0.00292969v376h-313v-80h228c1.33301 -32.667 -2.83398 -63.167 -12.501 -91.5s-24.5 -53 -44.5 -74s-44.5 -37.5 -73.5 -49.5s-61.833 -18 -98.5 -18c-40 0 -75.167 7.83301 -105.5 23.5s-55.833 36.667 -76.5 63s-36.334 56.666 -47.001 90.999
s-16 70.166 -16 107.499c0 38 4.66699 75.167 14 111.5s23.833 68.666 43.5 96.999s45 51.166 76 68.499s68.167 26 111.5 26c26.667 0 51.834 -3.16699 75.501 -9.5s44.834 -15.833 63.501 -28.5s34.334 -29 47.001 -49s21.334 -43.333 26.001 -70h95
c-6.66699 42 -19.167 77.833 -37.5 107.5s-41 54.167 -68 73.5s-57.667 33.5 -92 42.5s-70.833 13.5 -109.5 13.5c-56.667 0 -106.167 -10.5 -148.5 -31.5s-77.666 -49.167 -105.999 -84.5s-49.666 -76.5 -63.999 -123.5s-21.5 -96.5 -21.5 -148.5
c0 -46.667 7.66699 -91.667 23 -135s37.666 -81.666 66.999 -114.999s65 -60 107 -80s89.667 -30 143 -30c20.667 0 41.667 2 63 6s42 10.333 62 19s38.833 19.667 56.5 33s33.5 29.333 47.5 48zM223.997 908.003c13.333 -95.333 64.668 -143 154.001 -143
c44 0 79.5 12.5 106.5 37.5s44.167 60.167 51.5 105.5h-51c-10 -28 -21.833 -49.667 -35.5 -65s-34.834 -23 -63.501 -23s-52.5 7 -71.5 21s-32.5 36.333 -40.5 67h-50z" />
    <glyph glyph-name="gbreve" unicode="&#x11f;" horiz-adv-x="574" 
d="M272 69c-28 0 -51.333 5.83496 -70 17.502s-33.667 27 -45 46s-19.333 40.167 -24 63.5s-7 46.666 -7 69.999c0 24.667 2.83301 48.334 8.5 71.001s14.667 42.667 27 60s28.166 31.166 47.499 41.499s42.666 15.5 69.999 15.5c26.667 0 49.334 -5.33301 68.001 -16
s33.834 -24.834 45.501 -42.501s20.167 -37.5 25.5 -59.5s8 -44.333 8 -67c0 -24 -2.83301 -48 -8.5 -72s-14.5 -45.5 -26.5 -64.5s-27.833 -34.333 -47.5 -46s-43.5 -17.5 -71.5 -17.5zM510 517.002l-79.9932 -0.00195312v-74h-2c-15.333 28.667 -36.5 50.167 -63.5 64.5
s-56.833 21.5 -89.5 21.5c-44.667 0 -82.334 -8.5 -113.001 -25.5s-55.334 -38.833 -74.001 -65.5s-32 -56 -40 -88s-12 -63.333 -12 -94c0 -35.333 4.83301 -68.833 14.5 -100.5s24.167 -59.5 43.5 -83.5s43.333 -43 72 -57s62.334 -21 101.001 -21c16 0 32.167 2 48.5 6
s31.666 9.83301 45.999 17.5s27.166 17.334 38.499 29.001s20.666 25.5 27.999 41.5h2v-34c0 -29.333 -2.83301 -56 -8.5 -80s-14.834 -44.5 -27.501 -61.5s-28.667 -30.333 -48 -40s-43 -14.5 -71 -14.5c-14 0 -28.667 1.5 -44 4.5s-29.5 7.83301 -42.5 14.5
s-24 15.334 -33 26.001s-13.833 23.667 -14.5 39h-85c1.33301 -28 8.66602 -51.667 21.999 -71s30.166 -35 50.499 -47s43 -20.667 68 -26s49.5 -8 73.5 -8c82 0 142.5 21.167 181.5 63.5s58.5 105.833 58.5 190.5v473zM131.007 731
c13.333 -95.333 64.668 -143 154.001 -143c44 0 79.5 12.5 106.5 37.5s44.167 60.167 51.5 105.5h-51c-10 -28 -21.833 -49.667 -35.5 -65s-34.834 -23 -63.501 -23s-52.5 7 -71.5 21s-32.5 36.333 -40.5 67h-50z" />
    <glyph glyph-name="Gcommaaccent" unicode="&#x122;" horiz-adv-x="759" 
d="M637 0l59.9971 0.00292969v376h-313v-80h228c1.33301 -32.667 -2.83398 -63.167 -12.501 -91.5s-24.5 -53 -44.5 -74s-44.5 -37.5 -73.5 -49.5s-61.833 -18 -98.5 -18c-40 0 -75.167 7.83301 -105.5 23.5s-55.833 36.667 -76.5 63s-36.334 56.666 -47.001 90.999
s-16 70.166 -16 107.499c0 38 4.66699 75.167 14 111.5s23.833 68.666 43.5 96.999s45 51.166 76 68.499s68.167 26 111.5 26c26.667 0 51.834 -3.16699 75.501 -9.5s44.834 -15.833 63.501 -28.5s34.334 -29 47.001 -49s21.334 -43.333 26.001 -70h95
c-6.66699 42 -19.167 77.833 -37.5 107.5s-41 54.167 -68 73.5s-57.667 33.5 -92 42.5s-70.833 13.5 -109.5 13.5c-56.667 0 -106.167 -10.5 -148.5 -31.5s-77.666 -49.167 -105.999 -84.5s-49.666 -76.5 -63.999 -123.5s-21.5 -96.5 -21.5 -148.5
c0 -46.667 7.66699 -91.667 23 -135s37.666 -81.666 66.999 -114.999s65 -60 107 -80s89.667 -30 143 -30c20.667 0 41.667 2 63 6s42 10.333 62 19s38.833 19.667 56.5 33s33.5 29.333 47.5 48zM326.997 -50.9971l0.000976562 -96.9961h51
c0 -6.66699 -0.5 -13.834 -1.5 -21.501s-3.33301 -15 -7 -22s-8.83398 -13.333 -15.501 -19s-15.667 -9.83398 -27 -12.501v-40c20 3.33301 36.167 9.16602 48.5 17.499s22 18.166 29 29.499s11.667 23.5 14 36.5s3.5 25.833 3.5 38.5v90h-95z" />
    <glyph glyph-name="gcommaaccent" unicode="&#x123;" horiz-adv-x="574" 
d="M272 69c-28 0 -51.333 5.83496 -70 17.502s-33.667 27 -45 46s-19.333 40.167 -24 63.5s-7 46.666 -7 69.999c0 24.667 2.83301 48.334 8.5 71.001s14.667 42.667 27 60s28.166 31.166 47.499 41.499s42.666 15.5 69.999 15.5c26.667 0 49.334 -5.33301 68.001 -16
s33.834 -24.834 45.501 -42.501s20.167 -37.5 25.5 -59.5s8 -44.333 8 -67c0 -24 -2.83301 -48 -8.5 -72s-14.5 -45.5 -26.5 -64.5s-27.833 -34.333 -47.5 -46s-43.5 -17.5 -71.5 -17.5zM510 517.002l-79.9932 -0.00195312v-74h-2c-15.333 28.667 -36.5 50.167 -63.5 64.5
s-56.833 21.5 -89.5 21.5c-44.667 0 -82.334 -8.5 -113.001 -25.5s-55.334 -38.833 -74.001 -65.5s-32 -56 -40 -88s-12 -63.333 -12 -94c0 -35.333 4.83301 -68.833 14.5 -100.5s24.167 -59.5 43.5 -83.5s43.333 -43 72 -57s62.334 -21 101.001 -21c16 0 32.167 2 48.5 6
s31.666 9.83301 45.999 17.5s27.166 17.334 38.499 29.001s20.666 25.5 27.999 41.5h2v-34c0 -29.333 -2.83301 -56 -8.5 -80s-14.834 -44.5 -27.501 -61.5s-28.667 -30.333 -48 -40s-43 -14.5 -71 -14.5c-14 0 -28.667 1.5 -44 4.5s-29.5 7.83301 -42.5 14.5
s-24 15.334 -33 26.001s-13.833 23.667 -14.5 39h-85c1.33301 -28 8.66602 -51.667 21.999 -71s30.166 -35 50.499 -47s43 -20.667 68 -26s49.5 -8 73.5 -8c82 0 142.5 21.167 181.5 63.5s58.5 105.833 58.5 190.5v473zM332.007 588l-0.000976562 96.9961h-51
c0 6.66699 0.5 13.834 1.5 21.501s3.33301 15 7 22s8.83398 13.333 15.501 19s15.667 9.83398 27 12.501v40c-20 -3.33301 -36.167 -9.16602 -48.5 -17.499s-22 -18.166 -29 -29.499s-11.667 -23.5 -14 -36.5s-3.5 -25.833 -3.5 -38.5v-90h95z" />
    <glyph glyph-name="Imacron" unicode="&#x12a;" horiz-adv-x="259" 
d="M-41 807h341v55h-341v-55zM82 0h95v714h-95v-714z" />
    <glyph glyph-name="imacron" unicode="&#x12b;" horiz-adv-x="222" 
d="M69 0h85v517h-85v-517zM6 634h211v55h-211v-55z" />
    <glyph glyph-name="Iogonek" unicode="&#x12e;" horiz-adv-x="259" 
d="M177 714l-95.0029 -0.00195312v-714h26c-24 -15.333 -43.333 -29.666 -58 -42.999s-25.667 -25.5 -33 -36.5s-12.166 -20.667 -14.499 -29s-3.5 -14.833 -3.5 -19.5c0 -20 3.66699 -35.5 11 -46.5s16 -19.167 26 -24.5s20.167 -8.5 30.5 -9.5s18.5 -1.5 24.5 -1.5
c20.667 0 40.5 4.5 59.5 13.5s35.167 25.167 48.5 48.5l-32 18c-7.33301 -9.33301 -15.666 -16.666 -24.999 -21.999s-21.666 -8 -36.999 -8c-13.333 0 -23 4.33301 -29 13s-9 18.334 -9 29.001c0 13.333 5.33301 29.166 16 47.499s33 41.833 67 70.5h27v714z" />
    <glyph glyph-name="iogonek" unicode="&#x12f;" horiz-adv-x="222" 
d="M154 714h-85v-104h85v104zM154 517l-85.002 -0.00195312v-517h26c-24.667 -15.333 -44.167 -29.666 -58.5 -42.999s-25.333 -25.5 -33 -36.5s-12.5 -20.667 -14.5 -29s-3 -14.833 -3 -19.5c0 -20 3.66699 -35.5 11 -46.5s16 -19.167 26 -24.5s20.167 -8.5 30.5 -9.5
s18.5 -1.5 24.5 -1.5c20.667 0 40.5 4.5 59.5 13.5s35.167 25.167 48.5 48.5l-32 18c-7.33301 -9.33301 -15.666 -16.666 -24.999 -21.999s-21.666 -8 -36.999 -8c-13.333 0 -23 4.33301 -29 13s-9 18.334 -9 29.001c0 13.333 5.33301 29.166 16 47.499s33 41.833 67 70.5
h17v517z" />
    <glyph glyph-name="Idotaccent" unicode="&#x130;" horiz-adv-x="259" 
d="M82 0h95v714h-95v-714zM175 891h-90v-104h90v104z" />
    <glyph glyph-name="dotlessi" unicode="&#x131;" horiz-adv-x="222" 
d="M154 0v517h-85v-517h85z" />
    <glyph glyph-name="Kcommaaccent" unicode="&#x136;" horiz-adv-x="667" 
d="M78 0h95v250l119 111l258 -361h120l-313 426l301 288h-123l-362 -356v356h-95v-714zM279 -51l0.000976562 -96.9961h51c0 -6.66699 -0.5 -13.834 -1.5 -21.501s-3.33301 -15 -7 -22s-8.83398 -13.333 -15.501 -19s-15.667 -9.83398 -27 -12.501v-40
c20 3.33301 36.167 9.16602 48.5 17.499s22 18.166 29 29.499s11.667 23.5 14 36.5s3.5 25.833 3.5 38.5v90h-95z" />
    <glyph glyph-name="kcommaaccent" unicode="&#x137;" horiz-adv-x="519" 
d="M69 0h85v196l80 74l177 -270h108l-220 329l205 188h-114l-236 -226v423h-85v-714zM213 -51l0.000976562 -96.9961h51c0 -6.66699 -0.5 -13.834 -1.5 -21.501s-3.33301 -15 -7 -22s-8.83398 -13.333 -15.501 -19s-15.667 -9.83398 -27 -12.501v-40
c20 3.33301 36.167 9.16602 48.5 17.499s22 18.166 29 29.499s11.667 23.5 14 36.5s3.5 25.833 3.5 38.5v90h-95z" />
    <glyph glyph-name="Lcommaaccent" unicode="&#x13b;" 
d="M78 0h473v80h-378v634h-95v-714zM231 -51l0.000976562 -96.9961h51c0 -6.66699 -0.5 -13.834 -1.5 -21.501s-3.33301 -15 -7 -22s-8.83398 -13.333 -15.501 -19s-15.667 -9.83398 -27 -12.501v-40c20 3.33301 36.167 9.16602 48.5 17.499s22 18.166 29 29.499
s11.667 23.5 14 36.5s3.5 25.833 3.5 38.5v90h-95z" />
    <glyph glyph-name="lcommaaccent" unicode="&#x13c;" horiz-adv-x="222" 
d="M69 0h85v714h-85v-714zM64 -51l0.000976562 -96.9961h51c0 -6.66699 -0.5 -13.834 -1.5 -21.501s-3.33301 -15 -7 -22s-8.83398 -13.333 -15.501 -19s-15.667 -9.83398 -27 -12.501v-40c20 3.33301 36.167 9.16602 48.5 17.499s22 18.166 29 29.499s11.667 23.5 14 36.5
s3.5 25.833 3.5 38.5v90h-95z" />
    <glyph glyph-name="Ncommaaccent" unicode="&#x145;" horiz-adv-x="722" 
d="M77 0h90v573h2l373 -573h104v714h-90v-579h-2l-376 579h-101v-714zM314 -51l0.000976562 -96.9961h51c0 -6.66699 -0.5 -13.834 -1.5 -21.501s-3.33301 -15 -7 -22s-8.83398 -13.333 -15.501 -19s-15.667 -9.83398 -27 -12.501v-40
c20 3.33301 36.167 9.16602 48.5 17.499s22 18.166 29 29.499s11.667 23.5 14 36.5s3.5 25.833 3.5 38.5v90h-95z" />
    <glyph glyph-name="ncommaaccent" unicode="&#x146;" 
d="M64 0l84.998 -0.000976562v292c0 23.333 3.16699 44.833 9.5 64.5s15.833 36.834 28.5 51.501s28.5 26 47.5 34s41.5 12 67.5 12c32.667 0 58.334 -9.33301 77.001 -28s28 -44 28 -76v-350h85v340c0 28 -2.83301 53.5 -8.5 76.5s-15.5 42.833 -29.5 59.5
s-32.333 29.667 -55 39s-51 14 -85 14c-37.333 0 -70.166 -7.66699 -98.499 -23s-51.5 -39 -69.5 -71h-2v82h-80v-517zM230.998 -51.001l0.000976562 -96.9961h51c0 -6.66699 -0.5 -13.834 -1.5 -21.501s-3.33301 -15 -7 -22s-8.83398 -13.333 -15.501 -19
s-15.667 -9.83398 -27 -12.501v-40c20 3.33301 36.167 9.16602 48.5 17.499s22 18.166 29 29.499s11.667 23.5 14 36.5s3.5 25.833 3.5 38.5v90h-95z" />
    <glyph glyph-name="Omacron" unicode="&#x14c;" horiz-adv-x="760" 
d="M38 357c0 -48.667 7.16699 -95.5 21.5 -140.5s35.833 -84.833 64.5 -119.5s64.334 -62.334 107.001 -83.001s92.334 -31 149.001 -31s106.334 10.333 149.001 31s78.334 48.334 107.001 83.001s50.167 74.5 64.5 119.5s21.5 91.833 21.5 140.5s-7.16699 95.5 -21.5 140.5
s-35.833 84.833 -64.5 119.5s-64.334 62.334 -107.001 83.001s-92.334 31 -149.001 31s-106.334 -10.333 -149.001 -31s-78.334 -48.334 -107.001 -83.001s-50.167 -74.5 -64.5 -119.5s-21.5 -91.833 -21.5 -140.5zM133 357c0 36 4.66699 71.5 14 106.5s24 66.5 44 94.5
s45.667 50.5 77 67.5s68.666 25.5 111.999 25.5s80.666 -8.5 111.999 -25.5s57 -39.5 77 -67.5s34.667 -59.5 44 -94.5s14 -70.5 14 -106.5s-4.66699 -71.5 -14 -106.5s-24 -66.5 -44 -94.5s-45.667 -50.5 -77 -67.5s-68.666 -25.5 -111.999 -25.5
s-80.666 8.5 -111.999 25.5s-57 39.5 -77 67.5s-34.667 59.5 -44 94.5s-14 70.5 -14 106.5zM210 807h341v55h-341v-55z" />
    <glyph glyph-name="omacron" unicode="&#x14d;" horiz-adv-x="574" 
d="M36 258c0 -38 5.33301 -73.333 16 -106s26.667 -61.167 48 -85.5s47.5 -43.5 78.5 -57.5s67.167 -21 108.5 -21c40.667 0 76.667 7 108 21s57.666 33.167 78.999 57.5s37.333 52.833 48 85.5s16 68 16 106s-5.33301 73.5 -16 106.5s-26.667 61.667 -48 86
s-47.666 43.5 -78.999 57.5s-67.333 21 -108 21c-41.333 0 -77.5 -7 -108.5 -21s-57.167 -33.167 -78.5 -57.5s-37.333 -53 -48 -86s-16 -68.5 -16 -106.5zM126 258c0 31.333 4.16699 59.166 12.5 83.499s19.833 44.833 34.5 61.5s31.834 29.334 51.501 38.001
s40.5 13 62.5 13s42.833 -4.33301 62.5 -13s36.834 -21.334 51.501 -38.001s26.167 -37.167 34.5 -61.5s12.5 -52.166 12.5 -83.499s-4.16699 -59.166 -12.5 -83.499s-19.833 -44.666 -34.5 -60.999s-31.834 -28.833 -51.501 -37.5s-40.5 -13 -62.5 -13
s-42.833 4.33301 -62.5 13s-36.834 21.167 -51.501 37.5s-26.167 36.666 -34.5 60.999s-12.5 52.166 -12.5 83.499zM123 634h341v55h-341v-55z" />
    <glyph glyph-name="OE" unicode="&#x152;" horiz-adv-x="648" 
d="M581 505c-1.33301 39.333 -9.00098 73.1641 -23.001 101.497s-32.667 51.833 -56 70.5s-50.666 32.334 -81.999 41.001s-65.333 13 -102 13c-32.667 0 -64.5 -4.16699 -95.5 -12.5s-58.667 -21 -83 -38s-43.833 -38.667 -58.5 -65s-22 -57.5 -22 -93.5
c0 -32.667 6.5 -59.667 19.5 -81s30.333 -39 52 -53s46.167 -25.167 73.5 -33.5s55.333 -15.5 84 -21.5s56.667 -12.167 84 -18.5s51.666 -14.333 72.999 -24s38.5 -22.167 51.5 -37.5s19.5 -35.333 19.5 -60c0 -26 -5.33301 -47.333 -16 -64s-24.667 -29.834 -42 -39.501
s-36.833 -16.5 -58.5 -20.5s-43.167 -6 -64.5 -6c-27.333 0 -53.5 3.33301 -78.5 10s-47 17 -66 31s-34.333 31.833 -46 53.5s-17.5 47.5 -17.5 77.5h-90c0 -43.333 7.83301 -80.833 23.5 -112.5s37 -57.834 64 -78.501s58.333 -36 94 -46s73.5 -15 113.5 -15
c32.667 0 65.5 4 98.5 12s62.833 20.5 89.5 37.5s48.5 39 65.5 66s25.5 59.5 25.5 97.5c0 34.667 -6.5 63.834 -19.5 87.501s-30.167 43.167 -51.5 58.5s-45.666 27.5 -72.999 36.5s-55.333 16.833 -84 23.5s-56.667 12.834 -84 18.501s-51.833 12.834 -73.5 21.501
s-39 19.834 -52 33.501s-19.5 31.5 -19.5 53.5c0 23.333 4.5 42.833 13.5 58.5s21 28.167 36 37.5s32.167 16 51.5 20s39 6 59 6c49.333 0 89.833 -11.5 121.5 -34.5s50.167 -60.167 55.5 -111.5h90zM267.999 764.998h62l133 143h-111z" />
    <glyph glyph-name="oe" unicode="&#x153;" horiz-adv-x="500" 
d="M31 163c1.33301 -32 7.99707 -59.1631 19.9971 -81.4961s28 -40.333 48 -54s42.833 -23.667 68.5 -30s53.167 -9.5 82.5 -9.5c26 0 52.167 2.66699 78.5 8s50 14.333 71 27s38 29.5 51 50.5s19.5 46.833 19.5 77.5c0 24.667 -4.83301 45.334 -14.5 62.001
s-22.334 30.5 -38.001 41.5s-33.667 19.833 -54 26.5s-41.166 12.334 -62.499 17.001l-60 13.5c-20 4.33301 -38 9.66602 -54 15.999s-29.167 14.166 -39.5 23.499s-15.5 21.666 -15.5 36.999c0 12.667 3.33301 23.334 10 32.001s15.334 15.5 26.001 20.5
s22.5 8.5 35.5 10.5s25.833 3 38.5 3c14 0 27.833 -1.5 41.5 -4.5s26 -7.83301 37 -14.5s20.333 -15.5 28 -26.5s12.167 -24.833 13.5 -41.5h85c-2 31.333 -8.66699 57.5 -20 78.5s-26.5 37.667 -45.5 50s-41 21 -66 26s-51.833 7.5 -80.5 7.5
c-22.667 0 -45.5 -2.83301 -68.5 -8.5s-43.667 -14.334 -62 -26.001s-33.333 -26.834 -45 -45.501s-17.5 -41 -17.5 -67c0 -24.667 4.83301 -45.334 14.5 -62.001s22.5 -30.334 38.5 -41.001s34 -19.334 54 -26.001s40.667 -12.334 62 -17.001l62.5 -13.5
c20.333 -4.33301 38.333 -9.83301 54 -16.5s28.334 -15.167 38.001 -25.5s14.5 -23.833 14.5 -40.5c0 -16 -4 -29.167 -12 -39.5s-18.167 -18.166 -30.5 -23.499s-25.833 -9 -40.5 -11s-28.667 -3 -42 -3c-17.333 0 -34.166 1.66699 -50.499 5s-31 8.83301 -44 16.5
s-23.5 17.834 -31.5 30.501s-12.333 28.667 -13 48h-85zM188.997 588.004h62l133 143h-111z" />
    <glyph glyph-name="Rcommaaccent" unicode="&#x156;" horiz-adv-x="685" 
d="M173 385v249h236c44.667 0 77 -11.5 97 -34.5s30 -52.167 30 -87.5c0 -26 -4.5 -47.167 -13.5 -63.5s-21 -29.333 -36 -39s-32.5 -16.167 -52.5 -19.5s-41 -5 -63 -5h-198zM78 0l95 0.00195312v305h232c22.667 0 41.167 -3.5 55.5 -10.5s25.833 -16.333 34.5 -28
s15 -25.334 19 -41.001s7.33301 -32.167 10 -49.5c3.33301 -24.667 5.33301 -46.167 6 -64.5s1.5 -34.5 2.5 -48.5s2.5 -26 4.5 -36s6.33301 -19 13 -27h106c-10 12 -17.5 25.833 -22.5 41.5s-8.66699 32 -11 49s-4 34.667 -5 53s-2.16699 36.166 -3.5 53.499
c-2 17.333 -4.66699 34 -8 50s-9 30.5 -17 43.5s-18.5 24.167 -31.5 33.5s-29.833 16 -50.5 20v2c43.333 12 74.833 34.333 94.5 67s29.5 70.667 29.5 114c0 57.333 -19.333 102.833 -58 136.5s-91.667 50.5 -159 50.5h-336v-714zM296 -50.998l0.000976562 -96.9961h51
c0 -6.66699 -0.5 -13.834 -1.5 -21.501s-3.33301 -15 -7 -22s-8.83398 -13.333 -15.501 -19s-15.667 -9.83398 -27 -12.501v-40c20 3.33301 36.167 9.16602 48.5 17.499s22 18.166 29 29.499s11.667 23.5 14 36.5s3.5 25.833 3.5 38.5v90h-95z" />
    <glyph glyph-name="rcommaaccent" unicode="&#x157;" horiz-adv-x="333" 
d="M61 0h84.999v230c0 32.667 3.33301 62 10 88s17.334 48 32.001 66s34 31.667 58 41s53 14 87 14v90c-46 1.33301 -84 -8 -114 -28s-55.333 -51 -76 -93h-2v109h-80v-517zM55.999 -51l0.000976562 -96.9961h51c0 -6.66699 -0.5 -13.834 -1.5 -21.501s-3.33301 -15 -7 -22
s-8.83398 -13.333 -15.501 -19s-15.667 -9.83398 -27 -12.501v-40c20 3.33301 36.167 9.16602 48.5 17.499s22 18.166 29 29.499s11.667 23.5 14 36.5s3.5 25.833 3.5 38.5v90h-95z" />
    <glyph glyph-name="Umacron" unicode="&#x16a;" horiz-adv-x="722" 
d="M648 714l-95 0.00195312v-456c0 -63.333 -15.833 -111.666 -47.5 -144.999s-77.834 -50 -138.501 -50c-63.333 0 -112.166 16.667 -146.499 50s-51.5 81.666 -51.5 144.999v456h-95v-456c0 -47.333 6.66699 -88.333 20 -123s32.5 -63.334 57.5 -86.001
s55.667 -39.334 92 -50.001s77.5 -16 123.5 -16c89.333 0 158.5 23.167 207.5 69.5s73.5 114.833 73.5 205.5v456zM191 807.002h341v55h-341v-55z" />
    <glyph glyph-name="umacron" unicode="&#x16b;" 
d="M492 517l-84.998 0.000976562v-292c0 -23.333 -3.16699 -44.833 -9.5 -64.5s-15.833 -36.834 -28.5 -51.501s-28.5 -26 -47.5 -34s-41.5 -12 -67.5 -12c-32.667 0 -58.334 9.33301 -77.001 28s-28 44 -28 76v350h-85v-340c0 -28 2.83301 -53.5 8.5 -76.5
s15.5 -42.833 29.5 -59.5s32.333 -29.667 55 -39s51 -14 85 -14c37.333 0 70.166 7.66699 98.499 23s51.5 39 69.5 71h2v-82h80v517zM114.002 634.001h341v55h-341v-55z" />
    <glyph glyph-name="Uogonek" unicode="&#x172;" horiz-adv-x="722" 
d="M169 714l-95.002 0.00195312v-456c0 -47.333 6.66699 -88.333 20 -123s32.5 -63.334 57.5 -86.001s55.667 -39.334 92 -50.001s77.5 -16 123.5 -16c16 1.33301 31.5 2.5 46.5 3.5s29.167 3.16699 42.5 6.5c-22 -14 -39.333 -27.5 -52 -40.5s-22.5 -24.667 -29.5 -35
s-11.5 -19.5 -13.5 -27.5s-3 -14 -3 -18c0 -20 3.66699 -35.5 11 -46.5s16 -19.167 26 -24.5s20.167 -8.5 30.5 -9.5s18.5 -1.5 24.5 -1.5c20.667 0 40.5 4.5 59.5 13.5s35.167 25.167 48.5 48.5l-32 18c-7.33301 -9.33301 -15.666 -16.666 -24.999 -21.999
s-21.666 -8 -36.999 -8c-13.333 0 -23 4.33301 -29 13s-9 18.334 -9 29.001c0 21.333 10.333 43.666 31 66.999s53 52 97 86c30 23.333 53.167 52.666 69.5 87.999s24.5 80.333 24.5 135v456h-95v-456c0 -63.333 -15.833 -111.666 -47.5 -144.999s-77.834 -50 -138.501 -50
c-63.333 0 -112.166 16.667 -146.499 50s-51.5 81.666 -51.5 144.999v456z" />
    <glyph glyph-name="uogonek" unicode="&#x173;" 
d="M492 517l-85.001 -0.000976562v-292c0 -23.333 -3.16699 -44.833 -9.5 -64.5s-15.833 -36.834 -28.5 -51.501s-28.5 -26 -47.5 -34s-41.5 -12 -67.5 -12c-32.667 0 -58.334 9.33301 -77.001 28s-28 44 -28 76v350h-85v-340c0 -28 2.83301 -53.5 8.5 -76.5
s15.5 -42.833 29.5 -59.5s32.333 -29.667 55 -39s51 -14 85 -14c37.333 0 70.166 7.66699 98.499 23s51.5 39 69.5 71h2v-82h24c-24 -15.333 -43.333 -29.666 -58 -42.999s-25.667 -25.5 -33 -36.5s-12.166 -20.667 -14.499 -29s-3.5 -14.833 -3.5 -19.5
c0 -20 3.66699 -35.5 11 -46.5s16 -19.167 26 -24.5s20.167 -8.5 30.5 -9.5s18.5 -1.5 24.5 -1.5c20.667 0 40.5 4.5 59.5 13.5s35.167 25.167 48.5 48.5l-32 18c-7.33301 -9.33301 -15.666 -16.666 -24.999 -21.999s-21.666 -8 -36.999 -8c-13.333 0 -23 4.33301 -29 13
s-9 18.334 -9 29.001c0 13.333 5.33301 29.166 16 47.499s33 41.833 67 70.5h14v517z" />
    <glyph glyph-name="Ydieresis" unicode="&#x178;" horiz-adv-x="480" 
d="M22 0h436v75h-330l316 384v58h-402v-75h291l-311 -377v-65zM189 588h62l133 143h-111z" />
    <glyph glyph-name="florin" unicode="&#x192;" 
d="M492 714h-74.001c-42.667 0 -77.167 -12 -103.5 -36s-43.166 -55 -50.499 -93l-26 -136h-91l-13 -68h92l-70 -369c-4 -23.333 -8.66699 -41.666 -14 -54.999s-12.833 -23.5 -22.5 -30.5s-22.667 -11.5 -39 -13.5s-37.5 -3 -63.5 -3l-14 -75h66c28 0 52 3.66699 72 11
s37.5 20 52.5 38s27.667 42.167 38 72.5s19.5 68.166 27.5 113.499l55 311h100l14 68h-102l31 138c4 17.333 10.833 30.333 20.5 39s23.5 13 41.5 13h59z" />
    <glyph glyph-name="circumflex" unicode="&#x2c6;" horiz-adv-x="222" 
d="M-39 588h77l70 96l69 -96h84l-104 143h-93z" />
    <glyph glyph-name="macron" unicode="&#x2c9;" horiz-adv-x="222" 
d="M-59 634h341v55h-341v-55z" />
    <glyph glyph-name="ring" unicode="&#x2da;" horiz-adv-x="222" 
d="M43 662c0 19.333 6.5 35.5 19.5 48.5s29.167 19.5 48.5 19.5s35.5 -6.5 48.5 -19.5s19.5 -29.167 19.5 -48.5s-6.5 -35.5 -19.5 -48.5s-29.167 -19.5 -48.5 -19.5s-35.5 6.5 -48.5 19.5s-19.5 29.167 -19.5 48.5zM-2 662c0 -15.333 3 -29.833 9 -43.5
s14.167 -25.667 24.5 -36s22.333 -18.5 36 -24.5s28.167 -9 43.5 -9s29.833 3 43.5 9s25.667 14.167 36 24.5s18.5 22.333 24.5 36s9 28.167 9 43.5s-3 29.833 -9 43.5s-14.167 25.667 -24.5 36s-22.333 18.5 -36 24.5s-28.167 9 -43.5 9s-29.833 -3 -43.5 -9
s-25.667 -14.167 -36 -24.5s-18.5 -22.333 -24.5 -36s-9 -28.167 -9 -43.5z" />
    <glyph glyph-name="tilde" unicode="&#x2dc;" horiz-adv-x="222" 
d="M233 719c-3.33301 -10 -8.50195 -19.833 -15.502 -29.5s-17.167 -14.5 -30.5 -14.5c-10.667 0 -21.5 2 -32.5 6s-22.167 8.66699 -33.5 14s-23.166 10 -35.499 14s-25.166 6 -38.499 6c-16 0 -29.667 -3 -41 -9s-21 -14 -29 -24s-14.833 -21.667 -20.5 -35
s-10.5 -27.333 -14.5 -42h52c-0.666992 6 0.5 11.667 3.5 17s6.83301 9.83301 11.5 13.5s10 6.5 16 8.5s11.667 3 17 3c9.33301 0 19.833 -2 31.5 -6s23.5 -8.33301 35.5 -13c12 -5.33301 23.833 -10 35.5 -14s21.834 -6 30.501 -6c19.333 0 35.166 2.83301 47.499 8.5
s22.833 13.167 31.5 22.5c16.667 24 27 50.667 31 80h-52z" />
    <glyph glyph-name="Delta" unicode="&#x394;" horiz-adv-x="704" 
d="M369 714h-73l-282 -714h642zM331 644l229 -582h-454z" />
    <glyph glyph-name="partialdiff" unicode="&#x2202;" horiz-adv-x="496" 
d="M101 620c12.667 10 27.668 19.9971 45.001 29.9971s39.666 15 66.999 15c8 0 18 -1 30 -3s24.5 -6.16699 37.5 -12.5s26 -15.833 39 -28.5s24.833 -29.667 35.5 -51c10 -20 17.667 -41.333 23 -64s9 -44.5 11 -65.5s2.83301 -40.333 2.5 -58s-0.5 -31.5 -0.5 -41.5
c-28 33.333 -57 55.666 -87 66.999s-56.333 17 -79 17s-45.5 -4 -68.5 -12s-43.833 -20.667 -62.5 -38s-33.834 -39.5 -45.501 -66.5s-17.5 -59.167 -17.5 -96.5c0 -32.667 5 -62.667 15 -90s23.833 -51 41.5 -71s38.667 -35.5 63 -46.5s50.833 -16.5 79.5 -16.5
c24.667 0 46.334 3.66699 65.001 11s34.5 15.833 47.5 25.5s23.333 19.334 31 29.001s13.167 16.834 16.5 21.501c20 30 35.833 67.667 47.5 113s17.5 103.333 17.5 174c0 56 -4.83301 103.833 -14.5 143.5s-22.167 72.834 -37.5 99.501s-32.5 47.667 -51.5 63
s-37.5 27 -55.5 35s-34.667 13 -50 15s-27.333 3 -36 3c-20 0 -37.833 -2.16699 -53.5 -6.5s-29.5 -9.66602 -41.5 -15.999s-22.167 -12.833 -30.5 -19.5l-19.5 -16zM93.001 209.997c0 28.667 4.33203 53.168 12.999 73.501s19.667 36.833 33 49.5
s28.166 21.834 44.499 27.501s32.166 8.5 47.499 8.5c8.66699 0 19 -1.16699 31 -3.5s24.833 -6.83301 38.5 -13.5s27.834 -16 42.501 -28s29 -27.333 43 -46c-2 -40.667 -7.66699 -75.834 -17 -105.501s-21 -54.334 -35 -74.001s-30 -34.167 -48 -43.5s-36.333 -14 -55 -14
c-15.333 0 -31.166 3.33301 -47.499 10s-31.166 17 -44.499 31s-24.333 31.5 -33 52.5s-13 46.167 -13 75.5z" />
    <glyph glyph-name="summation" unicode="&#x2211;" horiz-adv-x="600" 
d="M566 786h-527v-56l315 -441l-328 -447v-56h552v61h-472l327 442l-309 435h442v62z" />
    <glyph glyph-name="minus" unicode="&#x2212;" horiz-adv-x="600" 
d="M48 219h504v68h-504v-68z" />
    <glyph glyph-name="fraction" unicode="&#x2215;" horiz-adv-x="167" 
d="M-166 -28h64l435 753h-64z" />
    <glyph glyph-name="radical" unicode="&#x221a;" horiz-adv-x="496" 
d="M502 786h-63l-188 -916l-159 332l-100 -48l24 -50l46 22l164 -340h66z" />
    <glyph glyph-name="notequal" unicode="&#x2260;" horiz-adv-x="600" 
d="M48 118h129l-59 -112l59 -31l75 143h300v68h-265l70 134h195v68h-160l53 102l-59 31l-69 -133h-269v-68h234l-70 -134h-164v-68z" />
    <glyph glyph-name="lessequal" unicode="&#x2264;" horiz-adv-x="600" 
d="M554 156l-425 145l425 145v68l-508 -182v-62l508 -182v68zM552 68h-504v-68h504v68z" />
    <glyph glyph-name="greaterequal" unicode="&#x2265;" horiz-adv-x="600" 
d="M46 88l508 182v62l-508 182v-68l425 -145l-425 -145v-68zM48 0h504v68h-504v-68z" />
    <glyph glyph-name="lozenge" unicode="&#x25ca;" horiz-adv-x="600" 
d="M331 747h-63l-169 -391l169 -391h63l170 391zM437 356l-137 -325l-136 325l136 325z" />
    <glyph glyph-name=".361" unicode="&#xe000;" horiz-adv-x="1074" 
d="M372 63c-39.333 0 -73.8311 7.49902 -103.498 22.499s-54.5 35.5 -74.5 61.5s-35.167 56.5 -45.5 91.5s-15.5 72.5 -15.5 112.5s5 78.167 15 114.5s25 68.333 45 96s45 49.5 75 65.5s65.333 24 106 24c38 0 71.167 -7.66699 99.5 -23s49.166 -33.333 62.499 -54
c7.33301 -11.333 11.666 -23 12.999 -35s2 -23.333 2 -34v-301c0 -20.667 -4.66699 -39.667 -14 -57s-22 -32.166 -38 -44.499s-35 -22 -57 -29s-45.333 -10.5 -70 -10.5zM551.002 -0.000976562h483v80h-388v247h350v80h-350v227h382v80h-477v-59h-2
c-7.33301 12.667 -17.5 23.834 -30.5 33.501s-27.5 17.667 -43.5 24s-32.833 11 -50.5 14s-34.834 4.5 -51.501 4.5c-53.333 0 -100.666 -9.5 -141.999 -28.5s-76.333 -45.333 -105 -79s-50.5 -73.334 -65.5 -119.001s-22.5 -95.5 -22.5 -149.5
c0 -52 7.16699 -100.667 21.5 -146s35.333 -84.833 63 -118.5s61.834 -60 102.501 -79s87.334 -28.5 140.001 -28.5c18 0 36.167 1.83301 54.5 5.5s35.666 9.16699 51.999 16.5s31.166 16.333 44.499 27s24.333 23 33 37h2v-69z" />
    <glyph glyph-name=".362" unicode="&#xe001;" horiz-adv-x="891" 
d="M864 233c2 40.667 -0.832031 78.999 -8.49902 114.999s-20.834 67.333 -39.501 94s-43.167 47.834 -73.5 63.501s-66.833 23.5 -109.5 23.5c-36.667 0 -71.834 -7.5 -105.501 -22.5s-59.5 -37.833 -77.5 -68.5c-17.333 36 -41.5 60.167 -72.5 72.5
s-66.5 18.5 -106.5 18.5s-74.667 -7 -104 -21s-53.833 -33.167 -73.5 -57.5s-34.167 -52.833 -43.5 -85.5s-14 -68 -14 -106c0 -36.667 4.66699 -71.5 14 -104.5s23.5 -61.833 42.5 -86.5s43.333 -44.167 73 -58.5s64.834 -21.5 105.501 -21.5
c38.667 0 74.167 7.66699 106.5 23s56.5 41.666 72.5 78.999c16 -37.333 40.5 -63.666 73.5 -78.999s71.167 -23 114.5 -23c113.333 0 187 58.667 221 176h-81c-10 -32 -27.333 -56.833 -52 -74.5s-54 -26.5 -88 -26.5c-25.333 0 -47.5 4.66699 -66.5 14
s-34.667 21.833 -47 37.5s-21.5 33.667 -27.5 54s-8.66699 41.833 -8 64.5h375zM489.001 307.999c-0.666992 42.667 11.999 77.667 37.999 105s61.333 41 106 41s79.334 -13.333 104.001 -40s37 -62 37 -106h-285zM415 259.999c0 -23.333 -2.16699 -46.668 -6.5 -70.001
s-12 -44.5 -23 -63.5s-25.667 -34.333 -44 -46s-41.833 -17.5 -70.5 -17.5c-26 0 -48.333 5.5 -67 16.5s-33.667 25.333 -45 43s-19.666 37.5 -24.999 59.5s-8 44 -8 66c0 25.333 2.5 50.333 7.5 75s13.167 46.667 24.5 66s26.166 35 44.499 47s41.166 18 68.499 18
c29.333 0 53.333 -5.66699 72 -17s33.334 -26.166 44.001 -44.499s18 -39 22 -62s6 -46.5 6 -70.5z" />
    <glyph glyph-name=".363" unicode="&#xe002;" horiz-adv-x="648" 
d="M646 714h-108l-209 -340l-214 340h-113l276 -422v-292h95v292zM373 787h90v104h-90v-104zM185 787h90v104h-90v-104z" />
    <glyph glyph-name=".E003h" unicode="&#xe003;" horiz-adv-x="600" 
d="M552 388h-504v-68h436v-211h68v279z" />
    <glyph glyph-name="commaaccent" unicode="&#xf004;" horiz-adv-x="222" 
d="M64 -51l0.000976562 -96.9961h51c0 -6.66699 -0.5 -13.834 -1.5 -21.501s-3.33301 -15 -7 -22s-8.83398 -13.333 -15.501 -19s-15.667 -9.83398 -27 -12.501v-40c20 3.33301 36.167 9.16602 48.5 17.499s22 18.166 29 29.499s11.667 23.5 14 36.5s3.5 25.833 3.5 38.5v90
h-95z" />
    <glyph glyph-name="commaaccent" unicode="&#xf6c3;" horiz-adv-x="222" 
d="M64 -51l0.000976562 -96.9961h51c0 -6.66699 -0.5 -13.834 -1.5 -21.501s-3.33301 -15 -7 -22s-8.83398 -13.333 -15.501 -19s-15.667 -9.83398 -27 -12.501v-40c20 3.33301 36.167 9.16602 48.5 17.499s22 18.166 29 29.499s11.667 23.5 14 36.5s3.5 25.833 3.5 38.5v90
h-95z" />
    <glyph glyph-name="fi" unicode="&#xfb01;" horiz-adv-x="518" 
d="M99 0h85v442h100v75h-100v72c0 22.667 5.66699 38 17 46s27.333 12 48 12c7.33301 0 15.333 -0.5 24 -1.5s16.667 -2.83301 24 -5.5v74c-8 2.66699 -17.167 4.66699 -27.5 6s-19.5 2 -27.5 2c-46.667 0 -82.167 -10.833 -106.5 -32.5s-36.5 -53.5 -36.5 -95.5v-77h-87
v-75h87v-442zM450 610v104h-85v-104h85zM450 0v517h-85v-517h85z" />
    <glyph glyph-name="fl" unicode="&#xfb02;" horiz-adv-x="518" 
d="M99 0h85v442h100v75h-100v72c0 22.667 5.66699 38 17 46s27.333 12 48 12c7.33301 0 15.333 -0.5 24 -1.5s16.667 -2.83301 24 -5.5v74c-8 2.66699 -17.167 4.66699 -27.5 6s-19.5 2 -27.5 2c-46.667 0 -82.167 -10.833 -106.5 -32.5s-36.5 -53.5 -36.5 -95.5v-77h-87
v-75h87v-442zM365 0h85v714h-85v-714z" />
    <glyph glyph-name="logicalnot" horiz-adv-x="600" 
d="M552 388h-504v-68h436v-211h68v279z" />
    <glyph glyph-name="ordfeminine" horiz-adv-x="378" 
d="M317 622c0 18 -4.00293 32.667 -12.0029 44s-18.167 20.166 -30.5 26.499s-26.333 10.666 -42 12.999s-30.834 3.5 -45.501 3.5c-19.333 0 -37.666 -1.83301 -54.999 -5.5s-32.666 -9.83398 -45.999 -18.501s-24.166 -19.667 -32.499 -33s-12.833 -29.666 -13.5 -48.999
h60c1.33301 21.333 9.5 36 24.5 44s34.5 12 58.5 12c9.33301 0 18.666 -0.5 27.999 -1.5s17.666 -3.16699 24.999 -6.5s13.166 -8.33301 17.499 -15s6.5 -15.334 6.5 -26.001c0 -6.66699 -1.66699 -12.167 -5 -16.5s-9.16602 -8 -17.499 -11s-20 -5.5 -35 -7.5
s-34.167 -4.33301 -57.5 -7c-14.667 -1.33301 -29.167 -4 -43.5 -8s-27.166 -9.83301 -38.499 -17.5s-20.5 -17.5 -27.5 -29.5s-10.5 -26.667 -10.5 -44c0 -15.333 3.16699 -28.666 9.5 -39.999s14.833 -20.666 25.5 -27.999s23 -12.666 37 -15.999s29 -5 45 -5
c48.667 0 87.667 15.333 117 46c2 -30.667 19 -46 51 -46c8.66699 0 16.334 0.666992 23.001 2s13.334 3.33301 20.001 6v44c-3.33301 -1.33301 -7 -2 -11 -2h-11c-5.33301 0 -9 2.33301 -11 7s-3 13 -3 25v160zM154.997 430c-16.667 0 -31.1689 2.49805 -43.502 7.49805
s-18.5 16.167 -18.5 33.5s6.16699 29.5 18.5 36.5s27.5 12.167 45.5 15.5c18.667 3.33301 37.334 6.33301 56.001 9s33.334 7.33398 44.001 14.001v-47c0 -7.33301 -1.83301 -15.166 -5.5 -23.499s-9.5 -15.833 -17.5 -22.5s-18.5 -12.167 -31.5 -16.5
s-28.833 -6.5 -47.5 -6.5z" />
    <glyph glyph-name="ugrave" 
d="M492 517l-84.998 0.000976562v-292c0 -23.333 -3.16699 -44.833 -9.5 -64.5s-15.833 -36.834 -28.5 -51.501s-28.5 -26 -47.5 -34s-41.5 -12 -67.5 -12c-32.667 0 -58.334 9.33301 -77.001 28s-28 44 -28 76v350h-85v-340c0 -28 2.83301 -53.5 8.5 -76.5
s15.5 -42.833 29.5 -59.5s32.333 -29.667 55 -39s51 -14 85 -14c37.333 0 70.166 7.66699 98.499 23s51.5 39 69.5 71h2v-82h80v517zM275.002 588.001h64l-86 143h-109z" />
    </font>
</defs>
</svg>
